<svg xmlns="http://www.w3.org/2000/svg" xmlns:xlink="http://www.w3.org/1999/xlink" viewBox="0 0 1921.74 1485.99"><defs><style>.cls-1{fill:url(#linear-gradient);}.cls-2{fill:url(#linear-gradient-2);}.cls-3{fill:#292b5b;}.cls-4,.cls-5,.cls-6{fill:#191d47;}.cls-5{opacity:0.3;}.cls-6{opacity:0.4;}</style><linearGradient id="linear-gradient" x1="691.8" y1="933.75" x2="691.8" y2="1120.78" gradientUnits="userSpaceOnUse"><stop offset="0" stop-color="#291f4b"/><stop offset="1" stop-color="#2d3865"/></linearGradient><linearGradient id="linear-gradient-2" x1="960.87" y1="969.24" x2="960.87" y2="1217.43" gradientUnits="userSpaceOnUse"><stop offset="0" stop-color="#211a43"/><stop offset="1" stop-color="#26315f"/></linearGradient></defs><title>foreground</title><g id="OBJECTS"><path class="cls-1" d="M0,950.78v250.1H1383.59S973.24,882.16,0,950.78Z" transform="translate(0 -678.86)"/><path class="cls-2" d="M0,1185.59s582.63-91.52,1136.21-194.29c263.07-48.84,544.12,73.74,785.53,84.33V1201H0Z" transform="translate(0 -678.86)"/><path class="cls-3" d="M265.81,1208.1c-14.73-6.62-22.89-24.49-22.89-24.49,6.12,4,13.7,2.48,13.7,2.48-15-6.49-19.24-17.17-19.24-17.17,6.42,2.48,9.19,1.91,9.19,1.91-8.31-7.06-10.5-18.32-10.5-18.32,7.14,3.63,10.5,1.91,10.5,1.91-10.93-5.72-15.6-18.51-15.6-18.51,8,5.92,13.85,5.92,13.85,5.92-12.83-7.63-16.77-24.62-16.77-24.62a17.08,17.08,0,0,0,13.41,4.2c-7.58-5.15-13.56-22.33-13.56-22.33,6.12,5,16.33,5.15,16.33,5.15-14.29-6.11-20.12-25.38-20.12-25.38a21.83,21.83,0,0,0,10.64,2.29c-11.81-8.4-17.2-22.14-17.2-22.14,6.56,4,14.87,4.39,14.87,4.39-15.16-9-18.22-21.56-18.22-21.56,5.25,2.86,6.56,1.53,6.56,1.53-9.77-6.11-18.88-31.18-18.88-31.18s-5.52,34.11-24.18,37.67c0,0,7.58,1.27,14-3.05,0,0-5.64,19.08-17.3,23.92a34.23,34.23,0,0,0,10.5-2.29s-4.67,20.61-19.05,27c0,0,13.61.76,20.8-9.41,0,0-6.22,24.93-16.91,28.5,0,0,7.39,2.54,14.77-3.82,0,0-12.64,27.73-23.52,29,0,0,8.94.76,15.75-2.8,0,0-8.36,22.64-18.08,25.7,0,0,6.61,1.78,15.36-3.56,0,0-11.08,24.43-27.8,28a29.47,29.47,0,0,0,24.69-5.85s-5.44,21.88-20.41,27h50.66v33.84h9.72V1208.1Z" transform="translate(0 -678.86)"/><path class="cls-3" d="M456.17,1197.06c-14.73-6.62-22.89-24.49-22.89-24.49,6.12,4,13.7,2.48,13.7,2.48-15-6.49-19.24-17.17-19.24-17.17,6.41,2.48,9.18,1.91,9.18,1.91-8.31-7.06-10.5-18.32-10.5-18.32,7.14,3.63,10.5,1.91,10.5,1.91-10.93-5.72-15.6-18.51-15.6-18.51,8,5.92,13.85,5.92,13.85,5.92-12.83-7.63-16.77-24.62-16.77-24.62a17.08,17.08,0,0,0,13.41,4.2c-7.58-5.15-13.56-22.33-13.56-22.33,6.12,5,16.33,5.15,16.33,5.15-14.29-6.11-20.12-25.38-20.12-25.38a21.83,21.83,0,0,0,10.64,2.29c-11.81-8.4-17.2-22.14-17.2-22.14,6.56,4,14.87,4.39,14.87,4.39-15.16-9-18.22-21.56-18.22-21.56,5.25,2.86,6.56,1.53,6.56,1.53-9.77-6.11-18.88-31.18-18.88-31.18s-5.52,34.11-24.18,37.67c0,0,7.58,1.27,14-3.05,0,0-5.64,19.08-17.3,23.92a34.24,34.24,0,0,0,10.5-2.29s-4.67,20.61-19.05,27c0,0,13.61.76,20.8-9.41,0,0-6.22,24.93-16.91,28.5,0,0,7.39,2.54,14.77-3.82,0,0-12.64,27.73-23.52,29,0,0,8.94.76,15.75-2.8,0,0-8.36,22.64-18.08,25.7,0,0,6.61,1.78,15.36-3.56,0,0-11.08,24.43-27.8,28a29.47,29.47,0,0,0,24.69-5.85s-5.44,21.88-20.41,27h50.66v33.84h9.72v-33.84Z" transform="translate(0 -678.86)"/><path class="cls-3" d="M514,1238.4c-14.73-6.62-22.89-24.49-22.89-24.49,6.12,4,13.7,2.48,13.7,2.48-15-6.49-19.24-17.17-19.24-17.17,6.41,2.48,9.18,1.91,9.18,1.91-8.31-7.06-10.5-18.32-10.5-18.32,7.14,3.63,10.5,1.91,10.5,1.91-10.93-5.72-15.6-18.51-15.6-18.51,8,5.92,13.85,5.92,13.85,5.92-12.83-7.63-16.77-24.62-16.77-24.62a17.08,17.08,0,0,0,13.41,4.2c-7.58-5.15-13.56-22.33-13.56-22.33,6.12,5,16.33,5.15,16.33,5.15-14.29-6.11-20.12-25.38-20.12-25.38a21.83,21.83,0,0,0,10.64,2.29c-11.81-8.4-17.2-22.14-17.2-22.14,6.56,4,14.87,4.39,14.87,4.39-15.16-9-18.22-21.56-18.22-21.56,5.25,2.86,6.56,1.53,6.56,1.53-9.77-6.11-18.88-31.18-18.88-31.18s-5.52,34.11-24.18,37.67c0,0,7.58,1.27,14-3.05,0,0-5.64,19.08-17.3,23.92a34.24,34.24,0,0,0,10.5-2.29s-4.67,20.61-19.05,27c0,0,13.61.76,20.8-9.41,0,0-6.22,24.93-16.91,28.5,0,0,7.39,2.54,14.77-3.82,0,0-12.64,27.73-23.52,29,0,0,8.94.76,15.75-2.8,0,0-8.36,22.64-18.08,25.7,0,0,6.61,1.78,15.36-3.56,0,0-11.08,24.43-27.8,28a29.47,29.47,0,0,0,24.69-5.85s-5.44,21.88-20.41,27h50.66v33.84H459V1238.4Z" transform="translate(0 -678.86)"/><path class="cls-3" d="M143.22,1220.9c-14.73-6.62-22.89-24.49-22.89-24.49,6.12,4,13.7,2.48,13.7,2.48-15-6.49-19.24-17.17-19.24-17.17,6.41,2.48,9.19,1.91,9.19,1.91-8.31-7.06-10.5-18.32-10.5-18.32,7.14,3.63,10.5,1.91,10.5,1.91-10.93-5.72-15.6-18.51-15.6-18.51,8,5.92,13.85,5.92,13.85,5.92C109.4,1147,105.46,1130,105.46,1130a17.08,17.08,0,0,0,13.41,4.2c-7.58-5.15-13.56-22.33-13.56-22.33,6.12,5,16.33,5.15,16.33,5.15-14.29-6.11-20.12-25.38-20.12-25.38a21.83,21.83,0,0,0,10.64,2.29c-11.81-8.4-17.2-22.14-17.2-22.14,6.56,4,14.87,4.39,14.87,4.39-15.16-9-18.22-21.56-18.22-21.56,5.25,2.86,6.56,1.53,6.56,1.53C88.4,1050,79.3,1025,79.3,1025s-5.52,34.11-24.18,37.67c0,0,7.58,1.27,14-3.05,0,0-5.64,19.08-17.3,23.92a34.23,34.23,0,0,0,10.5-2.29s-4.67,20.61-19.05,27c0,0,13.61.76,20.8-9.41,0,0-6.22,24.93-16.91,28.5,0,0,7.39,2.54,14.77-3.82,0,0-12.64,27.73-23.52,29,0,0,8.94.76,15.75-2.8,0,0-8.36,22.64-18.08,25.7,0,0,6.61,1.78,15.36-3.56,0,0-11.08,24.43-27.8,28a29.47,29.47,0,0,0,24.69-5.85s-5.44,21.88-20.41,27H78.56v33.84h9.72V1220.9Z" transform="translate(0 -678.86)"/><path class="cls-3" d="M210.21,1163.12c-14.73-6.62-22.89-24.49-22.89-24.49,6.12,4,13.7,2.48,13.7,2.48-15-6.49-19.24-17.17-19.24-17.17,6.41,2.48,9.19,1.91,9.19,1.91-8.31-7.06-10.5-18.32-10.5-18.32,7.14,3.63,10.5,1.91,10.5,1.91-10.93-5.72-15.6-18.51-15.6-18.51,8,5.92,13.85,5.92,13.85,5.92-12.83-7.63-16.77-24.62-16.77-24.62a17.08,17.08,0,0,0,13.41,4.2c-7.58-5.15-13.56-22.33-13.56-22.33,6.12,5,16.33,5.15,16.33,5.15-14.29-6.11-20.12-25.38-20.12-25.38a21.83,21.83,0,0,0,10.64,2.29C167.35,1027.77,162,1014,162,1014c6.56,4,14.87,4.39,14.87,4.39-15.16-9-18.22-21.56-18.22-21.56,5.25,2.86,6.56,1.53,6.56,1.53-9.77-6.11-18.88-31.18-18.88-31.18s-5.52,34.11-24.18,37.67c0,0,7.58,1.27,14-3.05,0,0-5.64,19.08-17.3,23.92a34.24,34.24,0,0,0,10.5-2.29s-4.67,20.61-19.05,27c0,0,13.61.76,20.8-9.41,0,0-6.22,24.93-16.91,28.5,0,0,7.39,2.54,14.77-3.82,0,0-12.64,27.73-23.52,29,0,0,8.94.76,15.75-2.8,0,0-8.36,22.64-18.08,25.7,0,0,6.61,1.78,15.36-3.56,0,0-11.08,24.43-27.8,28a29.47,29.47,0,0,0,24.69-5.85s-5.44,21.88-20.41,27h50.66V1197h9.72v-33.84Z" transform="translate(0 -678.86)"/><path class="cls-3" d="M325.61,1185.47c-14.73-6.62-22.89-24.49-22.89-24.49,6.12,4,13.7,2.48,13.7,2.48-15-6.49-19.24-17.17-19.24-17.17,6.41,2.48,9.19,1.91,9.19,1.91-8.31-7.06-10.5-18.32-10.5-18.32,7.14,3.63,10.5,1.91,10.5,1.91-10.93-5.72-15.6-18.51-15.6-18.51,8,5.92,13.85,5.92,13.85,5.92-12.83-7.63-16.77-24.62-16.77-24.62a17.08,17.08,0,0,0,13.41,4.2c-7.58-5.15-13.56-22.33-13.56-22.33,6.12,5,16.33,5.15,16.33,5.15-14.29-6.11-20.12-25.38-20.12-25.38a21.83,21.83,0,0,0,10.64,2.29c-11.81-8.4-17.2-22.14-17.2-22.14,6.56,4,14.87,4.39,14.87,4.39-15.16-9-18.22-21.56-18.22-21.56,5.25,2.86,6.56,1.53,6.56,1.53-9.77-6.11-18.88-31.18-18.88-31.18s-5.52,34.11-24.18,37.67c0,0,7.58,1.27,14-3.05,0,0-5.64,19.08-17.3,23.92a34.24,34.24,0,0,0,10.5-2.29s-4.67,20.61-19.05,27c0,0,13.61.76,20.8-9.41,0,0-6.22,24.93-16.91,28.5,0,0,7.39,2.54,14.77-3.82,0,0-12.64,27.73-23.52,29,0,0,8.94.76,15.75-2.8,0,0-8.36,22.64-18.08,25.7,0,0,6.61,1.78,15.36-3.56,0,0-11.08,24.43-27.8,28a29.47,29.47,0,0,0,24.69-5.85s-5.44,21.88-20.41,27H261v33.84h9.72v-33.84Z" transform="translate(0 -678.86)"/><path class="cls-3" d="M394.2,1155.68c-14.73-6.62-22.89-24.49-22.89-24.49,6.12,4,13.7,2.48,13.7,2.48-15-6.49-19.24-17.17-19.24-17.17,6.41,2.48,9.19,1.91,9.19,1.91-8.31-7.06-10.5-18.32-10.5-18.32,7.14,3.63,10.5,1.91,10.5,1.91-10.93-5.72-15.6-18.51-15.6-18.51,8,5.92,13.85,5.92,13.85,5.92-12.83-7.63-16.77-24.62-16.77-24.62a17.08,17.08,0,0,0,13.41,4.2c-7.58-5.15-13.56-22.33-13.56-22.33,6.12,5,16.33,5.15,16.33,5.15-14.29-6.11-20.12-25.38-20.12-25.38a21.83,21.83,0,0,0,10.64,2.29c-11.81-8.4-17.2-22.14-17.2-22.14,6.56,4,14.87,4.39,14.87,4.39-15.16-9-18.22-21.56-18.22-21.56,5.25,2.86,6.56,1.53,6.56,1.53-9.77-6.11-18.88-31.18-18.88-31.18s-5.52,34.11-24.18,37.67c0,0,7.58,1.27,14-3.05,0,0-5.64,19.08-17.3,23.92a34.23,34.23,0,0,0,10.5-2.29s-4.67,20.61-19.05,27c0,0,13.61.76,20.8-9.41,0,0-6.22,24.93-16.91,28.5,0,0,7.39,2.54,14.77-3.82,0,0-12.64,27.73-23.52,29,0,0,8.94.76,15.75-2.8,0,0-8.36,22.64-18.08,25.7,0,0,6.61,1.78,15.36-3.56,0,0-11.08,24.43-27.8,28a29.47,29.47,0,0,0,24.69-5.85s-5.44,21.88-20.41,27h50.66v33.84h9.72v-33.84Z" transform="translate(0 -678.86)"/><path class="cls-3" d="M556.41,1197.06c-14.73-6.62-22.89-24.49-22.89-24.49,6.12,4,13.7,2.48,13.7,2.48-15-6.49-19.24-17.17-19.24-17.17,6.41,2.48,9.18,1.91,9.18,1.91-8.31-7.06-10.5-18.32-10.5-18.32,7.14,3.63,10.5,1.91,10.5,1.91-10.93-5.72-15.6-18.51-15.6-18.51,8,5.92,13.85,5.92,13.85,5.92-12.83-7.63-16.77-24.62-16.77-24.62a17.08,17.08,0,0,0,13.41,4.2c-7.58-5.15-13.56-22.33-13.56-22.33,6.12,5,16.33,5.15,16.33,5.15-14.29-6.11-20.12-25.38-20.12-25.38a21.83,21.83,0,0,0,10.64,2.29c-11.81-8.4-17.2-22.14-17.2-22.14,6.56,4,14.87,4.39,14.87,4.39-15.16-9-18.22-21.56-18.22-21.56,5.25,2.86,6.56,1.53,6.56,1.53-9.77-6.11-18.88-31.18-18.88-31.18s-5.52,34.11-24.18,37.67c0,0,7.58,1.27,14-3.05,0,0-5.64,19.08-17.3,23.92a34.24,34.24,0,0,0,10.5-2.29s-4.67,20.61-19.05,27c0,0,13.61.76,20.8-9.41,0,0-6.22,24.93-16.91,28.5,0,0,7.39,2.54,14.77-3.82,0,0-12.64,27.73-23.52,29,0,0,8.94.76,15.75-2.8,0,0-8.36,22.64-18.08,25.7,0,0,6.61,1.78,15.36-3.56,0,0-11.08,24.43-27.8,28a29.47,29.47,0,0,0,24.69-5.85s-5.44,21.88-20.41,27h50.66v33.84h9.72v-33.84Z" transform="translate(0 -678.86)"/><path class="cls-3" d="M612.54,1141c-14.73-6.62-22.89-24.49-22.89-24.49,6.12,4,13.7,2.48,13.7,2.48-15-6.49-19.24-17.17-19.24-17.17,6.41,2.48,9.18,1.91,9.18,1.91-8.31-7.06-10.5-18.32-10.5-18.32,7.14,3.63,10.5,1.91,10.5,1.91-10.93-5.72-15.6-18.51-15.6-18.51,8,5.92,13.85,5.92,13.85,5.92-12.83-7.63-16.77-24.62-16.77-24.62a17.08,17.08,0,0,0,13.41,4.2c-7.58-5.15-13.56-22.33-13.56-22.33,6.12,5,16.33,5.15,16.33,5.15-14.29-6.11-20.12-25.38-20.12-25.38a21.83,21.83,0,0,0,10.64,2.29c-11.81-8.4-17.2-22.14-17.2-22.14,6.56,4,14.87,4.39,14.87,4.39-15.16-9-18.22-21.56-18.22-21.56,5.25,2.86,6.56,1.53,6.56,1.53C557.72,970.1,548.61,945,548.61,945s-5.52,34.11-24.18,37.67c0,0,7.58,1.27,14-3.05,0,0-5.64,19.08-17.3,23.92a34.23,34.23,0,0,0,10.5-2.29s-4.67,20.61-19.05,27c0,0,13.61.76,20.8-9.41,0,0-6.22,24.93-16.91,28.5,0,0,7.39,2.54,14.77-3.82,0,0-12.64,27.73-23.52,29,0,0,8.94.76,15.75-2.8,0,0-8.36,22.64-18.08,25.7,0,0,6.61,1.78,15.36-3.56,0,0-11.08,24.43-27.8,28a29.47,29.47,0,0,0,24.69-5.85s-5.44,21.88-20.41,27h50.66v33.84h9.72V1141Z" transform="translate(0 -678.86)"/><path class="cls-3" d="M740.31,1225.74c-14.73-6.62-22.89-24.49-22.89-24.49,6.12,4,13.7,2.48,13.7,2.48-15-6.49-19.24-17.17-19.24-17.17,6.42,2.48,9.19,1.91,9.19,1.91-8.31-7.06-10.5-18.32-10.5-18.32,7.14,3.63,10.5,1.91,10.5,1.91-10.93-5.72-15.6-18.51-15.6-18.51,8,5.92,13.85,5.92,13.85,5.92-12.83-7.63-16.77-24.62-16.77-24.62A17.08,17.08,0,0,0,716,1139c-7.58-5.15-13.56-22.33-13.56-22.33,6.12,5,16.33,5.15,16.33,5.15-14.29-6.11-20.12-25.38-20.12-25.38a21.83,21.83,0,0,0,10.64,2.29c-11.81-8.4-17.2-22.14-17.2-22.14,6.56,4,14.87,4.39,14.87,4.39-15.16-9-18.22-21.56-18.22-21.56,5.25,2.86,6.56,1.53,6.56,1.53-9.77-6.11-18.88-31.18-18.88-31.18s-5.52,34.11-24.18,37.67c0,0,7.58,1.27,14-3.05,0,0-5.64,19.08-17.3,23.92a34.23,34.23,0,0,0,10.5-2.29s-4.67,20.61-19.05,27c0,0,13.61.76,20.8-9.41,0,0-6.22,24.93-16.91,28.5,0,0,7.39,2.54,14.77-3.82,0,0-12.64,27.73-23.52,29,0,0,8.94.76,15.75-2.8,0,0-8.36,22.64-18.08,25.7,0,0,6.61,1.78,15.36-3.56,0,0-11.08,24.43-27.8,28a29.47,29.47,0,0,0,24.69-5.85s-5.44,21.88-20.41,27h50.66v33.84h9.72v-33.84Z" transform="translate(0 -678.86)"/><path class="cls-3" d="M842.81,1234.66c-14.73-6.62-22.89-24.49-22.89-24.49,6.12,4,13.7,2.48,13.7,2.48-15-6.49-19.24-17.17-19.24-17.17,6.42,2.48,9.19,1.91,9.19,1.91-8.31-7.06-10.5-18.32-10.5-18.32,7.14,3.63,10.5,1.91,10.5,1.91-10.93-5.72-15.6-18.51-15.6-18.51,8,5.92,13.85,5.92,13.85,5.92C809,1160.74,805,1143.76,805,1143.76a17.08,17.08,0,0,0,13.41,4.2c-7.58-5.15-13.56-22.33-13.56-22.33,6.12,5,16.33,5.15,16.33,5.15-14.29-6.11-20.12-25.38-20.12-25.38a21.83,21.83,0,0,0,10.64,2.29c-11.81-8.4-17.2-22.14-17.2-22.14,6.56,4,14.87,4.39,14.87,4.39-15.16-9-18.22-21.56-18.22-21.56,5.25,2.86,6.56,1.53,6.56,1.53-9.77-6.11-18.88-31.18-18.88-31.18s-5.52,34.11-24.18,37.67c0,0,7.58,1.27,14-3.05,0,0-5.64,19.08-17.3,23.92a34.23,34.23,0,0,0,10.5-2.29s-4.67,20.61-19.05,27c0,0,13.61.76,20.8-9.41,0,0-6.22,24.93-16.91,28.5,0,0,7.39,2.54,14.77-3.82,0,0-12.64,27.73-23.52,29,0,0,8.94.76,15.75-2.8,0,0-8.36,22.64-18.08,25.7,0,0,6.61,1.78,15.36-3.56,0,0-11.08,24.43-27.8,28a29.47,29.47,0,0,0,24.69-5.85s-5.44,21.88-20.41,27h50.66v33.84h9.72v-33.84Z" transform="translate(0 -678.86)"/><path class="cls-3" d="M1089.11,1225c-14.73-6.62-22.89-24.49-22.89-24.49,6.12,4,13.7,2.48,13.7,2.48-15-6.49-19.24-17.17-19.24-17.17,6.42,2.48,9.19,1.91,9.19,1.91-8.31-7.06-10.5-18.32-10.5-18.32,7.14,3.63,10.5,1.91,10.5,1.91-10.93-5.72-15.6-18.51-15.6-18.51,8,5.92,13.85,5.92,13.85,5.92-12.83-7.63-16.77-24.62-16.77-24.62a17.08,17.08,0,0,0,13.41,4.2c-7.58-5.15-13.56-22.33-13.56-22.33,6.12,5,16.33,5.15,16.33,5.15-14.29-6.11-20.12-25.38-20.12-25.38a21.83,21.83,0,0,0,10.64,2.29c-11.81-8.4-17.2-22.14-17.2-22.14,6.56,4,14.87,4.39,14.87,4.39-15.16-9-18.22-21.56-18.22-21.56,5.25,2.86,6.56,1.53,6.56,1.53-9.77-6.11-18.88-31.18-18.88-31.18s-5.52,34.11-24.18,37.67c0,0,7.58,1.27,14-3.05,0,0-5.64,19.08-17.3,23.92a34.23,34.23,0,0,0,10.5-2.29s-4.67,20.61-19.05,27c0,0,13.61.76,20.8-9.41,0,0-6.22,24.93-16.91,28.5,0,0,7.39,2.54,14.77-3.82,0,0-12.64,27.73-23.52,29,0,0,8.94.76,15.75-2.8,0,0-8.36,22.64-18.08,25.7,0,0,6.61,1.78,15.36-3.56,0,0-11.08,24.43-27.8,28A29.47,29.47,0,0,0,994.2,1198s-5.44,21.88-20.41,27h50.66v33.84h9.72V1225Z" transform="translate(0 -678.86)"/><path class="cls-3" d="M1133.51,1191.1c-14.73-6.62-22.89-24.49-22.89-24.49,6.12,4,13.7,2.48,13.7,2.48-15-6.49-19.24-17.17-19.24-17.17,6.41,2.48,9.18,1.91,9.18,1.91-8.31-7.06-10.5-18.32-10.5-18.32,7.14,3.63,10.5,1.91,10.5,1.91-10.93-5.72-15.6-18.51-15.6-18.51,8,5.92,13.85,5.92,13.85,5.92-12.83-7.63-16.77-24.62-16.77-24.62a17.08,17.08,0,0,0,13.41,4.2c-7.58-5.15-13.56-22.33-13.56-22.33,6.12,5,16.33,5.15,16.33,5.15-14.29-6.11-20.12-25.38-20.12-25.38a21.83,21.83,0,0,0,10.64,2.29c-11.81-8.4-17.2-22.14-17.2-22.14,6.56,4,14.87,4.39,14.87,4.39-15.16-9-18.22-21.56-18.22-21.56,5.25,2.86,6.56,1.53,6.56,1.53-9.77-6.11-18.88-31.18-18.88-31.18s-5.52,34.11-24.18,37.67c0,0,7.58,1.27,14-3.05,0,0-5.64,19.08-17.3,23.92a34.23,34.23,0,0,0,10.5-2.29s-4.67,20.61-19.05,27c0,0,13.61.76,20.8-9.41,0,0-6.22,24.93-16.91,28.5,0,0,7.39,2.54,14.77-3.82,0,0-12.64,27.73-23.52,29,0,0,8.94.76,15.75-2.8,0,0-8.36,22.64-18.08,25.7,0,0,6.61,1.78,15.36-3.56,0,0-11.08,24.43-27.8,28a29.47,29.47,0,0,0,24.69-5.85s-5.44,21.88-20.41,27h50.66v33.84h9.72V1191.1Z" transform="translate(0 -678.86)"/><path class="cls-3" d="M671.81,1168.93c-14.73-6.62-22.89-24.49-22.89-24.49,6.12,4,13.7,2.48,13.7,2.48-15-6.49-19.24-17.17-19.24-17.17,6.41,2.48,9.18,1.91,9.18,1.91-8.31-7.06-10.5-18.32-10.5-18.32,7.14,3.63,10.5,1.91,10.5,1.91-10.93-5.72-15.6-18.51-15.6-18.51,8,5.92,13.85,5.92,13.85,5.92C638,1095,634,1078,634,1078a17.08,17.08,0,0,0,13.41,4.2c-7.58-5.15-13.56-22.33-13.56-22.33,6.12,5,16.33,5.15,16.33,5.15-14.29-6.11-20.12-25.38-20.12-25.38a21.83,21.83,0,0,0,10.64,2.29c-11.81-8.4-17.2-22.14-17.2-22.14,6.56,4,14.87,4.39,14.87,4.39-15.16-9-18.22-21.56-18.22-21.56,5.25,2.86,6.56,1.53,6.56,1.53C617,998.08,607.88,973,607.88,973s-5.52,34.11-24.18,37.67c0,0,7.58,1.27,14-3.05,0,0-5.64,19.08-17.3,23.92a34.24,34.24,0,0,0,10.5-2.29s-4.67,20.61-19.05,27c0,0,13.61.76,20.8-9.41,0,0-6.22,24.93-16.91,28.5,0,0,7.39,2.54,14.77-3.82,0,0-12.64,27.73-23.52,29,0,0,8.94.76,15.75-2.8,0,0-8.36,22.64-18.08,25.7,0,0,6.61,1.78,15.36-3.56,0,0-11.08,24.43-27.8,28A29.47,29.47,0,0,0,576.9,1142s-5.44,21.88-20.41,27h50.66v33.84h9.72v-33.84Z" transform="translate(0 -678.86)"/><path class="cls-3" d="M787.21,1197.06c-14.73-6.62-22.89-24.49-22.89-24.49,6.12,4,13.7,2.48,13.7,2.48-15-6.49-19.24-17.17-19.24-17.17,6.41,2.48,9.18,1.91,9.18,1.91-8.31-7.06-10.5-18.32-10.5-18.32,7.14,3.63,10.5,1.91,10.5,1.91-10.93-5.72-15.6-18.51-15.6-18.51,8,5.92,13.85,5.92,13.85,5.92-12.83-7.63-16.77-24.62-16.77-24.62a17.08,17.08,0,0,0,13.41,4.2c-7.58-5.15-13.56-22.33-13.56-22.33,6.12,5,16.33,5.15,16.33,5.15-14.29-6.11-20.12-25.38-20.12-25.38a21.83,21.83,0,0,0,10.64,2.29C744.35,1061.7,739,1048,739,1048c6.56,4,14.87,4.39,14.87,4.39-15.16-9-18.22-21.56-18.22-21.56,5.25,2.86,6.56,1.53,6.56,1.53-9.77-6.11-18.88-31.18-18.88-31.18s-5.52,34.11-24.18,37.67c0,0,7.58,1.27,14-3.05,0,0-5.64,19.08-17.3,23.92a34.24,34.24,0,0,0,10.5-2.29s-4.67,20.61-19.05,27c0,0,13.61.76,20.8-9.41,0,0-6.22,24.93-16.91,28.5,0,0,7.39,2.54,14.77-3.82,0,0-12.64,27.73-23.52,29,0,0,8.94.76,15.75-2.8,0,0-8.36,22.64-18.08,25.7,0,0,6.61,1.78,15.36-3.56,0,0-11.08,24.43-27.8,28a29.47,29.47,0,0,0,24.69-5.85s-5.44,21.88-20.41,27h50.66v33.84h9.72v-33.84Z" transform="translate(0 -678.86)"/><path class="cls-3" d="M902.61,1167.27c-14.73-6.62-22.89-24.49-22.89-24.49,6.12,4,13.7,2.48,13.7,2.48-15-6.49-19.24-17.17-19.24-17.17,6.41,2.48,9.18,1.91,9.18,1.91-8.31-7.06-10.5-18.32-10.5-18.32,7.14,3.63,10.5,1.91,10.5,1.91-10.93-5.72-15.6-18.51-15.6-18.51,8,5.92,13.85,5.92,13.85,5.92-12.83-7.63-16.77-24.62-16.77-24.62a17.08,17.08,0,0,0,13.41,4.2c-7.58-5.15-13.56-22.33-13.56-22.33,6.12,5,16.33,5.15,16.33,5.15-14.29-6.11-20.12-25.38-20.12-25.38a21.83,21.83,0,0,0,10.64,2.29c-11.81-8.4-17.2-22.14-17.2-22.14,6.56,4,14.87,4.39,14.87,4.39C854.06,1013.59,851,1001,851,1001c5.25,2.86,6.56,1.53,6.56,1.53-9.77-6.11-18.88-31.18-18.88-31.18s-5.52,34.11-24.18,37.67c0,0,7.58,1.27,14-3.05,0,0-5.64,19.08-17.3,23.92a34.23,34.23,0,0,0,10.5-2.29s-4.67,20.61-19.05,27c0,0,13.61.76,20.8-9.41,0,0-6.22,24.93-16.91,28.5,0,0,7.39,2.54,14.77-3.82,0,0-12.64,27.73-23.52,29,0,0,8.94.76,15.75-2.8,0,0-8.36,22.64-18.08,25.7,0,0,6.61,1.78,15.36-3.56,0,0-11.08,24.43-27.8,28a29.47,29.47,0,0,0,24.69-5.85s-5.44,21.88-20.41,27h50.66v33.84h9.72v-33.84Z" transform="translate(0 -678.86)"/><path class="cls-3" d="M1018,1181.41c-14.73-6.62-22.89-24.49-22.89-24.49,6.12,4,13.7,2.48,13.7,2.48-15-6.49-19.24-17.17-19.24-17.17,6.41,2.48,9.18,1.91,9.18,1.91-8.31-7.06-10.5-18.32-10.5-18.32,7.14,3.63,10.5,1.91,10.5,1.91-10.93-5.72-15.6-18.51-15.6-18.51,8,5.92,13.85,5.92,13.85,5.92-12.83-7.63-16.77-24.62-16.77-24.62a17.08,17.08,0,0,0,13.41,4.2c-7.58-5.15-13.56-22.33-13.56-22.33,6.12,5,16.33,5.15,16.33,5.15-14.29-6.11-20.12-25.38-20.12-25.38a21.83,21.83,0,0,0,10.64,2.29c-11.81-8.4-17.2-22.14-17.2-22.14,6.56,4,14.87,4.39,14.87,4.39-15.16-9-18.22-21.56-18.22-21.56,5.25,2.86,6.56,1.53,6.56,1.53-9.77-6.11-18.88-31.18-18.88-31.18s-5.52,34.11-24.18,37.67c0,0,7.58,1.27,14-3.05,0,0-5.64,19.08-17.3,23.92a34.24,34.24,0,0,0,10.5-2.29s-4.67,20.61-19.05,27c0,0,13.61.76,20.8-9.41,0,0-6.22,24.93-16.91,28.5,0,0,7.39,2.54,14.77-3.82,0,0-12.64,27.73-23.52,29,0,0,8.94.76,15.75-2.8,0,0-8.36,22.64-18.08,25.7,0,0,6.61,1.78,15.36-3.56,0,0-11.08,24.43-27.8,28a29.47,29.47,0,0,0,24.69-5.85s-5.44,21.88-20.41,27h50.66v33.84h9.72v-33.84Z" transform="translate(0 -678.86)"/><path class="cls-3" d="M961.29,1208c-14.73-6.62-22.89-24.49-22.89-24.49,6.12,4,13.7,2.48,13.7,2.48-15-6.49-19.24-17.17-19.24-17.17,6.41,2.48,9.18,1.91,9.18,1.91-8.31-7.06-10.5-18.32-10.5-18.32,7.14,3.63,10.5,1.91,10.5,1.91-10.93-5.72-15.6-18.51-15.6-18.51,8,5.92,13.85,5.92,13.85,5.92-12.83-7.63-16.77-24.62-16.77-24.62a17.08,17.08,0,0,0,13.41,4.2c-7.58-5.15-13.56-22.33-13.56-22.33,6.12,5,16.33,5.15,16.33,5.15-14.29-6.11-20.12-25.38-20.12-25.38a21.83,21.83,0,0,0,10.64,2.29c-11.81-8.4-17.2-22.14-17.2-22.14,6.56,4,14.87,4.39,14.87,4.39-15.16-9-18.22-21.56-18.22-21.56,5.25,2.86,6.56,1.53,6.56,1.53-9.77-6.11-18.88-31.18-18.88-31.18s-5.52,34.11-24.18,37.67c0,0,7.58,1.27,14-3.05,0,0-5.64,19.08-17.3,23.92a34.23,34.23,0,0,0,10.5-2.29s-4.67,20.61-19.05,27c0,0,13.61.76,20.8-9.41,0,0-6.22,24.93-16.91,28.5,0,0,7.39,2.54,14.77-3.82,0,0-12.64,27.73-23.52,29,0,0,8.94.76,15.75-2.8,0,0-8.36,22.64-18.08,25.7,0,0,6.61,1.78,15.36-3.56,0,0-11.08,24.43-27.8,28a29.47,29.47,0,0,0,24.69-5.85s-5.44,21.88-20.41,27h50.66v33.84h9.72V1208Z" transform="translate(0 -678.86)"/><path class="cls-3" d="M1357.81,1200.63c-14.75-6.56-23-24.4-23-24.4,6.14,4,13.71,2.43,13.71,2.43-15-6.43-19.3-17.1-19.3-17.1,6.42,2.46,9.19,1.87,9.19,1.87-8.33-7-10.56-18.28-10.56-18.28,7.16,3.6,10.5,1.87,10.5,1.87-11-5.68-15.66-18.45-15.66-18.45,8,5.88,13.87,5.86,13.87,5.86-12.86-7.58-16.85-24.55-16.85-24.55a17.07,17.07,0,0,0,13.43,4.14c-7.6-5.12-13.63-22.27-13.63-22.27,6.14,4.94,16.35,5.09,16.35,5.09-14.31-6-20.2-25.3-20.2-25.3a21.83,21.83,0,0,0,10.65,2.25c-11.84-8.35-17.28-22.07-17.28-22.07,6.57,4,14.89,4.33,14.89,4.33-15.19-8.91-18.3-21.49-18.3-21.49,5.26,2.84,6.57,1.5,6.57,1.5-9.79-6.07-19-31.11-19-31.11s-5.4,34.13-24.05,37.77c0,0,7.59,1.24,14-3.11,0,0-5.57,19.1-17.22,24a34.24,34.24,0,0,0,10.49-2.33s-4.6,20.63-19,27c0,0,13.61.71,20.77-9.5,0,0-6.14,25-16.82,28.56,0,0,7.4,2.52,14.76-3.88,0,0-12.54,27.78-23.42,29.1,0,0,8.94.73,15.74-2.86,0,0-8.28,22.68-18,25.77,0,0,6.62,1.75,15.34-3.62,0,0-11,24.47-27.7,28.1a29.48,29.48,0,0,0,24.67-5.95s-5.37,21.9-20.32,27.05l50.48-.2h.18l.11,33.84,9.72,0-.11-33.84Z" transform="translate(0 -678.86)"/><path class="cls-3" d="M1175.57,1181.41c-14.73-6.62-22.89-24.49-22.89-24.49,6.12,4,13.7,2.48,13.7,2.48-15-6.49-19.24-17.17-19.24-17.17,6.41,2.48,9.19,1.91,9.19,1.91-8.31-7.06-10.5-18.32-10.5-18.32,7.14,3.63,10.5,1.91,10.5,1.91-10.93-5.72-15.6-18.51-15.6-18.51,8,5.92,13.85,5.92,13.85,5.92-12.83-7.63-16.77-24.62-16.77-24.62a17.08,17.08,0,0,0,13.41,4.2c-7.58-5.15-13.56-22.33-13.56-22.33,6.12,5,16.33,5.15,16.33,5.15-14.29-6.11-20.12-25.38-20.12-25.38a21.83,21.83,0,0,0,10.64,2.29c-11.81-8.4-17.2-22.14-17.2-22.14,6.56,4,14.87,4.39,14.87,4.39-15.16-9-18.22-21.56-18.22-21.56,5.25,2.86,6.56,1.53,6.56,1.53-9.77-6.11-18.88-31.18-18.88-31.18s-5.52,34.11-24.18,37.67c0,0,7.58,1.27,14-3.05,0,0-5.64,19.08-17.3,23.92a34.24,34.24,0,0,0,10.5-2.29s-4.67,20.61-19.05,27c0,0,13.61.76,20.8-9.41,0,0-6.22,24.93-16.91,28.5,0,0,7.39,2.54,14.77-3.82,0,0-12.64,27.73-23.52,29,0,0,8.94.76,15.75-2.8,0,0-8.36,22.64-18.08,25.7,0,0,6.61,1.78,15.36-3.56,0,0-11.08,24.43-27.8,28a29.47,29.47,0,0,0,24.69-5.85s-5.44,21.88-20.41,27h50.66v33.84h9.72v-33.84Z" transform="translate(0 -678.86)"/><path class="cls-3" d="M1227.61,1157.74c-11.9-5.31-18.49-19.65-18.49-19.65,4.95,3.22,11.07,2,11.07,2-12.13-5.21-15.55-13.78-15.55-13.78,5.18,2,7.42,1.53,7.42,1.53-6.71-5.67-8.48-14.7-8.48-14.7,5.77,2.91,8.48,1.53,8.48,1.53-8.83-4.59-12.6-14.85-12.6-14.85,6.48,4.75,11.19,4.75,11.19,4.75-10.36-6.12-13.54-19.75-13.54-19.75a13.87,13.87,0,0,0,10.84,3.37c-6.12-4.13-11-17.91-11-17.91,4.95,4,13.19,4.13,13.19,4.13-11.54-4.9-16.25-20.36-16.25-20.36a17.74,17.74,0,0,0,8.6,1.84c-9.54-6.74-13.9-17.76-13.9-17.76a28.93,28.93,0,0,0,12,3.52c-12.25-7.2-14.72-17.3-14.72-17.3,4.24,2.3,5.3,1.22,5.3,1.22-7.89-4.9-15.25-25-15.25-25s-4.46,27.37-19.53,30.22a17.26,17.26,0,0,0,11.31-2.45s-4.55,15.31-14,19.19a27.82,27.82,0,0,0,8.48-1.84s-3.77,16.54-15.39,21.64c0,0,11,.61,16.8-7.55,0,0-5,20-13.66,22.86,0,0,6,2,11.93-3.06,0,0-10.21,22.25-19,23.27,0,0,7.22.61,12.72-2.25,0,0-6.75,18.17-14.6,20.62,0,0,5.34,1.43,12.41-2.86,0,0-9,19.6-22.46,22.46a23.94,23.94,0,0,0,19.94-4.7s-4.4,17.56-16.49,21.64h40.93v27.15h7.85v-27.15Z" transform="translate(0 -678.86)"/><path class="cls-3" d="M1277.77,1192.08c-11.9-5.31-18.49-19.65-18.49-19.65,4.95,3.22,11.07,2,11.07,2-12.13-5.21-15.55-13.78-15.55-13.78,5.18,2,7.42,1.53,7.42,1.53-6.71-5.66-8.48-14.7-8.48-14.7,5.77,2.91,8.48,1.53,8.48,1.53-8.83-4.59-12.6-14.85-12.6-14.85,6.48,4.75,11.19,4.75,11.19,4.75-10.36-6.12-13.54-19.75-13.54-19.75a13.87,13.87,0,0,0,10.84,3.37c-6.12-4.13-11-17.91-11-17.91,4.95,4,13.19,4.13,13.19,4.13-11.54-4.9-16.25-20.36-16.25-20.36a17.74,17.74,0,0,0,8.6,1.84c-9.54-6.74-13.9-17.76-13.9-17.76a28.93,28.93,0,0,0,12,3.52c-12.25-7.2-14.72-17.3-14.72-17.3,4.24,2.3,5.3,1.22,5.3,1.22-7.89-4.9-15.25-25-15.25-25s-4.46,27.37-19.53,30.23a17.26,17.26,0,0,0,11.31-2.45s-4.55,15.31-14,19.19a27.82,27.82,0,0,0,8.48-1.84s-3.77,16.54-15.39,21.64c0,0,11,.61,16.8-7.55,0,0-5,20-13.66,22.86,0,0,6,2,11.93-3.06,0,0-10.21,22.25-19,23.27,0,0,7.22.61,12.72-2.25,0,0-6.75,18.17-14.6,20.62,0,0,5.34,1.43,12.41-2.86,0,0-9,19.6-22.46,22.46a23.94,23.94,0,0,0,19.94-4.7s-4.4,17.56-16.49,21.64h40.93v27.15h7.85v-27.15Z" transform="translate(0 -678.86)"/><path class="cls-3" d="M954.4,1218.64c-11.89-5.31-18.49-19.65-18.49-19.65,4.95,3.22,11.07,2,11.07,2-12.13-5.21-15.55-13.78-15.55-13.78,5.18,2,7.42,1.53,7.42,1.53-6.71-5.67-8.48-14.7-8.48-14.7,5.77,2.91,8.48,1.53,8.48,1.53-8.83-4.59-12.6-14.85-12.6-14.85,6.48,4.75,11.19,4.75,11.19,4.75-10.36-6.12-13.54-19.75-13.54-19.75a13.87,13.87,0,0,0,10.84,3.37c-6.12-4.13-11-17.91-11-17.91,4.95,4,13.19,4.13,13.19,4.13-11.54-4.9-16.25-20.36-16.25-20.36a17.74,17.74,0,0,0,8.6,1.84c-9.54-6.74-13.9-17.76-13.9-17.76a28.93,28.93,0,0,0,12,3.52c-12.25-7.2-14.72-17.3-14.72-17.3,4.24,2.3,5.3,1.22,5.3,1.22-7.89-4.9-15.25-25-15.25-25s-4.46,27.37-19.53,30.22a17.26,17.26,0,0,0,11.31-2.45s-4.55,15.31-14,19.19a27.82,27.82,0,0,0,8.48-1.84s-3.77,16.54-15.39,21.64c0,0,11,.61,16.8-7.55,0,0-5,20-13.66,22.86,0,0,6,2,11.93-3.06,0,0-10.21,22.25-19,23.27,0,0,7.22.61,12.72-2.25,0,0-6.75,18.17-14.6,20.62,0,0,5.34,1.43,12.41-2.86,0,0-9,19.6-22.46,22.46a23.94,23.94,0,0,0,19.94-4.7s-4.4,17.56-16.49,21.64h40.93v27.15H910v-27.15Z" transform="translate(0 -678.86)"/><path class="cls-3" d="M1306.06,1175.08c-11.89-5.31-18.49-19.65-18.49-19.65,4.95,3.22,11.07,2,11.07,2-12.13-5.21-15.55-13.78-15.55-13.78,5.18,2,7.42,1.53,7.42,1.53-6.71-5.66-8.48-14.7-8.48-14.7,5.77,2.91,8.48,1.53,8.48,1.53-8.83-4.59-12.6-14.85-12.6-14.85,6.48,4.75,11.19,4.75,11.19,4.75-10.36-6.12-13.54-19.75-13.54-19.75a13.87,13.87,0,0,0,10.83,3.37c-6.12-4.13-11-17.91-11-17.91,4.95,4,13.19,4.13,13.19,4.13-11.54-4.9-16.25-20.36-16.25-20.36a17.74,17.74,0,0,0,8.6,1.84c-9.54-6.74-13.9-17.76-13.9-17.76a28.93,28.93,0,0,0,12,3.52c-12.25-7.2-14.72-17.3-14.72-17.3,4.24,2.3,5.3,1.22,5.3,1.22-7.89-4.9-15.25-25-15.25-25s-4.46,27.37-19.53,30.23a17.26,17.26,0,0,0,11.31-2.45s-4.55,15.31-14,19.19a27.81,27.81,0,0,0,8.48-1.84s-3.77,16.54-15.39,21.64c0,0,11,.61,16.8-7.55,0,0-5,20-13.66,22.86,0,0,6,2,11.93-3.06,0,0-10.21,22.25-19,23.27,0,0,7.22.61,12.72-2.25,0,0-6.75,18.17-14.6,20.62,0,0,5.34,1.43,12.41-2.86,0,0-9,19.6-22.46,22.46a23.94,23.94,0,0,0,19.94-4.7s-4.4,17.56-16.49,21.64h40.93v27.15h7.85v-27.15Z" transform="translate(0 -678.86)"/><path class="cls-3" d="M16.77,1042c-9.88-7-15.27-17.79-16.77-21.12v148.08H47.82c-14.73-6.62-22.89-24.49-22.89-24.49,6.12,4,13.7,2.48,13.7,2.48-15-6.49-19.24-17.17-19.24-17.17,6.42,2.48,9.19,1.91,9.19,1.91-8.31-7.06-10.5-18.32-10.5-18.32,7.14,3.63,10.5,1.91,10.5,1.91-10.93-5.72-15.6-18.51-15.6-18.51,8,5.92,13.85,5.92,13.85,5.92C14,1095,10.06,1078,10.06,1078a17.08,17.08,0,0,0,13.41,4.2c-7.58-5.15-13.56-22.33-13.56-22.33,6.12,5,16.33,5.15,16.33,5.15C12,1059,6.12,1039.68,6.12,1039.68A21.83,21.83,0,0,0,16.77,1042Z" transform="translate(0 -678.86)"/><path class="cls-3" d="M0,1004.27c2.14.56,2.77-.08,2.77-.08A16.79,16.79,0,0,1,0,1002Z" transform="translate(0 -678.86)"/><path class="cls-3" d="M0,1020.08c6.49,3.77,14.43,4.14,14.43,4.14A43.07,43.07,0,0,1,0,1010.65Z" transform="translate(0 -678.86)"/><path class="cls-3" d="M71.92,1172.57c6.12,4,13.7,2.48,13.7,2.48-15-6.49-19.24-17.17-19.24-17.17,6.41,2.48,9.19,1.91,9.19,1.91-8.31-7.06-10.5-18.32-10.5-18.32,7.14,3.63,10.5,1.91,10.5,1.91-10.93-5.72-15.6-18.51-15.6-18.51,8,5.92,13.85,5.92,13.85,5.92-12.83-7.63-16.77-24.62-16.77-24.62a17.08,17.08,0,0,0,13.41,4.2c-7.58-5.15-13.56-22.33-13.56-22.33,6.12,5,16.33,5.15,16.33,5.15-14.29-6.11-20.12-25.38-20.12-25.38a21.83,21.83,0,0,0,10.64,2.29c-11.81-8.4-17.2-22.14-17.2-22.14,6.56,4,14.87,4.39,14.87,4.39-15.16-9-18.22-21.56-18.22-21.56,5.25,2.86,6.56,1.53,6.56,1.53-9.77-6.11-18.88-31.18-18.88-31.18s-5.52,34.11-24.18,37.67c0,0,7.58,1.27,14-3.05,0,0-5.64,19.08-17.3,23.92a34.24,34.24,0,0,0,10.5-2.29s-3.53,15.57-13.9,23.82V1084c4.61-.74,11.3-2.89,15.65-9,0,0-5.73,23-15.65,28v.84a16.3,16.3,0,0,0,13.51-4.11S7.39,1113,0,1121.63v6.21a23.46,23.46,0,0,0,5.73-2A98.71,98.71,0,0,1,0,1138.13v11.43A29.48,29.48,0,0,0,3,1148s-1.06,2.33-3,5.66v43.45H30.15v33.84h9.72v-33.84H94.81C80.09,1190.44,71.92,1172.57,71.92,1172.57Z" transform="translate(0 -678.86)"/><path class="cls-3" d="M757.49,1150.27c-14.73-6.62-22.89-24.49-22.89-24.49,6.12,4,13.7,2.48,13.7,2.48-15-6.49-19.25-17.17-19.25-17.17,6.42,2.48,9.19,1.91,9.19,1.91-8.31-7.06-10.5-18.32-10.5-18.32,7.14,3.63,10.5,1.91,10.5,1.91-10.93-5.72-15.6-18.51-15.6-18.51,8,5.92,13.85,5.92,13.85,5.92-12.83-7.63-16.77-24.62-16.77-24.62a17.08,17.08,0,0,0,13.41,4.2c-7.58-5.15-13.56-22.33-13.56-22.33,6.12,5,16.33,5.15,16.33,5.15-14.29-6.11-20.12-25.38-20.12-25.38a21.84,21.84,0,0,0,10.64,2.29c-11.81-8.4-17.2-22.14-17.2-22.14,6.56,4,14.87,4.39,14.87,4.39-15.16-9-18.22-21.56-18.22-21.56,5.25,2.86,6.56,1.53,6.56,1.53-9.77-6.11-18.88-31.18-18.88-31.18S688,988.46,669.38,992c0,0,7.58,1.27,14-3.05,0,0-5.64,19.08-17.3,23.92a34.24,34.24,0,0,0,10.5-2.29s-4.67,20.61-19.05,27c0,0,13.61.76,20.8-9.41,0,0-6.22,24.93-16.91,28.5,0,0,7.39,2.54,14.77-3.82,0,0-12.64,27.73-23.52,29,0,0,8.94.76,15.75-2.8,0,0-8.36,22.64-18.08,25.7,0,0,6.61,1.78,15.36-3.56,0,0-11.08,24.43-27.8,28a29.47,29.47,0,0,0,24.69-5.85s-5.44,21.88-20.41,27h50.66v33.84h9.72v-33.84Z" transform="translate(0 -678.86)"/><path class="cls-3" d="M804.48,1178.4c-14.73-6.62-22.89-24.49-22.89-24.49,6.12,4,13.7,2.48,13.7,2.48-15-6.49-19.24-17.17-19.24-17.17,6.42,2.48,9.19,1.91,9.19,1.91-8.31-7.06-10.5-18.32-10.5-18.32,7.14,3.63,10.5,1.91,10.5,1.91-10.93-5.72-15.6-18.51-15.6-18.51,8,5.92,13.85,5.92,13.85,5.92-12.83-7.63-16.77-24.62-16.77-24.62a17.08,17.08,0,0,0,13.41,4.2c-7.58-5.15-13.56-22.33-13.56-22.33,6.12,5,16.33,5.15,16.33,5.15-14.29-6.11-20.12-25.38-20.12-25.38a21.83,21.83,0,0,0,10.64,2.29c-11.81-8.4-17.2-22.14-17.2-22.14,6.56,4,14.87,4.39,14.87,4.39-15.16-9-18.22-21.56-18.22-21.56,5.25,2.86,6.56,1.53,6.56,1.53-9.77-6.11-18.88-31.18-18.88-31.18s-5.52,34.11-24.18,37.67c0,0,7.58,1.27,14-3.05,0,0-5.64,19.08-17.3,23.92a34.24,34.24,0,0,0,10.5-2.29s-4.67,20.61-19.05,27c0,0,13.61.76,20.8-9.41,0,0-6.22,24.93-16.91,28.5,0,0,7.39,2.54,14.77-3.82,0,0-12.64,27.73-23.52,29,0,0,8.94.76,15.75-2.8,0,0-8.36,22.64-18.08,25.7,0,0,6.61,1.78,15.36-3.56,0,0-11.08,24.43-27.8,28a29.47,29.47,0,0,0,24.69-5.85s-5.44,21.88-20.41,27h50.66v33.84h9.72V1178.4Z" transform="translate(0 -678.86)"/><path class="cls-3" d="M975.48,1189.44c-14.73-6.62-22.89-24.49-22.89-24.49,6.12,4,13.7,2.48,13.7,2.48-15-6.49-19.24-17.17-19.24-17.17,6.41,2.48,9.18,1.91,9.18,1.91-8.31-7.06-10.5-18.32-10.5-18.32,7.14,3.63,10.5,1.91,10.5,1.91-10.93-5.72-15.6-18.51-15.6-18.51,8,5.92,13.85,5.92,13.85,5.92-12.83-7.63-16.77-24.62-16.77-24.62a17.08,17.08,0,0,0,13.41,4.2c-7.58-5.15-13.56-22.33-13.56-22.33,6.12,5,16.33,5.15,16.33,5.15-14.29-6.11-20.12-25.38-20.12-25.38a21.83,21.83,0,0,0,10.64,2.29c-11.81-8.4-17.2-22.14-17.2-22.14,6.56,4,14.87,4.39,14.87,4.39-15.16-9-18.22-21.56-18.22-21.56,5.25,2.86,6.56,1.53,6.56,1.53-9.77-6.11-18.88-31.18-18.88-31.18s-5.52,34.11-24.18,37.67c0,0,7.58,1.27,14-3.05,0,0-5.64,19.08-17.3,23.92a34.23,34.23,0,0,0,10.5-2.29s-4.67,20.61-19.05,27c0,0,13.61.76,20.8-9.41,0,0-6.22,24.93-16.91,28.5,0,0,7.39,2.54,14.77-3.82,0,0-12.64,27.73-23.52,29,0,0,8.94.76,15.75-2.8,0,0-8.36,22.64-18.08,25.7,0,0,6.61,1.78,15.36-3.56,0,0-11.08,24.43-27.8,28a29.47,29.47,0,0,0,24.69-5.85s-5.44,21.88-20.41,27h50.66v33.84h9.72v-33.84Z" transform="translate(0 -678.86)"/><path class="cls-3" d="M1165.84,1178.4c-14.73-6.62-22.89-24.49-22.89-24.49,6.12,4,13.7,2.48,13.7,2.48-15-6.49-19.24-17.17-19.24-17.17,6.41,2.48,9.19,1.91,9.19,1.91-8.31-7.06-10.5-18.32-10.5-18.32,7.14,3.63,10.5,1.91,10.5,1.91-10.93-5.72-15.6-18.51-15.6-18.51,8,5.92,13.85,5.92,13.85,5.92-12.83-7.63-16.77-24.62-16.77-24.62a17.08,17.08,0,0,0,13.41,4.2c-7.58-5.15-13.56-22.33-13.56-22.33,6.12,5,16.33,5.15,16.33,5.15-14.29-6.11-20.12-25.38-20.12-25.38a21.83,21.83,0,0,0,10.64,2.29c-11.81-8.4-17.2-22.14-17.2-22.14,6.56,4,14.87,4.39,14.87,4.39-15.16-9-18.22-21.56-18.22-21.56,5.25,2.86,6.56,1.53,6.56,1.53-9.77-6.11-18.88-31.18-18.88-31.18s-5.52,34.11-24.18,37.67c0,0,7.58,1.27,14-3.05,0,0-5.64,19.08-17.3,23.92a34.24,34.24,0,0,0,10.5-2.29s-4.67,20.61-19.05,27c0,0,13.61.76,20.8-9.41,0,0-6.22,24.93-16.91,28.5,0,0,7.39,2.54,14.77-3.82,0,0-12.64,27.73-23.52,29,0,0,8.94.76,15.75-2.8,0,0-8.36,22.64-18.08,25.7,0,0,6.61,1.78,15.36-3.56,0,0-11.08,24.43-27.8,28a29.47,29.47,0,0,0,24.69-5.85s-5.44,21.88-20.41,27h50.66v33.84h9.72V1178.4Z" transform="translate(0 -678.86)"/><path class="cls-3" d="M1223.65,1219.74c-14.73-6.62-22.89-24.49-22.89-24.49,6.12,4,13.7,2.48,13.7,2.48-15-6.49-19.24-17.17-19.24-17.17,6.41,2.48,9.19,1.91,9.19,1.91-8.31-7.06-10.5-18.32-10.5-18.32,7.14,3.63,10.5,1.91,10.5,1.91-10.93-5.72-15.6-18.51-15.6-18.51,8,5.92,13.85,5.92,13.85,5.92-12.83-7.63-16.77-24.62-16.77-24.62a17.08,17.08,0,0,0,13.41,4.2c-7.58-5.15-13.56-22.33-13.56-22.33,6.12,5,16.33,5.15,16.33,5.15-14.29-6.11-20.12-25.38-20.12-25.38a21.83,21.83,0,0,0,10.64,2.29c-11.81-8.4-17.2-22.14-17.2-22.14,6.56,4,14.87,4.39,14.87,4.39-15.16-9-18.22-21.56-18.22-21.56,5.25,2.86,6.56,1.53,6.56,1.53-9.77-6.11-18.88-31.18-18.88-31.18s-5.52,34.11-24.18,37.67c0,0,7.58,1.27,14-3.05,0,0-5.64,19.08-17.3,23.92a34.23,34.23,0,0,0,10.5-2.29s-4.67,20.61-19.05,27c0,0,13.61.76,20.8-9.41,0,0-6.22,24.93-16.91,28.5,0,0,7.39,2.54,14.77-3.82,0,0-12.64,27.73-23.52,29,0,0,8.94.76,15.75-2.8,0,0-8.36,22.64-18.08,25.7,0,0,6.61,1.78,15.36-3.56,0,0-11.08,24.43-27.8,28a29.47,29.47,0,0,0,24.69-5.85s-5.44,21.88-20.41,27H1159v33.84h9.72v-33.84Z" transform="translate(0 -678.86)"/><path class="cls-3" d="M852.89,1202.24c-14.73-6.62-22.89-24.49-22.89-24.49,6.12,4,13.7,2.48,13.7,2.48-15-6.49-19.24-17.17-19.24-17.17,6.42,2.48,9.19,1.91,9.19,1.91-8.31-7.06-10.5-18.32-10.5-18.32,7.14,3.63,10.5,1.91,10.5,1.91C822.71,1142.83,818,1130,818,1130c8,5.92,13.85,5.92,13.85,5.92-12.83-7.63-16.77-24.62-16.77-24.62a17.08,17.08,0,0,0,13.41,4.2c-7.58-5.15-13.56-22.33-13.56-22.33,6.12,5,16.33,5.15,16.33,5.15C817,1092.26,811.2,1073,811.2,1073a21.83,21.83,0,0,0,10.64,2.29c-11.81-8.4-17.2-22.14-17.2-22.14,6.56,4,14.87,4.39,14.87,4.39-15.16-9-18.22-21.56-18.22-21.56,5.25,2.86,6.56,1.53,6.56,1.53-9.77-6.11-18.88-31.18-18.88-31.18s-5.52,34.11-24.18,37.67c0,0,7.58,1.27,14-3.05,0,0-5.64,19.08-17.3,23.92a34.23,34.23,0,0,0,10.5-2.29s-4.67,20.61-19.05,27c0,0,13.61.76,20.8-9.41,0,0-6.22,24.93-16.91,28.5,0,0,7.39,2.54,14.77-3.82,0,0-12.64,27.73-23.52,29,0,0,8.94.76,15.75-2.8,0,0-8.36,22.64-18.08,25.7,0,0,6.61,1.78,15.36-3.56,0,0-11.08,24.43-27.8,28a29.47,29.47,0,0,0,24.69-5.85s-5.44,21.88-20.41,27h50.66v33.84H798v-33.84Z" transform="translate(0 -678.86)"/><path class="cls-3" d="M919.88,1144.47C905.16,1137.85,897,1120,897,1120c6.12,4,13.7,2.48,13.7,2.48-15-6.49-19.24-17.17-19.24-17.17,6.42,2.48,9.19,1.91,9.19,1.91-8.31-7.06-10.5-18.32-10.5-18.32,7.14,3.63,10.5,1.91,10.5,1.91-10.93-5.72-15.6-18.51-15.6-18.51,8,5.92,13.85,5.92,13.85,5.92-12.83-7.63-16.77-24.62-16.77-24.62a17.08,17.08,0,0,0,13.41,4.2c-7.58-5.15-13.56-22.33-13.56-22.33,6.12,5,16.33,5.15,16.33,5.15-14.29-6.11-20.12-25.38-20.12-25.38a21.83,21.83,0,0,0,10.64,2.29c-11.81-8.4-17.2-22.14-17.2-22.14,6.56,4,14.87,4.39,14.87,4.39-15.16-9-18.22-21.56-18.22-21.56,5.25,2.86,6.56,1.53,6.56,1.53-9.77-6.11-18.88-31.18-18.88-31.18s-5.52,34.11-24.18,37.67c0,0,7.58,1.27,14-3.05,0,0-5.64,19.08-17.3,23.92a34.23,34.23,0,0,0,10.5-2.29s-4.67,20.61-19.05,27c0,0,13.61.76,20.8-9.41,0,0-6.22,24.93-16.91,28.5,0,0,7.39,2.54,14.77-3.82,0,0-12.64,27.73-23.52,29,0,0,8.94.76,15.75-2.8,0,0-8.36,22.64-18.08,25.7,0,0,6.61,1.78,15.36-3.56,0,0-11.08,24.43-27.8,28A29.47,29.47,0,0,0,825,1117.5s-5.44,21.88-20.41,27h50.66v33.84h9.72v-33.84Z" transform="translate(0 -678.86)"/><path class="cls-3" d="M1035.28,1166.82c-14.73-6.62-22.89-24.49-22.89-24.49,6.12,4,13.7,2.48,13.7,2.48-15-6.49-19.24-17.17-19.24-17.17,6.41,2.48,9.19,1.91,9.19,1.91-8.31-7.06-10.5-18.32-10.5-18.32,7.14,3.63,10.5,1.91,10.5,1.91-10.93-5.72-15.6-18.51-15.6-18.51,8,5.92,13.85,5.92,13.85,5.92-12.83-7.63-16.77-24.62-16.77-24.62a17.08,17.08,0,0,0,13.41,4.2c-7.58-5.15-13.56-22.33-13.56-22.33,6.12,5,16.33,5.15,16.33,5.15-14.29-6.11-20.12-25.38-20.12-25.38a21.83,21.83,0,0,0,10.64,2.29c-11.81-8.4-17.2-22.14-17.2-22.14,6.56,4,14.87,4.39,14.87,4.39-15.16-9-18.22-21.56-18.22-21.56,5.25,2.86,6.56,1.53,6.56,1.53-9.77-6.11-18.88-31.18-18.88-31.18s-5.52,34.11-24.18,37.67c0,0,7.58,1.27,14-3.05,0,0-5.64,19.08-17.3,23.92a34.24,34.24,0,0,0,10.5-2.29s-4.67,20.61-19.05,27c0,0,13.61.76,20.8-9.41,0,0-6.22,24.93-16.91,28.5,0,0,7.39,2.54,14.77-3.82,0,0-12.64,27.73-23.52,29,0,0,8.94.76,15.75-2.8,0,0-8.36,22.64-18.08,25.7,0,0,6.61,1.78,15.36-3.56,0,0-11.08,24.43-27.8,28a29.47,29.47,0,0,0,24.69-5.85s-5.44,21.88-20.41,27h50.66v33.84h9.72v-33.84Z" transform="translate(0 -678.86)"/><path class="cls-3" d="M1103.87,1137c-14.73-6.62-22.89-24.49-22.89-24.49,6.12,4,13.7,2.48,13.7,2.48-15-6.49-19.24-17.17-19.24-17.17,6.42,2.48,9.19,1.91,9.19,1.91-8.31-7.06-10.5-18.32-10.5-18.32,7.14,3.63,10.5,1.91,10.5,1.91-10.93-5.72-15.6-18.51-15.6-18.51,8,5.92,13.85,5.92,13.85,5.92-12.83-7.63-16.77-24.62-16.77-24.62a17.08,17.08,0,0,0,13.41,4.2c-7.58-5.15-13.56-22.33-13.56-22.33,6.12,5,16.33,5.15,16.33,5.15-14.29-6.11-20.12-25.38-20.12-25.38a21.83,21.83,0,0,0,10.64,2.29c-11.81-8.4-17.2-22.14-17.2-22.14,6.56,4,14.87,4.39,14.87,4.39-15.16-9-18.22-21.56-18.22-21.56,5.25,2.86,6.56,1.53,6.56,1.53-9.77-6.11-18.88-31.18-18.88-31.18s-5.52,34.11-24.18,37.67c0,0,7.58,1.27,14-3.05,0,0-5.64,19.08-17.3,23.92a34.24,34.24,0,0,0,10.5-2.29s-4.67,20.61-19.05,27c0,0,13.61.76,20.8-9.41,0,0-6.22,24.93-16.91,28.5,0,0,7.39,2.54,14.77-3.82,0,0-12.64,27.73-23.52,29,0,0,8.94.76,15.75-2.8,0,0-8.36,22.64-18.08,25.7,0,0,6.61,1.78,15.36-3.56,0,0-11.08,24.43-27.8,28a29.47,29.47,0,0,0,24.69-5.85s-5.44,21.88-20.41,27h50.66v33.84h9.72V1137Z" transform="translate(0 -678.86)"/><path class="cls-3" d="M1266.08,1178.4c-14.73-6.62-22.89-24.49-22.89-24.49,6.12,4,13.7,2.48,13.7,2.48-15-6.49-19.24-17.17-19.24-17.17,6.41,2.48,9.19,1.91,9.19,1.91-8.31-7.06-10.5-18.32-10.5-18.32,7.14,3.63,10.5,1.91,10.5,1.91-10.93-5.72-15.6-18.51-15.6-18.51,8,5.92,13.85,5.92,13.85,5.92-12.83-7.63-16.77-24.62-16.77-24.62a17.08,17.08,0,0,0,13.41,4.2c-7.58-5.15-13.56-22.33-13.56-22.33,6.12,5,16.33,5.15,16.33,5.15-14.29-6.11-20.12-25.38-20.12-25.38a21.83,21.83,0,0,0,10.64,2.29c-11.81-8.4-17.2-22.14-17.2-22.14,6.56,4,14.87,4.39,14.87,4.39-15.16-9-18.22-21.56-18.22-21.56,5.25,2.86,6.56,1.53,6.56,1.53-9.77-6.11-18.88-31.18-18.88-31.18s-5.52,34.11-24.18,37.67c0,0,7.58,1.27,14-3.05,0,0-5.64,19.08-17.3,23.92a34.24,34.24,0,0,0,10.5-2.29s-4.67,20.61-19.05,27c0,0,13.61.76,20.8-9.41,0,0-6.22,24.93-16.91,28.5,0,0,7.39,2.54,14.77-3.82,0,0-12.64,27.73-23.52,29,0,0,8.94.76,15.75-2.8,0,0-8.36,22.64-18.08,25.7,0,0,6.61,1.78,15.36-3.56,0,0-11.08,24.43-27.8,28a29.47,29.47,0,0,0,24.69-5.85s-5.44,21.88-20.41,27h50.66v33.84h9.72V1178.4Z" transform="translate(0 -678.86)"/><path class="cls-3" d="M1322.21,1122.3c-14.73-6.62-22.89-24.49-22.89-24.49,6.12,4,13.7,2.48,13.7,2.48-15-6.49-19.24-17.17-19.24-17.17,6.41,2.48,9.19,1.91,9.19,1.91-8.31-7.06-10.5-18.32-10.5-18.32,7.14,3.63,10.5,1.91,10.5,1.91-10.93-5.72-15.6-18.51-15.6-18.51,8,5.92,13.85,5.92,13.85,5.92-12.83-7.63-16.77-24.62-16.77-24.62a17.08,17.08,0,0,0,13.41,4.2c-7.58-5.15-13.56-22.33-13.56-22.33,6.12,5,16.33,5.15,16.33,5.15-14.29-6.11-20.12-25.38-20.12-25.38a21.83,21.83,0,0,0,10.64,2.29c-11.81-8.4-17.2-22.14-17.2-22.14,6.56,4,14.87,4.39,14.87,4.39-15.16-9-18.22-21.56-18.22-21.56,5.25,2.86,6.56,1.53,6.56,1.53-9.77-6.11-18.88-31.18-18.88-31.18s-5.52,34.11-24.18,37.67c0,0,7.58,1.27,14-3.05,0,0-5.64,19.08-17.3,23.92a34.24,34.24,0,0,0,10.5-2.29s-4.67,20.61-19.05,27c0,0,13.61.76,20.8-9.41,0,0-6.22,24.93-16.91,28.5,0,0,7.39,2.54,14.77-3.82,0,0-12.64,27.73-23.52,29,0,0,8.94.76,15.75-2.8,0,0-8.36,22.64-18.08,25.7,0,0,6.61,1.78,15.36-3.56,0,0-11.08,24.43-27.8,28a29.47,29.47,0,0,0,24.69-5.85s-5.44,21.88-20.41,27h50.66v33.84h9.72V1122.3Z" transform="translate(0 -678.86)"/><path class="cls-3" d="M1450,1207.08c-14.73-6.62-22.89-24.49-22.89-24.49,6.12,4,13.7,2.48,13.7,2.48-15-6.49-19.25-17.17-19.25-17.17,6.42,2.48,9.19,1.91,9.19,1.91-8.31-7.06-10.5-18.32-10.5-18.32,7.14,3.63,10.5,1.91,10.5,1.91-10.93-5.72-15.6-18.51-15.6-18.51,8,5.92,13.85,5.92,13.85,5.92-12.83-7.63-16.77-24.62-16.77-24.62a17.08,17.08,0,0,0,13.41,4.2c-7.58-5.15-13.56-22.33-13.56-22.33,6.12,5,16.33,5.15,16.33,5.15-14.29-6.11-20.12-25.38-20.12-25.38a21.84,21.84,0,0,0,10.64,2.29c-11.81-8.4-17.2-22.14-17.2-22.14,6.56,4,14.87,4.39,14.87,4.39-15.16-9-18.22-21.56-18.22-21.56,5.25,2.86,6.56,1.53,6.56,1.53-9.77-6.11-18.88-31.18-18.88-31.18s-5.52,34.11-24.18,37.67c0,0,7.58,1.27,14-3.05,0,0-5.64,19.08-17.3,23.92a34.24,34.24,0,0,0,10.5-2.29s-4.67,20.61-19.05,27c0,0,13.61.76,20.8-9.41,0,0-6.22,24.93-16.91,28.5,0,0,7.39,2.54,14.77-3.82,0,0-12.64,27.73-23.52,29,0,0,8.94.76,15.75-2.8,0,0-8.36,22.64-18.08,25.7,0,0,6.61,1.78,15.36-3.56,0,0-11.08,24.43-27.8,28a29.47,29.47,0,0,0,24.69-5.85s-5.44,21.88-20.41,27h50.66v33.84H1395v-33.84Z" transform="translate(0 -678.86)"/><path class="cls-3" d="M1552.48,1216c-14.73-6.62-22.89-24.49-22.89-24.49,6.12,4,13.7,2.48,13.7,2.48-15-6.49-19.25-17.17-19.25-17.17,6.42,2.48,9.19,1.91,9.19,1.91-8.31-7.06-10.5-18.32-10.5-18.32,7.14,3.63,10.5,1.91,10.5,1.91-10.93-5.72-15.6-18.51-15.6-18.51,8,5.92,13.85,5.92,13.85,5.92-12.83-7.63-16.77-24.62-16.77-24.62a17.08,17.08,0,0,0,13.41,4.2c-7.58-5.15-13.56-22.33-13.56-22.33,6.12,5,16.33,5.15,16.33,5.15-14.29-6.11-20.12-25.38-20.12-25.38a21.84,21.84,0,0,0,10.64,2.29c-11.81-8.4-17.2-22.14-17.2-22.14,6.56,4,14.87,4.39,14.87,4.39-15.16-9-18.22-21.56-18.22-21.56,5.25,2.86,6.56,1.53,6.56,1.53-9.77-6.11-18.88-31.18-18.88-31.18s-5.52,34.11-24.18,37.67c0,0,7.58,1.27,14-3.05,0,0-5.64,19.08-17.3,23.92a34.23,34.23,0,0,0,10.5-2.29s-4.67,20.61-19.05,27c0,0,13.61.76,20.8-9.41,0,0-6.22,24.93-16.91,28.5,0,0,7.39,2.54,14.77-3.82,0,0-12.64,27.73-23.52,29,0,0,8.94.76,15.75-2.8,0,0-8.36,22.64-18.08,25.7,0,0,6.61,1.78,15.36-3.56,0,0-11.08,24.43-27.8,28a29.47,29.47,0,0,0,24.69-5.85s-5.44,21.88-20.41,27h50.66v33.84h9.72V1216Z" transform="translate(0 -678.86)"/><path class="cls-3" d="M1798.78,1206.34c-14.73-6.62-22.89-24.49-22.89-24.49,6.12,4,13.7,2.48,13.7,2.48-15-6.49-19.24-17.17-19.24-17.17,6.41,2.48,9.18,1.91,9.18,1.91-8.31-7.06-10.5-18.32-10.5-18.32,7.14,3.63,10.5,1.91,10.5,1.91-10.93-5.72-15.6-18.51-15.6-18.51,8,5.92,13.85,5.92,13.85,5.92-12.83-7.63-16.77-24.62-16.77-24.62a17.08,17.08,0,0,0,13.41,4.2c-7.58-5.15-13.56-22.33-13.56-22.33,6.12,5,16.33,5.15,16.33,5.15-14.29-6.11-20.12-25.38-20.12-25.38a21.83,21.83,0,0,0,10.64,2.29c-11.81-8.4-17.2-22.14-17.2-22.14,6.56,4,14.87,4.39,14.87,4.39-15.16-9-18.22-21.56-18.22-21.56,5.25,2.86,6.56,1.53,6.56,1.53-9.77-6.11-18.88-31.18-18.88-31.18s-5.52,34.11-24.18,37.67c0,0,7.58,1.27,14-3.05,0,0-5.64,19.08-17.3,23.92a34.23,34.23,0,0,0,10.5-2.29s-4.67,20.61-19.05,27c0,0,13.61.76,20.8-9.41,0,0-6.22,24.93-16.91,28.5,0,0,7.39,2.54,14.77-3.82,0,0-12.64,27.73-23.52,29,0,0,8.94.76,15.75-2.8,0,0-8.36,22.64-18.08,25.7,0,0,6.61,1.78,15.36-3.56,0,0-11.08,24.43-27.8,28a29.47,29.47,0,0,0,24.69-5.85s-5.44,21.88-20.41,27h50.66v33.84h9.72v-33.84Z" transform="translate(0 -678.86)"/><path class="cls-3" d="M1843.18,1172.44c-14.73-6.62-22.89-24.49-22.89-24.49,6.12,4,13.7,2.48,13.7,2.48-15-6.49-19.24-17.17-19.24-17.17,6.41,2.48,9.19,1.91,9.19,1.91-8.31-7.06-10.5-18.32-10.5-18.32,7.14,3.63,10.5,1.91,10.5,1.91-10.93-5.72-15.6-18.51-15.6-18.51,8,5.92,13.85,5.92,13.85,5.92-12.83-7.63-16.77-24.62-16.77-24.62a17.08,17.08,0,0,0,13.41,4.2c-7.58-5.15-13.56-22.33-13.56-22.33,6.12,5,16.33,5.15,16.33,5.15-14.29-6.11-20.12-25.38-20.12-25.38a21.83,21.83,0,0,0,10.64,2.29c-11.81-8.4-17.2-22.14-17.2-22.14,6.56,4,14.87,4.39,14.87,4.39-15.16-9-18.22-21.56-18.22-21.56,5.25,2.86,6.56,1.53,6.56,1.53-9.77-6.11-18.88-31.18-18.88-31.18s-5.52,34.11-24.18,37.67c0,0,7.58,1.27,14-3.05,0,0-5.64,19.08-17.3,23.92a34.23,34.23,0,0,0,10.5-2.29s-4.67,20.61-19.05,27c0,0,13.61.76,20.8-9.41,0,0-6.22,24.93-16.91,28.5,0,0,7.39,2.54,14.77-3.82,0,0-12.64,27.73-23.52,29,0,0,8.94.76,15.75-2.8,0,0-8.36,22.64-18.08,25.7,0,0,6.61,1.78,15.36-3.56,0,0-11.08,24.43-27.8,28a29.47,29.47,0,0,0,24.69-5.85s-5.44,21.88-20.41,27h50.66v33.84h9.72v-33.84Z" transform="translate(0 -678.86)"/><path class="cls-3" d="M1381.48,1150.27c-14.73-6.62-22.89-24.49-22.89-24.49,6.12,4,13.7,2.48,13.7,2.48-15-6.49-19.24-17.17-19.24-17.17,6.41,2.48,9.19,1.91,9.19,1.91-8.31-7.06-10.5-18.32-10.5-18.32,7.14,3.63,10.5,1.91,10.5,1.91-10.93-5.72-15.6-18.51-15.6-18.51,8,5.92,13.85,5.92,13.85,5.92-12.83-7.63-16.77-24.62-16.77-24.62a17.08,17.08,0,0,0,13.41,4.2c-7.58-5.15-13.56-22.33-13.56-22.33,6.12,5,16.33,5.15,16.33,5.15-14.29-6.11-20.12-25.38-20.12-25.38a21.83,21.83,0,0,0,10.64,2.29c-11.81-8.4-17.2-22.14-17.2-22.14,6.56,4,14.87,4.39,14.87,4.39-15.16-9-18.22-21.56-18.22-21.56,5.25,2.86,6.56,1.53,6.56,1.53-9.77-6.11-18.88-31.18-18.88-31.18S1312,988.46,1293.37,992c0,0,7.58,1.27,14-3.05,0,0-5.64,19.08-17.3,23.92a34.24,34.24,0,0,0,10.5-2.29s-4.67,20.61-19.05,27c0,0,13.61.76,20.8-9.41,0,0-6.22,24.93-16.91,28.5,0,0,7.39,2.54,14.77-3.82,0,0-12.64,27.73-23.52,29,0,0,8.94.76,15.75-2.8,0,0-8.36,22.64-18.08,25.7,0,0,6.61,1.78,15.36-3.56,0,0-11.08,24.43-27.8,28a29.47,29.47,0,0,0,24.69-5.85s-5.44,21.88-20.41,27h50.66v33.84h9.72v-33.84Z" transform="translate(0 -678.86)"/><path class="cls-3" d="M1496.88,1178.4c-14.73-6.62-22.89-24.49-22.89-24.49,6.12,4,13.7,2.48,13.7,2.48-15-6.49-19.24-17.17-19.24-17.17,6.41,2.48,9.19,1.91,9.19,1.91-8.31-7.06-10.5-18.32-10.5-18.32,7.14,3.63,10.5,1.91,10.5,1.91-10.93-5.72-15.6-18.51-15.6-18.51,8,5.92,13.85,5.92,13.85,5.92-12.83-7.63-16.77-24.62-16.77-24.62a17.08,17.08,0,0,0,13.41,4.2c-7.58-5.15-13.56-22.33-13.56-22.33,6.12,5,16.33,5.15,16.33,5.15-14.29-6.11-20.12-25.38-20.12-25.38a21.83,21.83,0,0,0,10.64,2.29c-11.81-8.4-17.2-22.14-17.2-22.14,6.56,4,14.87,4.39,14.87,4.39-15.16-9-18.22-21.56-18.22-21.56,5.25,2.86,6.56,1.53,6.56,1.53-9.77-6.11-18.88-31.18-18.88-31.18s-5.52,34.11-24.18,37.67c0,0,7.58,1.27,14-3.05,0,0-5.64,19.08-17.3,23.92a34.24,34.24,0,0,0,10.5-2.29s-4.67,20.61-19.05,27c0,0,13.61.76,20.8-9.41,0,0-6.22,24.93-16.91,28.5,0,0,7.39,2.54,14.77-3.82,0,0-12.64,27.73-23.52,29,0,0,8.94.76,15.75-2.8,0,0-8.36,22.64-18.08,25.7,0,0,6.61,1.78,15.36-3.56,0,0-11.08,24.43-27.8,28a29.47,29.47,0,0,0,24.69-5.85s-5.44,21.88-20.41,27h50.66v33.84h9.72V1178.4Z" transform="translate(0 -678.86)"/><path class="cls-3" d="M1612.28,1148.61c-14.73-6.62-22.89-24.49-22.89-24.49,6.12,4,13.7,2.48,13.7,2.48-15-6.49-19.24-17.17-19.24-17.17,6.41,2.48,9.19,1.91,9.19,1.91-8.31-7.06-10.5-18.32-10.5-18.32,7.14,3.63,10.5,1.91,10.5,1.91-10.93-5.72-15.6-18.51-15.6-18.51,8,5.92,13.85,5.92,13.85,5.92-12.83-7.63-16.77-24.62-16.77-24.62a17.08,17.08,0,0,0,13.41,4.2c-7.58-5.15-13.56-22.33-13.56-22.33,6.12,5,16.33,5.15,16.33,5.15-14.29-6.11-20.12-25.38-20.12-25.38a21.83,21.83,0,0,0,10.64,2.29c-11.81-8.4-17.2-22.14-17.2-22.14,6.56,4,14.87,4.39,14.87,4.39-15.16-9-18.22-21.56-18.22-21.56,5.25,2.86,6.56,1.53,6.56,1.53-9.77-6.11-18.88-31.18-18.88-31.18s-5.52,34.11-24.18,37.67c0,0,7.58,1.27,14-3.05,0,0-5.64,19.08-17.3,23.92a34.23,34.23,0,0,0,10.5-2.29s-4.67,20.61-19.05,27c0,0,13.61.76,20.8-9.41,0,0-6.22,24.93-16.91,28.5,0,0,7.39,2.54,14.77-3.82,0,0-12.64,27.73-23.52,29,0,0,8.94.76,15.75-2.8,0,0-8.36,22.64-18.08,25.7,0,0,6.61,1.78,15.36-3.56,0,0-11.08,24.43-27.8,28a29.47,29.47,0,0,0,24.69-5.85s-5.44,21.88-20.41,27h50.66v33.84h9.72v-33.84Z" transform="translate(0 -678.86)"/><path class="cls-3" d="M1727.68,1162.76c-14.73-6.62-22.89-24.49-22.89-24.49,6.12,4,13.7,2.48,13.7,2.48-15-6.49-19.24-17.17-19.24-17.17,6.41,2.48,9.19,1.91,9.19,1.91-8.31-7.06-10.5-18.32-10.5-18.32,7.14,3.63,10.5,1.91,10.5,1.91-10.93-5.72-15.6-18.51-15.6-18.51,8,5.92,13.85,5.92,13.85,5.92-12.83-7.63-16.77-24.62-16.77-24.62a17.08,17.08,0,0,0,13.41,4.2c-7.58-5.15-13.56-22.33-13.56-22.33,6.12,5,16.33,5.15,16.33,5.15-14.29-6.11-20.12-25.38-20.12-25.38a21.83,21.83,0,0,0,10.64,2.29c-11.81-8.4-17.2-22.14-17.2-22.14,6.56,4,14.87,4.39,14.87,4.39-15.16-9-18.22-21.56-18.22-21.56,5.25,2.86,6.56,1.53,6.56,1.53-9.77-6.11-18.88-31.18-18.88-31.18s-5.52,34.11-24.18,37.67c0,0,7.58,1.27,14-3.05,0,0-5.64,19.08-17.3,23.92a34.23,34.23,0,0,0,10.5-2.29s-4.67,20.61-19.05,27c0,0,13.61.76,20.8-9.41,0,0-6.22,24.93-16.91,28.5,0,0,7.39,2.54,14.77-3.82,0,0-12.64,27.73-23.52,29,0,0,8.94.76,15.75-2.8,0,0-8.36,22.64-18.08,25.7,0,0,6.61,1.78,15.36-3.56,0,0-11.08,24.43-27.8,28a29.47,29.47,0,0,0,24.69-5.85s-5.44,21.88-20.41,27H1663v33.84h9.72v-33.84Z" transform="translate(0 -678.86)"/><path class="cls-3" d="M1671,1189.34c-14.73-6.62-22.89-24.49-22.89-24.49,6.12,4,13.7,2.48,13.7,2.48-15-6.49-19.24-17.17-19.24-17.17,6.41,2.48,9.19,1.91,9.19,1.91-8.31-7.06-10.5-18.32-10.5-18.32,7.14,3.63,10.5,1.91,10.5,1.91-10.93-5.72-15.6-18.51-15.6-18.51,8,5.92,13.85,5.92,13.85,5.92-12.83-7.63-16.77-24.62-16.77-24.62a17.08,17.08,0,0,0,13.41,4.2c-7.58-5.15-13.56-22.33-13.56-22.33,6.12,5,16.33,5.15,16.33,5.15-14.29-6.11-20.12-25.38-20.12-25.38a21.83,21.83,0,0,0,10.64,2.29c-11.81-8.4-17.2-22.14-17.2-22.14,6.56,4,14.87,4.39,14.87,4.39-15.16-9-18.22-21.56-18.22-21.56,5.25,2.86,6.56,1.53,6.56,1.53-9.77-6.11-18.88-31.18-18.88-31.18s-5.52,34.11-24.18,37.67c0,0,7.58,1.27,14-3.05,0,0-5.64,19.08-17.3,23.92a34.24,34.24,0,0,0,10.5-2.29s-4.67,20.61-19.05,27c0,0,13.61.76,20.8-9.41,0,0-6.22,24.93-16.91,28.5,0,0,7.39,2.54,14.77-3.82,0,0-12.64,27.73-23.52,29,0,0,8.94.76,15.75-2.8,0,0-8.36,22.64-18.08,25.7,0,0,6.61,1.78,15.36-3.56,0,0-11.08,24.43-27.8,28a29.47,29.47,0,0,0,24.69-5.85s-5.44,21.88-20.41,27h50.66v33.84H1616v-33.84Z" transform="translate(0 -678.86)"/><path class="cls-3" d="M1885.24,1162.76c-14.73-6.62-22.89-24.49-22.89-24.49,6.12,4,13.7,2.48,13.7,2.48-15-6.49-19.24-17.17-19.24-17.17,6.42,2.48,9.19,1.91,9.19,1.91-8.31-7.06-10.5-18.32-10.5-18.32,7.14,3.63,10.5,1.91,10.5,1.91-10.93-5.72-15.6-18.51-15.6-18.51,8,5.92,13.85,5.92,13.85,5.92-12.83-7.63-16.77-24.62-16.77-24.62a17.08,17.08,0,0,0,13.41,4.2c-7.58-5.15-13.56-22.33-13.56-22.33,6.12,5,16.33,5.15,16.33,5.15-14.29-6.11-20.12-25.38-20.12-25.38a21.83,21.83,0,0,0,10.64,2.29c-11.81-8.4-17.2-22.14-17.2-22.14,6.56,4,14.87,4.39,14.87,4.39-15.16-9-18.22-21.56-18.22-21.56,5.25,2.86,6.56,1.53,6.56,1.53-9.77-6.11-18.88-31.18-18.88-31.18s-5.52,34.11-24.18,37.67c0,0,7.58,1.27,14-3.05,0,0-5.64,19.08-17.3,23.92a34.23,34.23,0,0,0,10.5-2.29s-4.67,20.61-19.05,27c0,0,13.61.76,20.8-9.41,0,0-6.22,24.93-16.91,28.5,0,0,7.39,2.54,14.77-3.82,0,0-12.64,27.73-23.52,29,0,0,8.94.76,15.75-2.8,0,0-8.36,22.64-18.08,25.7,0,0,6.61,1.78,15.36-3.56,0,0-11.08,24.43-27.8,28a29.47,29.47,0,0,0,24.69-5.85s-5.44,21.88-20.41,27h50.66v33.84h9.72v-33.84Z" transform="translate(0 -678.86)"/><path class="cls-3" d="M1664.07,1200c-11.9-5.31-18.49-19.65-18.49-19.65,4.95,3.22,11.07,2,11.07,2-12.13-5.21-15.55-13.78-15.55-13.78,5.18,2,7.42,1.53,7.42,1.53-6.71-5.66-8.48-14.7-8.48-14.7,5.77,2.91,8.48,1.53,8.48,1.53-8.83-4.59-12.6-14.85-12.6-14.85,6.48,4.75,11.19,4.75,11.19,4.75-10.36-6.12-13.54-19.75-13.54-19.75a13.87,13.87,0,0,0,10.84,3.37c-6.12-4.13-11-17.91-11-17.91,4.95,4,13.19,4.13,13.19,4.13-11.54-4.9-16.25-20.36-16.25-20.36a17.74,17.74,0,0,0,8.6,1.84c-9.54-6.74-13.9-17.76-13.9-17.76a28.92,28.92,0,0,0,12,3.52c-12.25-7.2-14.72-17.3-14.72-17.3,4.24,2.3,5.3,1.22,5.3,1.22-7.89-4.9-15.25-25-15.25-25s-4.46,27.37-19.53,30.23a17.26,17.26,0,0,0,11.31-2.45s-4.55,15.31-14,19.19a27.81,27.81,0,0,0,8.48-1.84s-3.77,16.54-15.39,21.64c0,0,11,.61,16.8-7.55,0,0-5,20-13.66,22.86,0,0,6,2,11.93-3.06,0,0-10.21,22.25-19,23.27,0,0,7.22.61,12.72-2.25,0,0-6.75,18.17-14.6,20.62,0,0,5.34,1.43,12.41-2.86,0,0-9,19.6-22.46,22.46a23.94,23.94,0,0,0,19.94-4.7s-4.4,17.56-16.49,21.64h40.93v27.15h7.85V1200Z" transform="translate(0 -678.86)"/><path class="cls-4" d="M504.33,1233.64c-26.73-8.5-41.54-31.46-41.54-31.46,11.11,5.15,24.87,3.19,24.87,3.19-27.26-8.34-34.93-22.07-34.93-22.07,11.64,3.19,16.67,2.45,16.67,2.45a43.85,43.85,0,0,1-19.05-23.54c13,4.66,19.05,2.45,19.05,2.45a55.31,55.31,0,0,1-28.31-23.78c14.55,7.6,25.14,7.6,25.14,7.6-23.29-9.81-30.43-31.63-30.43-31.63a40.91,40.91,0,0,0,24.34,5.39c-13.76-6.62-24.61-28.69-24.61-28.69,11.11,6.37,29.64,6.62,29.64,6.62-25.93-7.85-36.52-32.61-36.52-32.61,8.73,3.43,19.32,2.94,19.32,2.94a78.26,78.26,0,0,1-31.22-28.44c11.91,5.15,27,5.64,27,5.64-27.52-11.52-33.08-27.71-33.08-27.71,9.53,3.68,11.91,2,11.91,2-17.73-7.85-34.26-40.07-34.26-40.07s-10,43.82-43.89,48.4c0,0,13.76,1.63,25.4-3.92,0,0-10.23,24.52-31.4,30.73,0,0,10.58-.33,19.05-2.94,0,0-8.47,26.48-34.58,34.65,0,0,24.7,1,37.75-12.1,0,0-11.29,32-30.7,36.61a38.31,38.31,0,0,0,26.81-4.9s-22.93,35.63-42.69,37.27c0,0,16.23,1,28.58-3.6,0,0-15.17,29.09-32.81,33,0,0,12,2.29,27.87-4.58,0,0-20.11,31.38-50.45,36,0,0,24,4.58,44.81-7.52,0,0-9.88,28.11-37,34.65h92v43.48h17.64v-43.48Z" transform="translate(0 -678.86)"/><path class="cls-4" d="M711.57,1233.64c-26.73-8.5-41.54-31.46-41.54-31.46,11.11,5.15,24.87,3.19,24.87,3.19C667.64,1197,660,1183.3,660,1183.3c11.64,3.19,16.67,2.45,16.67,2.45a43.85,43.85,0,0,1-19.05-23.54c13,4.66,19.05,2.45,19.05,2.45a55.31,55.31,0,0,1-28.31-23.78c14.55,7.6,25.14,7.6,25.14,7.6-23.29-9.81-30.43-31.63-30.43-31.63a40.91,40.91,0,0,0,24.34,5.39c-13.76-6.62-24.61-28.69-24.61-28.69,11.11,6.37,29.64,6.62,29.64,6.62-25.93-7.85-36.52-32.61-36.52-32.61,8.73,3.43,19.32,2.94,19.32,2.94A78.27,78.27,0,0,1,624,1042.08c11.91,5.15,27,5.64,27,5.64C623.45,1036.19,617.9,1020,617.9,1020c9.53,3.68,11.91,2,11.91,2-17.73-7.85-34.26-40.07-34.26-40.07s-10,43.82-43.89,48.4c0,0,13.76,1.63,25.4-3.92,0,0-10.23,24.52-31.4,30.73,0,0,10.58-.33,19.05-2.94,0,0-8.47,26.48-34.58,34.65,0,0,24.7,1,37.75-12.1,0,0-11.29,32-30.7,36.61a38.31,38.31,0,0,0,26.81-4.9s-22.93,35.63-42.69,37.27c0,0,16.23,1,28.58-3.6,0,0-15.17,29.09-32.81,33,0,0,12,2.29,27.87-4.58,0,0-20.11,31.38-50.45,36,0,0,24,4.58,44.81-7.52,0,0-9.88,28.11-37,34.65h92v43.48h17.64v-43.48Z" transform="translate(0 -678.86)"/><path class="cls-4" d="M866.07,1261.53c-26.73-8.5-41.54-31.46-41.54-31.46,11.11,5.15,24.87,3.19,24.87,3.19-27.26-8.34-34.93-22.07-34.93-22.07,11.64,3.19,16.67,2.45,16.67,2.45a43.85,43.85,0,0,1-19.05-23.54c13,4.66,19.05,2.45,19.05,2.45a55.31,55.31,0,0,1-28.31-23.78c14.55,7.6,25.14,7.6,25.14,7.6-23.29-9.81-30.43-31.63-30.43-31.63a40.91,40.91,0,0,0,24.34,5.39c-13.76-6.62-24.61-28.69-24.61-28.69,11.11,6.37,29.64,6.62,29.64,6.62-25.93-7.85-36.52-32.61-36.52-32.61,8.73,3.43,19.32,2.94,19.32,2.94A78.26,78.26,0,0,1,778.48,1070c11.91,5.15,27,5.64,27,5.64-27.52-11.52-33.08-27.71-33.08-27.71,9.53,3.68,11.91,2,11.91,2C766.58,1042,750,1009.8,750,1009.8s-10,43.82-43.89,48.4c0,0,13.76,1.63,25.4-3.92,0,0-10.23,24.52-31.4,30.73,0,0,10.58-.33,19.05-2.94,0,0-8.47,26.48-34.58,34.65,0,0,24.7,1,37.75-12.1,0,0-11.29,32-30.7,36.61a38.3,38.3,0,0,0,26.81-4.9s-22.93,35.63-42.69,37.27c0,0,16.23,1,28.58-3.6,0,0-15.17,29.09-32.81,33,0,0,12,2.29,27.87-4.58,0,0-20.11,31.38-50.45,36,0,0,24,4.58,44.81-7.52,0,0-9.88,28.11-37,34.65h92V1305h17.64v-43.48Z" transform="translate(0 -678.86)"/><path class="cls-4" d="M1078.8,1233.64c-26.73-8.5-41.54-31.46-41.54-31.46,11.11,5.15,24.87,3.19,24.87,3.19-27.26-8.34-34.93-22.07-34.93-22.07,11.64,3.19,16.67,2.45,16.67,2.45a43.85,43.85,0,0,1-19.05-23.54c13,4.66,19.05,2.45,19.05,2.45a55.31,55.31,0,0,1-28.31-23.78c14.55,7.6,25.14,7.6,25.14,7.6-23.29-9.81-30.43-31.63-30.43-31.63a40.91,40.91,0,0,0,24.34,5.39c-13.76-6.62-24.61-28.69-24.61-28.69,11.11,6.37,29.64,6.62,29.64,6.62-25.93-7.85-36.52-32.61-36.52-32.61,8.73,3.43,19.32,2.94,19.32,2.94a78.26,78.26,0,0,1-31.22-28.44c11.91,5.15,27,5.64,27,5.64-27.52-11.52-33.08-27.71-33.08-27.71,9.53,3.68,11.91,2,11.91,2-17.73-7.85-34.26-40.07-34.26-40.07s-10,43.82-43.89,48.4c0,0,13.76,1.63,25.4-3.92,0,0-10.23,24.52-31.4,30.73,0,0,10.58-.33,19.05-2.94,0,0-8.47,26.48-34.58,34.65,0,0,24.7,1,37.75-12.1,0,0-11.29,32-30.7,36.61a38.31,38.31,0,0,0,26.81-4.9s-22.93,35.63-42.69,37.27c0,0,16.23,1,28.58-3.6,0,0-15.17,29.09-32.81,33,0,0,12,2.29,27.87-4.58,0,0-20.11,31.38-50.45,36,0,0,24,4.58,44.81-7.52,0,0-9.88,28.11-37,34.65h92v43.48h17.64v-43.48Z" transform="translate(0 -678.86)"/><path class="cls-4" d="M1314,1300.51c-26.73-8.5-41.54-31.46-41.54-31.46,11.11,5.15,24.87,3.19,24.87,3.19-27.26-8.34-34.93-22.07-34.93-22.07,11.64,3.19,16.67,2.45,16.67,2.45a43.85,43.85,0,0,1-19.05-23.54c13,4.66,19.05,2.45,19.05,2.45a55.31,55.31,0,0,1-28.31-23.78c14.55,7.6,25.14,7.6,25.14,7.6-23.29-9.81-30.43-31.63-30.43-31.63a40.91,40.91,0,0,0,24.34,5.39c-13.76-6.62-24.61-28.69-24.61-28.69,11.11,6.37,29.64,6.62,29.64,6.62-25.93-7.85-36.52-32.61-36.52-32.61,8.73,3.43,19.32,2.94,19.32,2.94a78.26,78.26,0,0,1-31.22-28.44c11.91,5.15,27,5.64,27,5.64-27.52-11.52-33.08-27.71-33.08-27.71,9.53,3.68,11.91,2,11.91,2-17.73-7.85-34.26-40.07-34.26-40.07s-10,43.82-43.89,48.4c0,0,13.76,1.63,25.4-3.92,0,0-10.23,24.52-31.4,30.73,0,0,10.58-.33,19.05-2.94,0,0-8.47,26.48-34.58,34.65,0,0,24.7,1,37.75-12.1,0,0-11.29,32-30.7,36.61a38.31,38.31,0,0,0,26.81-4.9s-22.93,35.63-42.69,37.27c0,0,16.23,1,28.58-3.6,0,0-15.17,29.09-32.81,33,0,0,12,2.29,27.87-4.58,0,0-20.11,31.38-50.45,36,0,0,24,4.58,44.81-7.52,0,0-9.88,28.11-37,34.65h92V1344h17.64v-43.48Z" transform="translate(0 -678.86)"/><path class="cls-4" d="M1688,1317.27c-26.73-8.5-41.54-31.46-41.54-31.46,11.11,5.15,24.87,3.19,24.87,3.19-27.26-8.34-34.93-22.07-34.93-22.07,11.64,3.19,16.67,2.45,16.67,2.45a43.85,43.85,0,0,1-19.05-23.54c13,4.66,19.05,2.45,19.05,2.45a55.31,55.31,0,0,1-28.31-23.78c14.55,7.6,25.14,7.6,25.14,7.6-23.29-9.81-30.43-31.63-30.43-31.63a40.91,40.91,0,0,0,24.34,5.39c-13.76-6.62-24.61-28.69-24.61-28.69,11.11,6.37,29.64,6.62,29.64,6.62-25.93-7.85-36.52-32.61-36.52-32.61,8.73,3.43,19.32,2.94,19.32,2.94a78.26,78.26,0,0,1-31.22-28.44c11.91,5.15,27,5.64,27,5.64-27.52-11.52-33.08-27.71-33.08-27.71,9.53,3.68,11.91,2,11.91,2-17.73-7.85-34.26-40.07-34.26-40.07s-10,43.83-43.89,48.4c0,0,13.76,1.63,25.4-3.92,0,0-10.23,24.52-31.4,30.73,0,0,10.58-.33,19.05-2.94,0,0-8.47,26.48-34.58,34.65,0,0,24.7,1,37.75-12.1,0,0-11.29,32-30.7,36.61a38.31,38.31,0,0,0,26.81-4.9s-22.93,35.63-42.69,37.27c0,0,16.23,1,28.58-3.6,0,0-15.17,29.09-32.81,33,0,0,12,2.29,27.87-4.58,0,0-20.11,31.38-50.45,36,0,0,24,4.58,44.81-7.52,0,0-9.88,28.11-37,34.65h92v43.48h17.64v-43.48Z" transform="translate(0 -678.86)"/><path class="cls-4" d="M1827.59,1193.13c-26.73-8.5-41.54-31.46-41.54-31.46,11.11,5.15,24.87,3.19,24.87,3.19-27.26-8.34-34.93-22.07-34.93-22.07,11.64,3.19,16.67,2.45,16.67,2.45a43.85,43.85,0,0,1-19.05-23.54c13,4.66,19.05,2.45,19.05,2.45a55.31,55.31,0,0,1-28.31-23.78c14.55,7.6,25.14,7.6,25.14,7.6-23.29-9.81-30.43-31.63-30.43-31.63a40.91,40.91,0,0,0,24.34,5.39c-13.76-6.62-24.61-28.69-24.61-28.69,11.11,6.37,29.64,6.62,29.64,6.62-25.93-7.85-36.52-32.61-36.52-32.61,8.73,3.43,19.32,2.94,19.32,2.94a78.27,78.27,0,0,1-31.22-28.44c11.91,5.15,27,5.64,27,5.64-27.52-11.52-33.08-27.71-33.08-27.71,9.53,3.68,11.91,2,11.91,2-17.73-7.85-34.26-40.07-34.26-40.07s-10,43.82-43.89,48.4c0,0,13.76,1.63,25.4-3.92,0,0-10.23,24.52-31.4,30.73,0,0,10.58-.33,19.05-2.94,0,0-8.47,26.48-34.58,34.65,0,0,24.7,1,37.75-12.1,0,0-11.29,32-30.7,36.61a38.3,38.3,0,0,0,26.81-4.9s-22.93,35.63-42.69,37.27c0,0,16.23,1,28.58-3.6,0,0-15.17,29.09-32.81,33,0,0,12,2.29,27.87-4.58,0,0-20.11,31.38-50.45,36,0,0,24,4.58,44.81-7.52,0,0-9.88,28.11-37,34.65h92v43.48h17.64v-43.48Z" transform="translate(0 -678.86)"/><path class="cls-4" d="M254.32,1222.16c-18.39-7.56-28.59-28-28.59-28,7.65,4.58,17.12,2.84,17.12,2.84-18.75-7.42-24-19.63-24-19.63,8,2.84,11.47,2.18,11.47,2.18-10.38-8.07-13.11-20.94-13.11-20.94,8.92,4.14,13.11,2.18,13.11,2.18-13.66-6.54-19.48-21.16-19.48-21.16,10,6.76,17.3,6.76,17.3,6.76-16-8.73-20.94-28.14-20.94-28.14a22.81,22.81,0,0,0,16.75,4.8c-9.47-5.89-16.93-25.52-16.93-25.52,7.65,5.67,20.39,5.89,20.39,5.89-17.84-7-25.13-29-25.13-29,6,3.05,13.29,2.62,13.29,2.62-14.75-9.6-21.49-25.3-21.49-25.3,8.19,4.58,18.57,5,18.57,5-18.94-10.25-22.76-24.65-22.76-24.65,6.55,3.27,8.19,1.75,8.19,1.75-12.2-7-23.58-35.65-23.58-35.65s-6.89,39-30.2,43.06c0,0,9.47,1.45,17.48-3.49,0,0-7,21.81-21.61,27.34a46.24,46.24,0,0,0,13.11-2.62s-5.83,23.56-23.79,30.83c0,0,17,.87,26-10.76,0,0-7.77,28.5-21.12,32.57,0,0,9.23,2.91,18.45-4.36,0,0-15.78,31.7-29.38,33.16,0,0,11.17.87,19.66-3.2,0,0-10.44,25.88-22.58,29.38,0,0,8.25,2,19.18-4.07,0,0-13.84,27.92-34.72,32,0,0,16.51,4.07,30.83-6.69,0,0-6.8,25-25.49,30.83h63.27v38.68h12.14v-38.68Z" transform="translate(0 -678.86)"/><path class="cls-4" d="M574.94,1234.44c-18.39-7.56-28.59-28-28.59-28,7.65,4.58,17.12,2.84,17.12,2.84-18.75-7.42-24-19.63-24-19.63,8,2.84,11.47,2.18,11.47,2.18-10.38-8.07-13.11-20.94-13.11-20.94,8.92,4.14,13.11,2.18,13.11,2.18-13.66-6.54-19.48-21.16-19.48-21.16,10,6.76,17.3,6.76,17.3,6.76-16-8.73-20.94-28.14-20.94-28.14a22.81,22.81,0,0,0,16.75,4.8c-9.47-5.89-16.93-25.52-16.93-25.52,7.65,5.67,20.39,5.89,20.39,5.89-17.84-7-25.13-29-25.13-29,6,3.05,13.29,2.62,13.29,2.62-14.75-9.6-21.49-25.3-21.49-25.3,8.19,4.58,18.57,5,18.57,5-18.94-10.25-22.76-24.65-22.76-24.65,6.55,3.27,8.19,1.75,8.19,1.75-12.2-7-23.58-35.65-23.58-35.65s-6.89,39-30.2,43.06c0,0,9.47,1.45,17.48-3.49,0,0-7,21.81-21.61,27.34a46.24,46.24,0,0,0,13.11-2.62s-5.83,23.56-23.79,30.83c0,0,17,.87,26-10.76,0,0-7.77,28.5-21.12,32.57,0,0,9.23,2.91,18.45-4.36,0,0-15.78,31.7-29.38,33.16,0,0,11.17.87,19.66-3.2,0,0-10.44,25.89-22.58,29.38,0,0,8.25,2,19.18-4.07,0,0-13.84,27.92-34.72,32,0,0,16.51,4.07,30.83-6.69,0,0-6.8,25-25.49,30.83h63.27v38.68h12.14v-38.68Z" transform="translate(0 -678.86)"/><path class="cls-4" d="M409.26,1320.37c-31.81-10.12-49.45-37.46-49.45-37.46,13.23,6.13,29.61,3.79,29.61,3.79-32.44-9.93-41.58-26.27-41.58-26.27,13.86,3.8,19.84,2.92,19.84,2.92a52.21,52.21,0,0,1-22.68-28c15.43,5.55,22.68,2.92,22.68,2.92a65.84,65.84,0,0,1-33.7-28.32c17.32,9,29.92,9,29.92,9-27.72-11.68-36.22-37.66-36.22-37.66,13.86,8.47,29,6.42,29,6.42-16.38-7.88-29.29-34.16-29.29-34.16,13.23,7.59,35.28,7.88,35.28,7.88-30.87-9.34-43.47-38.83-43.47-38.83,10.39,4.09,23,3.5,23,3.5-25.51-12.85-37.17-33.86-37.17-33.86,14.17,6.13,32.13,6.71,32.13,6.71-32.76-13.72-39.37-33-39.37-33,11.34,4.38,14.17,2.34,14.17,2.34-21.1-9.34-40.78-47.71-40.78-47.71s-11.92,52.18-52.24,57.63c0,0,16.38,1.95,30.24-4.67,0,0-12.18,29.19-37.38,36.59,0,0,12.6-.39,22.68-3.5,0,0-10.08,31.53-41.16,41.26,0,0,29.4,1.17,44.94-14.4,0,0-13.44,38.15-36.54,43.6a45.58,45.58,0,0,0,31.92-5.84s-27.3,42.43-50.82,44.37c0,0,19.32,1.17,34-4.28,0,0-18.06,34.64-39.06,39.31,0,0,14.28,2.72,33.18-5.45,0,0-23.94,37.37-60.06,42.82,0,0,28.56,5.45,53.34-9,0,0-11.76,33.48-44.1,41.26H269.57v51.77h21v-51.77Z" transform="translate(0 -678.86)"/><path class="cls-4" d="M749.15,1272.74c-18.39-7.56-28.59-28-28.59-28,7.65,4.58,17.12,2.84,17.12,2.84-18.75-7.42-24-19.63-24-19.63,8,2.84,11.47,2.18,11.47,2.18-10.38-8.07-13.11-20.94-13.11-20.94,8.92,4.14,13.11,2.18,13.11,2.18-13.66-6.54-19.48-21.16-19.48-21.16,10,6.76,17.3,6.76,17.3,6.76-16-8.73-20.94-28.14-20.94-28.14a22.81,22.81,0,0,0,16.75,4.8c-9.47-5.89-16.93-25.52-16.93-25.52,7.65,5.67,20.39,5.89,20.39,5.89-17.84-7-25.13-29-25.13-29,6,3.05,13.29,2.62,13.29,2.62-14.75-9.6-21.49-25.3-21.49-25.3,8.19,4.58,18.57,5,18.57,5-18.94-10.25-22.76-24.65-22.76-24.65,6.55,3.27,8.19,1.75,8.19,1.75-12.2-7-23.58-35.65-23.58-35.65s-6.89,39-30.2,43.06c0,0,9.47,1.45,17.48-3.49,0,0-7,21.81-21.61,27.34a46.22,46.22,0,0,0,13.11-2.62s-5.83,23.56-23.79,30.83c0,0,17,.87,26-10.76,0,0-7.77,28.5-21.12,32.57,0,0,9.23,2.91,18.45-4.36,0,0-15.78,31.7-29.38,33.16,0,0,11.17.87,19.66-3.2,0,0-10.44,25.88-22.58,29.38,0,0,8.25,2,19.18-4.07,0,0-13.84,27.92-34.72,32,0,0,16.51,4.07,30.83-6.69,0,0-6.8,25-25.49,30.83H668.4v38.68h12.14v-38.68Z" transform="translate(0 -678.86)"/><path class="cls-4" d="M948.2,1271.78c-18.39-7.56-28.59-28-28.59-28,7.65,4.58,17.12,2.84,17.12,2.84-18.75-7.42-24-19.63-24-19.63,8,2.84,11.47,2.18,11.47,2.18-10.38-8.07-13.11-20.94-13.11-20.94,8.92,4.14,13.11,2.18,13.11,2.18-13.66-6.54-19.48-21.16-19.48-21.16,10,6.76,17.3,6.76,17.3,6.76-16-8.73-20.94-28.14-20.94-28.14a22.81,22.81,0,0,0,16.75,4.8c-9.47-5.89-16.93-25.52-16.93-25.52,7.65,5.67,20.39,5.89,20.39,5.89-17.84-7-25.13-29-25.13-29,6,3.05,13.29,2.62,13.29,2.62-14.75-9.6-21.49-25.3-21.49-25.3,8.19,4.58,18.57,5,18.57,5-18.94-10.25-22.76-24.65-22.76-24.65,6.55,3.27,8.19,1.75,8.19,1.75-12.2-7-23.58-35.65-23.58-35.65s-6.89,39-30.2,43.06c0,0,9.47,1.45,17.48-3.49,0,0-7,21.81-21.61,27.34a46.24,46.24,0,0,0,13.11-2.62s-5.83,23.56-23.79,30.83c0,0,17,.87,26-10.76,0,0-7.77,28.5-21.12,32.57,0,0,9.23,2.91,18.45-4.36,0,0-15.78,31.7-29.38,33.16,0,0,11.17.87,19.66-3.2,0,0-10.44,25.89-22.58,29.38,0,0,8.25,2,19.18-4.07,0,0-13.84,27.92-34.72,32,0,0,16.51,4.07,30.83-6.69,0,0-6.8,25-25.49,30.83h63.27v38.68h12.14v-38.68Z" transform="translate(0 -678.86)"/><path class="cls-4" d="M1164.22,1233.76c-18.39-7.56-28.59-28-28.59-28,7.65,4.58,17.12,2.84,17.12,2.84-18.75-7.42-24-19.63-24-19.63,8,2.84,11.47,2.18,11.47,2.18-10.38-8.07-13.11-20.94-13.11-20.94,8.92,4.14,13.11,2.18,13.11,2.18-13.66-6.54-19.48-21.16-19.48-21.16,10,6.76,17.3,6.76,17.3,6.76-16-8.73-20.94-28.14-20.94-28.14a22.81,22.81,0,0,0,16.75,4.8c-9.47-5.89-16.93-25.52-16.93-25.52,7.65,5.67,20.39,5.89,20.39,5.89-17.84-7-25.13-29-25.13-29,6,3.05,13.29,2.62,13.29,2.62-14.75-9.6-21.49-25.3-21.49-25.3,8.19,4.58,18.57,5,18.57,5-18.94-10.25-22.76-24.65-22.76-24.65,6.56,3.27,8.19,1.75,8.19,1.75-12.2-7-23.58-35.65-23.58-35.65s-6.89,39-30.2,43.06c0,0,9.47,1.45,17.48-3.49,0,0-7,21.81-21.61,27.34a46.23,46.23,0,0,0,13.11-2.62s-5.83,23.56-23.79,30.83c0,0,17,.87,26-10.76,0,0-7.77,28.5-21.12,32.57,0,0,9.23,2.91,18.45-4.36,0,0-15.78,31.7-29.38,33.16,0,0,11.17.87,19.66-3.2,0,0-10.44,25.89-22.58,29.38,0,0,8.25,2,19.18-4.07,0,0-13.84,27.92-34.72,32,0,0,16.51,4.07,30.83-6.69,0,0-6.8,25-25.49,30.83h63.27v38.68h12.14v-38.68Z" transform="translate(0 -678.86)"/><path class="cls-4" d="M1382.63,1289c-18.39-7.56-28.59-28-28.59-28,7.65,4.58,17.12,2.84,17.12,2.84-18.75-7.42-24-19.63-24-19.63,8,2.84,11.47,2.18,11.47,2.18-10.38-8.07-13.11-20.94-13.11-20.94,8.92,4.14,13.11,2.18,13.11,2.18-13.66-6.54-19.48-21.16-19.48-21.16,10,6.76,17.3,6.76,17.3,6.76-16-8.73-20.94-28.14-20.94-28.14a22.81,22.81,0,0,0,16.75,4.8c-9.47-5.89-16.93-25.52-16.93-25.52,7.65,5.67,20.39,5.89,20.39,5.89-17.84-7-25.13-29-25.13-29,6,3.05,13.29,2.62,13.29,2.62-14.75-9.6-21.49-25.3-21.49-25.3,8.19,4.58,18.57,5,18.57,5-18.94-10.25-22.76-24.65-22.76-24.65,6.55,3.27,8.19,1.75,8.19,1.75-12.2-7-23.58-35.65-23.58-35.65s-6.89,39-30.2,43.06c0,0,9.47,1.45,17.48-3.49,0,0-7,21.81-21.61,27.34a46.22,46.22,0,0,0,13.11-2.62s-5.83,23.56-23.79,30.83c0,0,17,.87,26-10.76,0,0-7.77,28.5-21.12,32.57,0,0,9.23,2.91,18.45-4.36,0,0-15.78,31.7-29.38,33.16,0,0,11.17.87,19.66-3.2,0,0-10.44,25.88-22.58,29.38,0,0,8.25,2,19.18-4.07,0,0-13.84,27.92-34.72,32,0,0,16.51,4.07,30.83-6.69,0,0-6.8,25-25.49,30.83h63.27v38.68H1314V1289Z" transform="translate(0 -678.86)"/><path class="cls-4" d="M1520.85,1271.93c-18.39-7.56-28.59-28-28.59-28,7.65,4.58,17.12,2.84,17.12,2.84-18.75-7.42-24-19.63-24-19.63,8,2.84,11.47,2.18,11.47,2.18-10.38-8.07-13.11-20.94-13.11-20.94,8.92,4.14,13.11,2.18,13.11,2.18-13.66-6.54-19.48-21.16-19.48-21.16,10,6.76,17.3,6.76,17.3,6.76-16-8.73-20.94-28.14-20.94-28.14a22.81,22.81,0,0,0,16.75,4.8c-9.47-5.89-16.93-25.52-16.93-25.52,7.65,5.67,20.39,5.89,20.39,5.89-17.84-7-25.13-29-25.13-29,6,3.05,13.29,2.62,13.29,2.62-14.75-9.6-21.49-25.3-21.49-25.3,8.19,4.58,18.57,5,18.57,5-18.94-10.25-22.76-24.65-22.76-24.65,6.55,3.27,8.19,1.75,8.19,1.75-12.2-7-23.58-35.65-23.58-35.65s-6.89,39-30.2,43.06c0,0,9.47,1.45,17.48-3.49,0,0-7,21.81-21.61,27.34a46.22,46.22,0,0,0,13.11-2.62s-5.83,23.56-23.79,30.83c0,0,17,.87,26-10.76,0,0-7.77,28.5-21.12,32.57,0,0,9.23,2.91,18.45-4.36,0,0-15.78,31.7-29.38,33.16,0,0,11.17.87,19.66-3.2,0,0-10.44,25.88-22.58,29.38,0,0,8.25,2,19.18-4.07,0,0-13.84,27.92-34.72,32,0,0,16.51,4.07,30.83-6.69,0,0-6.8,25-25.49,30.83h63.27v38.68h12.14v-38.68Z" transform="translate(0 -678.86)"/><path class="cls-4" d="M1429.48,1263.5c-18.39-7.56-28.59-28-28.59-28,7.65,4.58,17.12,2.84,17.12,2.84-18.75-7.42-24-19.63-24-19.63,8,2.84,11.47,2.18,11.47,2.18-10.38-8.07-13.11-20.94-13.11-20.94,8.92,4.14,13.11,2.18,13.11,2.18C1391.79,1195.59,1386,1181,1386,1181c10,6.76,17.3,6.76,17.3,6.76-16-8.73-20.94-28.14-20.94-28.14a22.81,22.81,0,0,0,16.75,4.8c-9.47-5.89-16.93-25.52-16.93-25.52,7.65,5.67,20.39,5.89,20.39,5.89-17.84-7-25.13-29-25.13-29,6,3.05,13.29,2.62,13.29,2.62-14.75-9.6-21.49-25.3-21.49-25.3,8.19,4.58,18.57,5,18.57,5-18.94-10.25-22.76-24.65-22.76-24.65,6.55,3.27,8.19,1.75,8.19,1.75-12.2-7-23.58-35.65-23.58-35.65s-6.89,39-30.2,43.06c0,0,9.47,1.45,17.48-3.49,0,0-7,21.81-21.61,27.34a46.22,46.22,0,0,0,13.11-2.62s-5.83,23.56-23.79,30.83c0,0,17,.87,26-10.76,0,0-7.77,28.5-21.12,32.57,0,0,9.23,2.91,18.45-4.36,0,0-15.78,31.7-29.38,33.16,0,0,11.17.87,19.66-3.2,0,0-10.44,25.88-22.58,29.38,0,0,8.25,2,19.18-4.07,0,0-13.84,27.92-34.72,32,0,0,16.51,4.07,30.83-6.69,0,0-6.8,25-25.49,30.83h63.27v38.68h12.14V1263.5Z" transform="translate(0 -678.86)"/><path class="cls-4" d="M1341,1332.6c-18.39-7.56-28.59-28-28.59-28,7.65,4.58,17.12,2.84,17.12,2.84-18.75-7.42-24-19.63-24-19.63,8,2.84,11.47,2.18,11.47,2.18-10.38-8.07-13.11-20.94-13.11-20.94,8.92,4.14,13.11,2.18,13.11,2.18-13.66-6.54-19.48-21.16-19.48-21.16,10,6.76,17.3,6.76,17.3,6.76-16-8.73-20.94-28.14-20.94-28.14a22.81,22.81,0,0,0,16.75,4.8c-9.47-5.89-16.93-25.52-16.93-25.52,7.65,5.67,20.39,5.89,20.39,5.89-17.84-7-25.13-29-25.13-29,6,3.05,13.29,2.62,13.29,2.62-14.75-9.6-21.49-25.3-21.49-25.3,8.19,4.58,18.57,5,18.57,5-18.94-10.25-22.76-24.65-22.76-24.65,6.55,3.27,8.19,1.75,8.19,1.75-12.2-7-23.58-35.65-23.58-35.65s-6.89,39-30.2,43.06c0,0,9.47,1.45,17.48-3.49,0,0-7,21.81-21.61,27.34a46.22,46.22,0,0,0,13.11-2.62s-5.83,23.56-23.79,30.83c0,0,17,.87,26-10.76,0,0-7.77,28.5-21.12,32.57,0,0,9.23,2.91,18.45-4.36,0,0-15.78,31.7-29.38,33.16,0,0,11.17.87,19.66-3.2,0,0-10.44,25.88-22.58,29.38,0,0,8.25,2,19.18-4.07,0,0-13.84,27.92-34.72,32,0,0,16.51,4.07,30.83-6.69,0,0-6.8,25-25.49,30.83h63.27v38.68h12.14V1332.6Z" transform="translate(0 -678.86)"/><path class="cls-4" d="M1463.43,1305.78c-18.39-7.56-28.59-28-28.59-28,7.65,4.58,17.12,2.84,17.12,2.84-18.75-7.42-24-19.63-24-19.63,8,2.84,11.47,2.18,11.47,2.18-10.38-8.07-13.11-20.94-13.11-20.94,8.92,4.14,13.11,2.18,13.11,2.18-13.66-6.54-19.48-21.16-19.48-21.16,10,6.76,17.3,6.76,17.3,6.76-16-8.73-20.94-28.14-20.94-28.14a22.81,22.81,0,0,0,16.75,4.8c-9.47-5.89-16.93-25.52-16.93-25.52,7.65,5.67,20.39,5.89,20.39,5.89-17.84-7-25.13-29-25.13-29,6,3.05,13.29,2.62,13.29,2.62-14.75-9.6-21.49-25.3-21.49-25.3,8.19,4.58,18.57,5,18.57,5-18.94-10.25-22.76-24.65-22.76-24.65,6.55,3.27,8.19,1.75,8.19,1.75-12.2-7-23.58-35.65-23.58-35.65s-6.89,39-30.2,43.06c0,0,9.47,1.45,17.48-3.49,0,0-7,21.81-21.61,27.34a46.24,46.24,0,0,0,13.11-2.62s-5.83,23.56-23.79,30.83c0,0,17,.87,26-10.76,0,0-7.77,28.5-21.12,32.57,0,0,9.23,2.91,18.45-4.36,0,0-15.78,31.7-29.38,33.16,0,0,11.17.87,19.66-3.2,0,0-10.44,25.89-22.58,29.38,0,0,8.25,2,19.18-4.07,0,0-13.84,27.92-34.72,32,0,0,16.51,4.07,30.83-6.69,0,0-6.8,25-25.49,30.83h63.27v38.68h12.14v-38.68Z" transform="translate(0 -678.86)"/><path class="cls-4" d="M1589.36,1313.94c-18.39-7.56-28.59-28-28.59-28,7.65,4.58,17.12,2.84,17.12,2.84-18.75-7.42-24-19.63-24-19.63,8,2.84,11.47,2.18,11.47,2.18-10.38-8.07-13.11-20.94-13.11-20.94,8.92,4.14,13.11,2.18,13.11,2.18-13.66-6.54-19.48-21.16-19.48-21.16,10,6.76,17.3,6.76,17.3,6.76-16-8.73-20.94-28.14-20.94-28.14a22.81,22.81,0,0,0,16.75,4.8c-9.47-5.89-16.93-25.52-16.93-25.52,7.65,5.67,20.39,5.89,20.39,5.89-17.84-7-25.13-29-25.13-29,6,3.05,13.29,2.62,13.29,2.62-14.75-9.6-21.49-25.3-21.49-25.3,8.19,4.58,18.57,5,18.57,5-18.94-10.25-22.76-24.65-22.76-24.65,6.55,3.27,8.19,1.75,8.19,1.75-12.2-7-23.58-35.65-23.58-35.65s-6.89,39-30.2,43.06c0,0,9.47,1.45,17.48-3.49,0,0-7,21.81-21.61,27.34a46.22,46.22,0,0,0,13.11-2.62s-5.83,23.56-23.79,30.83c0,0,17,.87,26-10.76,0,0-7.77,28.5-21.12,32.57,0,0,9.23,2.91,18.45-4.36,0,0-15.78,31.7-29.38,33.16,0,0,11.17.87,19.66-3.2,0,0-10.44,25.89-22.58,29.38,0,0,8.25,2,19.18-4.07,0,0-13.84,27.92-34.72,32,0,0,16.51,4.07,30.83-6.69,0,0-6.8,25-25.49,30.83h63.27v38.68h12.14v-38.68Z" transform="translate(0 -678.86)"/><path class="cls-4" d="M1559.19,1352c-18.39-7.56-28.59-28-28.59-28,7.65,4.58,17.12,2.84,17.12,2.84-18.75-7.42-24-19.63-24-19.63,8,2.84,11.47,2.18,11.47,2.18-10.38-8.07-13.11-20.94-13.11-20.94,8.92,4.14,13.11,2.18,13.11,2.18-13.66-6.54-19.48-21.16-19.48-21.16,10,6.76,17.3,6.76,17.3,6.76-16-8.73-20.94-28.14-20.94-28.14a22.81,22.81,0,0,0,16.75,4.8c-9.47-5.89-16.93-25.52-16.93-25.52,7.65,5.67,20.39,5.89,20.39,5.89-17.84-7-25.13-29-25.13-29,6,3.05,13.29,2.62,13.29,2.62-14.75-9.6-21.49-25.3-21.49-25.3,8.19,4.58,18.57,5,18.57,5-18.94-10.25-22.76-24.65-22.76-24.65,6.55,3.27,8.19,1.75,8.19,1.75-12.2-7-23.58-35.65-23.58-35.65s-6.89,39-30.2,43.06c0,0,9.47,1.45,17.48-3.49,0,0-7,21.81-21.61,27.34a46.23,46.23,0,0,0,13.11-2.62s-5.83,23.56-23.79,30.83c0,0,17,.87,26-10.76,0,0-7.77,28.5-21.12,32.57,0,0,9.23,2.91,18.45-4.36,0,0-15.78,31.7-29.38,33.16,0,0,11.17.87,19.66-3.2,0,0-10.44,25.89-22.58,29.38,0,0,8.25,2,19.18-4.07,0,0-13.84,27.92-34.72,32,0,0,16.51,4.07,30.83-6.69,0,0-6.8,25-25.49,30.83h63.27v38.68h12.14V1352Z" transform="translate(0 -678.86)"/><path class="cls-4" d="M896.82,1293.52c-18.39-7.56-28.59-28-28.59-28,7.65,4.58,17.12,2.84,17.12,2.84-18.75-7.42-24-19.63-24-19.63,8,2.84,11.47,2.18,11.47,2.18-10.38-8.07-13.11-20.94-13.11-20.94,8.92,4.14,13.11,2.18,13.11,2.18-13.66-6.54-19.48-21.16-19.48-21.16,10,6.76,17.3,6.76,17.3,6.76-16-8.73-20.94-28.14-20.94-28.14a22.81,22.81,0,0,0,16.75,4.8c-9.47-5.89-16.93-25.52-16.93-25.52,7.65,5.67,20.39,5.89,20.39,5.89-17.84-7-25.13-29-25.13-29,6,3.05,13.29,2.62,13.29,2.62-14.75-9.6-21.49-25.3-21.49-25.3,8.19,4.58,18.57,5,18.57,5-18.94-10.25-22.76-24.65-22.76-24.65,6.56,3.27,8.19,1.75,8.19,1.75-12.2-7-23.58-35.65-23.58-35.65s-6.89,39-30.2,43.06c0,0,9.47,1.45,17.48-3.49,0,0-7,21.81-21.61,27.34a46.24,46.24,0,0,0,13.11-2.62s-5.83,23.56-23.79,30.83c0,0,17,.87,26-10.76,0,0-7.77,28.5-21.12,32.57,0,0,9.23,2.91,18.45-4.36,0,0-15.78,31.7-29.38,33.16,0,0,11.17.87,19.66-3.2,0,0-10.44,25.88-22.58,29.38,0,0,8.25,2,19.18-4.07,0,0-13.84,27.92-34.72,32,0,0,16.51,4.07,30.83-6.69,0,0-6.8,25-25.49,30.83h63.27v38.68h12.14v-38.68Z" transform="translate(0 -678.86)"/><path class="cls-4" d="M1734,1250c-18.39-7.56-28.59-28-28.59-28,7.65,4.58,17.12,2.84,17.12,2.84-18.75-7.42-24-19.63-24-19.63,8,2.84,11.47,2.18,11.47,2.18-10.38-8.07-13.11-20.94-13.11-20.94,8.92,4.14,13.11,2.18,13.11,2.18-13.66-6.54-19.48-21.16-19.48-21.16,10,6.76,17.3,6.76,17.3,6.76-16-8.73-20.94-28.14-20.94-28.14a22.81,22.81,0,0,0,16.75,4.8c-9.47-5.89-16.93-25.52-16.93-25.52,7.65,5.67,20.39,5.89,20.39,5.89-17.84-7-25.13-29-25.13-29,6,3.05,13.29,2.62,13.29,2.62-14.75-9.6-21.49-25.3-21.49-25.3,8.19,4.58,18.57,5,18.57,5-18.94-10.25-22.76-24.65-22.76-24.65,6.56,3.27,8.19,1.75,8.19,1.75-12.2-7-23.58-35.65-23.58-35.65s-6.89,39-30.2,43.06c0,0,9.47,1.45,17.48-3.49,0,0-7,21.81-21.61,27.34a46.23,46.23,0,0,0,13.11-2.62s-5.83,23.56-23.79,30.83c0,0,17,.87,26-10.76,0,0-7.77,28.5-21.12,32.57,0,0,9.23,2.91,18.45-4.36,0,0-15.78,31.7-29.38,33.16,0,0,11.17.87,19.66-3.2,0,0-10.44,25.89-22.58,29.38,0,0,8.25,2,19.18-4.07,0,0-13.84,27.92-34.72,32,0,0,16.51,4.07,30.83-6.69,0,0-6.8,25-25.49,30.83h63.27v38.68h12.14V1250Z" transform="translate(0 -678.86)"/><path class="cls-4" d="M1226.5,1284.21c-18.39-7.56-28.59-28-28.59-28,7.65,4.58,17.12,2.84,17.12,2.84-18.75-7.42-24-19.63-24-19.63,8,2.84,11.47,2.18,11.47,2.18-10.38-8.07-13.11-20.94-13.11-20.94,8.92,4.14,13.11,2.18,13.11,2.18-13.66-6.54-19.48-21.16-19.48-21.16,10,6.76,17.3,6.76,17.3,6.76-16-8.73-20.94-28.14-20.94-28.14a22.81,22.81,0,0,0,16.75,4.8c-9.47-5.89-16.93-25.52-16.93-25.52,7.65,5.67,20.39,5.89,20.39,5.89-17.84-7-25.13-29-25.13-29,6,3.05,13.29,2.62,13.29,2.62-14.75-9.6-21.49-25.3-21.49-25.3,8.19,4.58,18.57,5,18.57,5-18.94-10.25-22.76-24.65-22.76-24.65,6.55,3.27,8.19,1.75,8.19,1.75-12.2-7-23.58-35.65-23.58-35.65s-6.89,39-30.2,43.06c0,0,9.47,1.45,17.48-3.49,0,0-7,21.81-21.61,27.34a46.24,46.24,0,0,0,13.11-2.62s-5.83,23.56-23.79,30.83c0,0,17,.87,26-10.76,0,0-7.77,28.5-21.12,32.57,0,0,9.23,2.91,18.45-4.36,0,0-15.78,31.7-29.38,33.16,0,0,11.17.87,19.66-3.2,0,0-10.44,25.88-22.58,29.38,0,0,8.25,2,19.18-4.07,0,0-13.84,27.92-34.72,32,0,0,16.51,4.07,30.83-6.69,0,0-6.8,25-25.49,30.83h63.27v38.68h12.14v-38.68Z" transform="translate(0 -678.86)"/><path class="cls-4" d="M1126.33,1313.94c-18.39-7.56-28.59-28-28.59-28,7.65,4.58,17.12,2.84,17.12,2.84-18.75-7.42-24-19.63-24-19.63,8,2.84,11.47,2.18,11.47,2.18-10.38-8.07-13.11-20.94-13.11-20.94,8.92,4.14,13.11,2.18,13.11,2.18-13.66-6.54-19.48-21.16-19.48-21.16,10,6.76,17.3,6.76,17.3,6.76-16-8.73-20.94-28.14-20.94-28.14a22.81,22.81,0,0,0,16.75,4.8c-9.47-5.89-16.93-25.52-16.93-25.52,7.65,5.67,20.39,5.89,20.39,5.89-17.84-7-25.13-29-25.13-29,6,3.05,13.29,2.62,13.29,2.62-14.75-9.6-21.49-25.3-21.49-25.3,8.19,4.58,18.57,5,18.57,5-18.94-10.25-22.76-24.65-22.76-24.65,6.55,3.27,8.19,1.75,8.19,1.75-12.2-7-23.58-35.65-23.58-35.65s-6.89,39-30.2,43.06c0,0,9.47,1.45,17.48-3.49,0,0-7,21.81-21.61,27.34a46.22,46.22,0,0,0,13.11-2.62s-5.83,23.56-23.79,30.83c0,0,17,.87,26-10.76,0,0-7.77,28.5-21.12,32.57,0,0,9.23,2.91,18.45-4.36,0,0-15.78,31.7-29.38,33.16,0,0,11.17.87,19.66-3.2,0,0-10.44,25.89-22.58,29.38,0,0,8.25,2,19.18-4.07,0,0-13.84,27.92-34.72,32,0,0,16.51,4.07,30.83-6.69,0,0-6.8,25-25.49,30.83h63.27v38.68h12.14v-38.68Z" transform="translate(0 -678.86)"/><path class="cls-4" d="M908.77,1365.09c-18.39-7.56-28.59-28-28.59-28,7.65,4.58,17.12,2.84,17.12,2.84-18.75-7.42-24-19.63-24-19.63,8,2.84,11.47,2.18,11.47,2.18-10.38-8.07-13.11-20.94-13.11-20.94,8.92,4.14,13.11,2.18,13.11,2.18-13.66-6.54-19.48-21.16-19.48-21.16,10,6.76,17.3,6.76,17.3,6.76-16-8.73-20.94-28.14-20.94-28.14a22.81,22.81,0,0,0,16.75,4.8c-9.47-5.89-16.93-25.52-16.93-25.52,7.65,5.67,20.39,5.89,20.39,5.89-17.84-7-25.13-29-25.13-29,6,3.05,13.29,2.62,13.29,2.62-14.75-9.6-21.49-25.3-21.49-25.3,8.19,4.58,18.57,5,18.57,5-18.94-10.25-22.76-24.65-22.76-24.65,6.56,3.27,8.19,1.75,8.19,1.75-12.2-7-23.58-35.65-23.58-35.65s-6.89,39-30.2,43.06c0,0,9.47,1.45,17.48-3.49,0,0-7,21.81-21.61,27.34a46.24,46.24,0,0,0,13.11-2.62s-5.83,23.56-23.79,30.83c0,0,17,.87,26-10.76,0,0-7.77,28.5-21.12,32.57,0,0,9.23,2.91,18.45-4.36,0,0-15.78,31.7-29.38,33.16,0,0,11.17.87,19.66-3.2,0,0-10.44,25.88-22.58,29.38,0,0,8.25,2,19.18-4.07,0,0-13.84,27.92-34.72,32,0,0,16.51,4.07,30.83-6.69,0,0-6.8,25-25.49,30.83H828v38.68h12.14v-38.68Z" transform="translate(0 -678.86)"/><path class="cls-4" d="M165.79,1202.18c11.11,5.15,24.87,3.19,24.87,3.19-27.26-8.34-34.93-22.07-34.93-22.07,11.64,3.19,16.67,2.45,16.67,2.45a43.85,43.85,0,0,1-19.05-23.54c13,4.66,19.05,2.45,19.05,2.45a55.31,55.31,0,0,1-28.31-23.78c14.55,7.6,25.14,7.6,25.14,7.6-23.29-9.81-30.43-31.63-30.43-31.63a40.91,40.91,0,0,0,24.34,5.39c-13.76-6.62-24.61-28.69-24.61-28.69,11.11,6.37,29.64,6.62,29.64,6.62-25.93-7.85-36.52-32.61-36.52-32.61,8.73,3.43,19.32,2.94,19.32,2.94a78.27,78.27,0,0,1-31.22-28.44c11.91,5.15,27,5.64,27,5.64-27.52-11.52-33.08-27.71-33.08-27.71,9.53,3.68,11.91,2,11.91,2-17.73-7.85-34.26-40.07-34.26-40.07s-10,43.83-43.89,48.4c0,0,13.76,1.63,25.4-3.92,0,0-10.23,24.52-31.4,30.73,0,0,10.58-.33,19.05-2.94,0,0-8.47,26.48-34.58,34.65,0,0,24.7,1,37.75-12.1,0,0-11.29,32-30.7,36.61a38.31,38.31,0,0,0,26.81-4.9s-22.93,35.63-42.69,37.27c0,0,16.23,1,28.58-3.6,0,0-15.17,29.09-32.81,33,0,0,12,2.29,27.87-4.58,0,0-15.89,24.76-40.71,33.5v3.3c8.91.16,22.56-1.08,35.07-8.35,0,0-9.4,26.73-35.07,34.12v.54H90v43.48h17.64v-43.48h99.72C180.6,1225.15,165.79,1202.18,165.79,1202.18Z" transform="translate(0 -678.86)"/><path class="cls-4" d="M1921.74,1146.52a23.43,23.43,0,0,1-2.88-3.74c1,.28,2,.52,2.88.74v-11.3a39.1,39.1,0,0,1-5.26-10.52c1.91.69,3.65,1.21,5.26,1.63v-6.73a53.63,53.63,0,0,1-14.53-16.23,73.92,73.92,0,0,0,14.53,5.79V1102a57.06,57.06,0,0,1-19.82-25.67,40.27,40.27,0,0,0,19.82,5.56v-3c-11.54-8.54-20.08-25.91-20.08-25.91,5.9,3.38,13.89,5,20.08,5.85v-3.18c-19-10.07-27-28.66-27-28.66,8.73,3.43,19.32,2.94,19.32,2.94a78.26,78.26,0,0,1-31.22-28.44c11.91,5.15,27,5.64,27,5.64-27.52-11.52-33.08-27.71-33.08-27.71,9.53,3.68,11.91,2,11.91,2-17.73-7.85-34.26-40.07-34.26-40.07s-10,43.83-43.89,48.4c0,0,13.76,1.63,25.4-3.92,0,0-10.23,24.52-31.4,30.73,0,0,10.58-.33,19.05-2.94,0,0-8.47,26.48-34.58,34.65,0,0,24.7,1,37.75-12.1,0,0-11.29,32-30.7,36.61a38.3,38.3,0,0,0,26.81-4.9s-22.93,35.63-42.69,37.27c0,0,16.23,1,28.58-3.6,0,0-15.17,29.09-32.81,33,0,0,12,2.29,27.87-4.58,0,0-20.11,31.38-50.45,36,0,0,24,4.58,44.81-7.52,0,0-9.88,28.11-37,34.65h92v43.48h17.64v-43.48h51Z" transform="translate(0 -678.86)"/><path class="cls-4" d="M185.8,1192.87c21.61,10.81,48.37,6.69,48.37,6.69-53-17.49-67.92-46.31-67.92-46.31,22.64,6.69,32.42,5.15,32.42,5.15-29.33-19-37-49.4-37-49.4,25.21,9.78,37,5.15,37,5.15-38.59-15.44-55.06-49.91-55.06-49.91,28.3,16,48.88,16,48.88,16-45.28-20.58-59.17-66.38-59.17-66.38,22.64,14.92,47.34,11.32,47.34,11.32-26.76-13.89-47.85-60.2-47.85-60.2,21.61,13.38,57.63,13.89,57.63,13.89-50.43-16.47-71-68.44-71-68.44,17,7.2,37.56,6.17,37.56,6.17-41.68-22.64-60.72-59.69-60.72-59.69,23.15,10.81,52.48,11.83,52.48,11.83-53.51-24.18-64.32-58.14-64.32-58.14,18.52,7.72,23.15,4.12,23.15,4.12C73.12,798.21,41,730.59,41,730.59S30.73,778.92,0,809.17v17.08c1.69-.7,3.37-1.46,5-2.32a117.12,117.12,0,0,1-5,10.73V1258.9H38.39v91.25h34.3V1258.9h193.9C214.62,1241.06,185.8,1192.87,185.8,1192.87Z" transform="translate(0 -678.86)"/><path class="cls-4" d="M1921.44,973.19a88.21,88.21,0,0,1-4.54-11.12c1.51,1,3,1.9,4.54,2.74V923.16c-3.24-6-5.06-10-5.06-10,1.61,1,3.31,1.91,5.06,2.77V889.06A134,134,0,0,1,1903,858.65a77.77,77.77,0,0,0,18.43,5V852.41c-28.41-21.65-41.59-47.27-41.59-47.27,14.3,6.67,30.94,9.61,41.59,10.89v-4.41c-44.11-23.54-53.42-52.79-53.42-52.79,18.52,7.72,23.15,4.12,23.15,4.12-34.48-16.47-66.62-84.08-66.62-84.08s-19.48,92-85.34,101.58c0,0,26.76,3.43,49.4-8.23,0,0-19.9,51.45-61.06,64.49,0,0,20.58-.69,37-6.17,0,0-16.47,55.57-67.23,72.72,0,0,48,2.06,73.41-25.38,0,0-22,67.23-59.69,76.84,0,0,26.07,6.86,52.14-10.29,0,0-44.59,74.78-83,78.21,0,0,31.56,2.06,55.57-7.55,0,0-29.5,61.06-63.8,69.29,0,0,23.33,4.8,54.2-9.6,0,0-39.11,65.86-98.11,75.47,0,0,46.65,9.6,87.13-15.78,0,0-19.21,59-72,72.72H1822v91.25h34.3v-91.25h65.17Z" transform="translate(0 -678.86)"/><rect class="cls-4" y="523.91" width="1921.44" height="420.25"/><path class="cls-5" d="M133.52,1841.41v233.19c83.33,26.49,212.9,59.67,373.15,66,275.62,11,324.15-70,587.77-66,264.19,3.95,309.6,86.66,569.76,77.54a1235.65,1235.65,0,0,0,257.36-36.63v-274.1Z" transform="translate(0 -678.86)"/><path class="cls-6" d="M1.12,1841.41v292.35a1396.69,1396.69,0,0,0,179.64,18.89c275.62,11,324.15-70,587.77-66,264.19,3.95,309.6,86.66,569.76,77.54,167-5.85,302.17-45.33,389.86-77.54v-245.2Z" transform="translate(0 -678.86)"/><path class="cls-4" d="M0,1841.41V2059c83.37,26.49,213,59.67,373.35,66,275.76,11,324.32-70,588.09-66,264.33,3.95,309.76,86.66,570.06,77.54,167.1-5.85,302.33-45.33,390.07-77.54V1841.41Z" transform="translate(0 -678.86)"/><rect class="cls-4" y="886.16" width="1921.74" height="396.41"/></g></svg>