<svg xmlns="http://www.w3.org/2000/svg" xmlns:xlink="http://www.w3.org/1999/xlink" viewBox="0 0 1921.44 559.77"><defs><style>.cls-1{fill:url(#linear-gradient);}.cls-2{fill:url(#linear-gradient-2);}.cls-3{fill:url(#linear-gradient-3);}.cls-4{fill:url(#linear-gradient-4);}.cls-5{fill:url(#linear-gradient-5);}.cls-6{fill:url(#linear-gradient-6);}.cls-7{fill:url(#linear-gradient-7);}.cls-8{fill:url(#linear-gradient-8);}</style><linearGradient id="linear-gradient" x1="749.01" y1="669.69" x2="749.01" y2="936.76" gradientUnits="userSpaceOnUse"><stop offset="0" stop-color="#4e5a8f"/><stop offset="0.98" stop-color="#4e71a6"/></linearGradient><linearGradient id="linear-gradient-2" x1="506.28" y1="996.99" x2="327.07" y2="609.23" xlink:href="#linear-gradient"/><linearGradient id="linear-gradient-3" x1="425.5" y1="967.82" x2="-83.8" y2="612.66" xlink:href="#linear-gradient"/><linearGradient id="linear-gradient-4" x1="1024.23" y1="732.97" x2="966.03" y2="1145.39" gradientUnits="userSpaceOnUse"><stop offset="0" stop-color="#434c78"/><stop offset="1" stop-color="#557bbe"/></linearGradient><linearGradient id="linear-gradient-5" x1="1064.14" y1="791.12" x2="1018.82" y2="1124.86" xlink:href="#linear-gradient-4"/><linearGradient id="linear-gradient-6" x1="1389.67" y1="1118.88" x2="606.15" y2="1024.4" gradientUnits="userSpaceOnUse"><stop offset="0" stop-color="#31355e"/><stop offset="1" stop-color="#3c4070"/></linearGradient><linearGradient id="linear-gradient-7" x1="819.99" y1="834.35" x2="721.06" y2="1180.62" xlink:href="#linear-gradient-6"/><linearGradient id="linear-gradient-8" x1="704.67" y1="885.85" x2="740.77" y2="1032.92" xlink:href="#linear-gradient-6"/></defs><title>hills</title><g id="OBJECTS"><path class="cls-1" d="M0,641.71s1054.27-41.27,1498,559.17H0Z" transform="translate(0 -641.11)"/><path class="cls-2" d="M0,641.71s903.76,22.55,1201,559.17H0Z" transform="translate(0 -641.11)"/><path class="cls-3" d="M0,718.8S1101.67,738.21,1464,1200H0Z" transform="translate(0 -641.11)"/><path class="cls-4" d="M0,1165.12S1144.63,745.3,1921.44,824.51v376.37H0Z" transform="translate(0 -641.11)"/><path class="cls-5" d="M1921.44,1200V922.28C1133.77,782.46,387,1067.41,95.79,1200Z" transform="translate(0 -641.11)"/><path class="cls-6" d="M0,1200.88H1738S1373.48,874.33,884.88,808.57c-107.88-14.52-221.81-16.33-339.2.9C383.83,833.22,200.79,896.76,0,918.16Z" transform="translate(0 -641.11)"/><path class="cls-7" d="M0,1200.88H1502.05c-120.76-97.29-404.57-296.71-755-347-103.41-14.84-212.62-16.69-325.15.92-127.54,20-268.8,67.38-421.95,95.78Z" transform="translate(0 -641.11)"/><path class="cls-8" d="M1559.84,1200.88c-143.95-103.54-388.84-248-679.59-289.67-103.41-14.84-212.62-16.69-325.15.92-162.61,25.44-347.51,95.54-550.94,113.93v174.82Z" transform="translate(0 -641.11)"/></g></svg>