<svg xmlns="http://www.w3.org/2000/svg" xmlns:xlink="http://www.w3.org/1999/xlink" viewBox="0 0 1919.45 784.94"><defs><style>.cls-1{isolation:isolate;}.cls-2{fill:url(#Degradado_sin_nombre_26);}.cls-3{fill:url(#Degradado_sin_nombre_26-2);}.cls-4{fill:url(#Degradado_sin_nombre_25);}.cls-5{fill:url(#Degradado_sin_nombre_24);}.cls-6{fill:url(#Degradado_sin_nombre_23);}.cls-10,.cls-12,.cls-13,.cls-14,.cls-7,.cls-8,.cls-9{opacity:0.4;}.cls-10,.cls-12,.cls-13,.cls-15,.cls-16,.cls-7,.cls-8,.cls-9{mix-blend-mode:soft-light;}.cls-7{fill:url(#Degradado_sin_nombre_151);}.cls-8{fill:url(#Degradado_sin_nombre_151-2);}.cls-9{fill:url(#Degradado_sin_nombre_151-3);}.cls-10{fill:url(#Degradado_sin_nombre_151-4);}.cls-11{fill:url(#Degradado_sin_nombre_19);}.cls-12{fill:url(#Degradado_sin_nombre_151-5);}.cls-13{fill:url(#Degradado_sin_nombre_336);}.cls-14,.cls-15,.cls-16{fill:#fff;}.cls-15{opacity:0.35;}.cls-16{opacity:0.5;}</style><linearGradient id="Degradado_sin_nombre_26" x1="341.06" y1="1541.29" x2="1586.21" y2="296.15" gradientUnits="userSpaceOnUse"><stop offset="0.34" stop-color="#dde1ff"/><stop offset="1" stop-color="#e5bfdb"/></linearGradient><linearGradient id="Degradado_sin_nombre_26-2" x1="660.9" y1="285.55" x2="1223.29" y2="285.55" xlink:href="#Degradado_sin_nombre_26"/><linearGradient id="Degradado_sin_nombre_25" y1="435.48" x2="1919.28" y2="435.48" gradientUnits="userSpaceOnUse"><stop offset="0" stop-color="#b4cdf4"/><stop offset="1" stop-color="#c5def9"/></linearGradient><linearGradient id="Degradado_sin_nombre_24" x1="959.64" y1="784.94" x2="959.64" gradientUnits="userSpaceOnUse"><stop offset="0.48" stop-color="#a59cd7"/><stop offset="0.96" stop-color="#7281bb"/></linearGradient><linearGradient id="Degradado_sin_nombre_23" x1="339.24" y1="1124.18" x2="1642.49" y2="-179.08" gradientUnits="userSpaceOnUse"><stop offset="0" stop-color="#798ac8"/><stop offset="1" stop-color="#5264b4"/></linearGradient><linearGradient id="Degradado_sin_nombre_151" x1="53.23" y1="370.58" x2="202.26" y2="221.55" gradientUnits="userSpaceOnUse"><stop offset="0" stop-color="#fff" stop-opacity="0"/><stop offset="1" stop-color="#fff"/></linearGradient><linearGradient id="Degradado_sin_nombre_151-2" x1="419.07" y1="373.32" x2="475.69" y2="316.71" xlink:href="#Degradado_sin_nombre_151"/><linearGradient id="Degradado_sin_nombre_151-3" x1="1384.93" y1="447.64" x2="1570.52" y2="262.05" xlink:href="#Degradado_sin_nombre_151"/><linearGradient id="Degradado_sin_nombre_151-4" x1="1726.5" y1="219.12" x2="1842.79" y2="102.84" xlink:href="#Degradado_sin_nombre_151"/><linearGradient id="Degradado_sin_nombre_19" x1="531.15" y1="476.03" x2="1340.81" y2="476.03" gradientUnits="userSpaceOnUse"><stop offset="0" stop-color="#cfa5cf"/><stop offset="1" stop-color="#c7ccfc"/></linearGradient><linearGradient id="Degradado_sin_nombre_151-5" x1="1514.35" y1="145.33" x2="1739.49" y2="145.33" xlink:href="#Degradado_sin_nombre_151"/><linearGradient id="Degradado_sin_nombre_336" x1="83.67" y1="202.7" x2="280.79" y2="202.7" gradientUnits="userSpaceOnUse"><stop offset="0" stop-color="#fff"/><stop offset="1" stop-color="#fff" stop-opacity="0"/></linearGradient></defs><title>mountains_3</title><g class="cls-1"><g id="OBJECTS"><path class="cls-2" d="M-.17,645.71s263.66-7.18,280-10.47q39.88,1.11,79,4,25.62-9.85,51.4-19.09,12.81-.8,25.56-1.42,20.59,10.67,40.69,22,18.66-6.08,37.39-11.81,33.05,10.7,65.13,22.89,14.45,4.05,28.72,8.38,23.14-5.91,46.35-11.26,25.48,7.2,50.44,15.29Q726,659.85,747.62,656q32.32,8,63.9,17.5,19.48,4,38.73,8.57a1620.16,1620.16,0,0,1,221.21-10.24q29.43-6.35,59.1-11.68,15.28-15.85,30.9-31.53,34.59-13.53,69.85-25.79,30.63,3.52,61.06,8.33,18.14-6.46,36.46-12.56,36.39,2.43,72.67,6.68,11.7-3.67,23.46-7.18,32,8.08,63.61,17.72,24.9-2.31,49.94-3.8,10.24,4.65,20.41,9.48,10.59-2.74,21.23-5.35c16.76,4,339,12.87,339,12.87v571H-.17Z" transform="translate(0.17 -415.12)"/><polygon class="cls-3" points="660.9 386.84 757.38 273.84 791.93 266.95 839.28 225.61 861.3 231.12 883.32 218.72 898.74 195.29 931.77 184.26 985.73 225.61 1011.05 231.12 1024.27 228.36 1030.32 224.23 1040.23 227.67 1047.94 238.22 1058.4 238.22 1083.18 263.5 1101.9 269.01 1130.53 295.89 1223.29 386.84 660.9 386.84"/><polyline class="cls-4" points="1561.75 97.88 1514.35 133.47 1457.47 147.38 1400.6 187.54 1353.2 187.54 1331.87 172.02 1303.43 210.58 1282.1 210.58 1248.93 231.85 1212.41 231.85 1182.57 255.07 1149.39 255.07 1077.71 308.02 995.35 355.91 926.62 373.7 862.64 347.01 819.98 317.35 786.8 269.9 751.25 272.86 727.55 235.79 671.78 278.8 651.72 261 625.65 272.86 597.21 261 571.14 263.97 513.08 217.99 487.01 223.93 466.87 201.68 350.74 206.13 303.34 203.16 285.88 213.54 226.32 187.54 205 167.57 126.79 136.43 59.25 136.43 40.62 109.74 0 86.01 0 784.94 1919.28 784.94"/><polygon class="cls-5" points="981.13 397.43 1077.71 308.02 1123.23 339.15 1212.41 281.76 1277.36 302.52 1374.53 231.85 1412.45 231.85 1438.52 187.54 1514.35 187.54 1561.75 97.88 1592.56 62.28 1647.07 97.88 1739.49 44.49 1782.15 44.49 1803.48 20.76 1836.66 20.76 1862.72 0 1919.28 0 1919.28 784.94 0 784.94 0 86.01 40.62 109.74 59.25 136.43 104.28 145.33 146.93 172.02 168.26 207.61 218.03 213.54 263.06 231.85 341.26 263.97 438.43 272.86 464.5 281.76 531.15 281.76 575.88 314.39 623.28 314.39 721.09 368.84 776.42 388.53 862.64 385.57 981.13 397.43"/><polygon class="cls-6" points="1919.45 97.88 1855.78 115.67 1758.6 174.99 1687.5 174.99 1654.32 187.54 1606.92 246.17 1554.78 246.17 1471.82 314.39 1433.9 340.34 1400.72 340.34 1331.99 382.6 1270.37 382.6 1212.51 426.58 1156.6 447.85 671.84 447.85 587.78 426.58 516.68 376.67 488.24 329.22 400.54 329.22 353.14 302.52 283.41 290.66 253.6 272.86 161.17 272.86 127.98 246.17 97.17 249.14 71.1 231.85 0 222.44 0 784.94 1919.45 784.94 1919.45 97.88"/><polygon class="cls-7" points="0 260.08 94.27 285.55 130.3 278.39 161.15 272.86 253.58 272.86 263.83 302.52 258.32 329.22 130.34 302.52 0 317.35 0 260.08"/><polygon class="cls-8" points="400.51 329.22 431.32 385.57 478.39 376.67 488.19 329.22 400.51 329.22"/><polygon class="cls-9" points="1554.64 246.17 1554.64 302.52 1514.35 322.07 1514.35 376.67 1434.96 426.58 1363.87 426.58 1423.2 385.57 1433.78 340.34 1471.69 314.39 1554.64 246.17"/><polygon class="cls-10" points="1855.62 115.67 1855.62 173.3 1791.63 231.85 1745.37 208.42 1719.93 212.56 1687.35 174.99 1758.45 174.99 1855.62 115.67"/><polygon class="cls-11" points="531.15 456.75 671.78 447.85 713.17 426.58 774.63 426.58 776.42 388.53 734.76 373.7 926.62 373.7 906.02 389.91 886.97 400.58 912.93 418.15 935.98 426.58 1050.17 426.58 1156.5 447.85 1340.81 447.85 1264.33 498.27 1189.68 498.27 1115.03 562.41 994.16 562.41 921.88 578.35 853.16 569.46 790.35 575.39 708.59 545.73 635.13 548.69 573.51 507.17 531.15 456.75"/><polygon class="cls-12" points="1739.49 44.49 1709.34 97.88 1662.71 134.04 1713.58 134.04 1717.82 173.76 1687.35 174.99 1654.17 187.54 1606.78 246.17 1580.32 201.07 1514.35 187.54 1599.12 173.76 1645.75 115.67 1647.07 97.88 1739.49 44.49"/><polygon class="cls-13" points="104.28 145.33 83.67 183.02 121.89 193.96 155.73 246.17 210.84 246.17 280.79 260.08 218.03 213.54 168.26 207.61 146.93 172.02 104.28 145.33"/><polygon class="cls-14" points="811.61 459.45 903.61 454.68 1023.27 459.1 811.61 459.45"/><polygon class="cls-14" points="805.1 480.82 987.48 471.36 1224.69 480.14 805.1 480.82"/><polygon class="cls-14" points="786.28 383.17 817.8 380.79 858.76 382.51 786.28 383.17"/><polygon class="cls-14" points="784 392.89 846.47 388.16 898.39 391.57 784 392.89"/><polygon class="cls-15" points="531.15 456.75 671.78 447.85 891.21 450.94 695.15 467.55 915.59 462.78 594.51 488.24 767.21 520.91 854.11 551.66 921.88 578.35 853.16 569.46 790.35 575.39 708.59 545.73 635.13 548.69 573.51 507.17 531.15 456.75"/><polygon class="cls-16" points="531.15 456.75 891.21 450.94 632.63 465.17 818.51 470.48 594.51 488.24 1038.87 530.07 635.13 548.69 573.51 507.17 557.61 488.24 531.15 456.75"/></g></g></svg>