<svg xmlns="http://www.w3.org/2000/svg" xmlns:xlink="http://www.w3.org/1999/xlink" viewBox="0 0 1921.44 407.34"><defs><style>.cls-1{fill:url(#linear-gradient);}.cls-2{fill:url(#linear-gradient-2);}.cls-3{fill:url(#linear-gradient-3);}.cls-4{fill:url(#linear-gradient-4);}.cls-5{fill:url(#linear-gradient-5);}.cls-6{fill:url(#linear-gradient-6);}.cls-7{fill:url(#linear-gradient-7);}.cls-8{fill:url(#linear-gradient-8);}.cls-9{fill:url(#linear-gradient-9);}.cls-10{fill:url(#linear-gradient-10);}.cls-11{fill:url(#linear-gradient-11);}.cls-12{fill:url(#linear-gradient-12);}.cls-13{fill:url(#linear-gradient-13);}.cls-14{fill:url(#linear-gradient-14);}</style><linearGradient id="linear-gradient" x1="1536.35" y1="574.28" x2="1536.35" y2="670.18" gradientUnits="userSpaceOnUse"><stop offset="0" stop-color="#e6dce3"/><stop offset="1" stop-color="#f2f0f7"/></linearGradient><linearGradient id="linear-gradient-2" x1="474.24" y1="574.28" x2="474.24" y2="670.18" xlink:href="#linear-gradient"/><linearGradient id="linear-gradient-3" x1="782.21" y1="574.28" x2="782.21" y2="670.18" xlink:href="#linear-gradient"/><linearGradient id="linear-gradient-4" x1="1417.18" y1="574.28" x2="1417.18" y2="670.18" xlink:href="#linear-gradient"/><linearGradient id="linear-gradient-5" x1="1265.59" y1="636.18" x2="1265.59" y2="702.01" xlink:href="#linear-gradient"/><linearGradient id="linear-gradient-6" x1="859.72" y1="683.4" x2="793.98" y2="764.31" xlink:href="#linear-gradient"/><linearGradient id="linear-gradient-7" x1="1141.71" y1="563.1" x2="1154.99" y2="792.21" gradientUnits="userSpaceOnUse"><stop offset="0" stop-color="#bddce6"/><stop offset="1" stop-color="#b7cbe1"/></linearGradient><linearGradient id="linear-gradient-8" x1="1070.87" y1="685.19" x2="890.5" y2="781.27" xlink:href="#linear-gradient-7"/><linearGradient id="linear-gradient-9" x1="955.22" y1="973.34" x2="1471.05" y2="720.48" gradientUnits="userSpaceOnUse"><stop offset="0" stop-color="#83aeca"/><stop offset="1" stop-color="#b3e2ea"/></linearGradient><linearGradient id="linear-gradient-10" x1="1360.24" y1="808.78" x2="1498.51" y2="741" xlink:href="#linear-gradient-9"/><linearGradient id="linear-gradient-11" x1="1765.71" y1="672.2" x2="1692.18" y2="877.46" xlink:href="#linear-gradient-7"/><linearGradient id="linear-gradient-12" x1="1648.21" y1="81.94" x2="1648.21" y2="116.9" xlink:href="#linear-gradient"/><linearGradient id="linear-gradient-13" x1="1342.91" y1="1053.73" x2="1725.72" y2="786.66" xlink:href="#linear-gradient-9"/><linearGradient id="linear-gradient-14" x1="1786.28" y1="759.68" x2="1864.49" y2="705.11" xlink:href="#linear-gradient-9"/></defs><title>mountains</title><g id="OBJECTS"><path class="cls-1" d="M1921.44,614.32c-52.92-14.48-86.87-27.7-86.87-27.7-225.89,75.26-683.3,64.24-683.3,64.24L1170,769.29h751.39Z" transform="translate(0 -542.94)"/><path class="cls-2" d="M482.68,542.94c-172,57.31-389,89.91-482.68,102.21V769.29H948.49V650.86C787.2,645.24,482.68,542.94,482.68,542.94Z" transform="translate(0 -542.94)"/><path class="cls-3" d="M284.65,636.62s457.42,11,683.3-64.24c0,0,150.53,58.62,311.82,64.24V755.05H303.44Z" transform="translate(0 -542.94)"/><path class="cls-4" d="M919.62,650.86S1145.28,617.14,1375,591c0,0,378.47,54.24,539.75,59.86V769.29H938.41Z" transform="translate(0 -542.94)"/><path class="cls-5" d="M968,572.38s237.9,150.25,337.35,163.73l257.92-25.29S1136.32,621,968,572.38Z" transform="translate(0 -542.94)"/><path class="cls-6" d="M482.68,542.94l87.66,43.68L541.68,581,630,621.48H600.68L970.86,755.05l356.37-42.54S686.65,585.77,482.68,542.94Z" transform="translate(0 -542.94)"/><path class="cls-7" d="M1921.44,672c-26.25,14.09-60,26.64-101.73,31.93-119.69,15.17-284.89-70.11-284.89-70.11S1499.42,623,1400,656.34s-263,40.82-346.45,12.16S954.93,628,922.38,628s-113-26.2-151.77-36.83c-16-4.38-242.17,57.05-370.28,89.15L381.78,795.84H1921.44Z" transform="translate(0 -542.94)"/><path class="cls-8" d="M1345.5,795.84,1087.27,677.36a261.87,261.87,0,0,1-33.76-8.86C970,639.84,954.93,628,922.38,628s-113-26.2-151.77-36.83a18.74,18.74,0,0,0-5.58-.05c52.06,47.74,169.6,147.42,300.23,204.67Z" transform="translate(0 -542.94)"/><path class="cls-9" d="M323.82,835.36s474.66-45.25,806.51-156.51c0,0,535.32,271.74,784.81,271.44H323.82Z" transform="translate(0 -542.94)"/><path class="cls-10" d="M1130.33,678.84s73.84,104.47,104.19,121.32l-47-11.93s66.07,46,186.87,114.76S1666,901.52,1666,901.52Z" transform="translate(0 -542.94)"/><path class="cls-11" d="M1921.44,796.61l-162-103.19s-107.71-.06-224.59-59.62l49.2,67.48-35.92-7.86L1914.74,921.3l6.69-.87Z" transform="translate(0 -542.94)"/><polygon class="cls-12" points="1921.44 111.82 1374.99 48.05 1494.11 88.66 1485.68 90.34 1735.17 135.01 1921.44 124.93 1921.44 111.82"/><path class="cls-13" d="M1921.44,728.61a391.4,391.4,0,0,0-46.11-10.13c-87.66-13.49-138.23-54.76-138.23-54.76-42.49,13.63-84.53,57.88-157,69.68-160.79,26.18-324,103.08-324,103.08L1241.5,928h679.94Z" transform="translate(0 -542.94)"/><path class="cls-14" d="M1921.44,795.66v-78.1L1737.1,663.72s60.44,85,84,91.34l-42-1.63Z" transform="translate(0 -542.94)"/></g></svg>