<svg xmlns="http://www.w3.org/2000/svg" xmlns:xlink="http://www.w3.org/1999/xlink" viewBox="0 0 1921.44 1880.1"><defs><style>.cls-1{fill:url(#linear-gradient);}.cls-2{fill:url(#linear-gradient-2);}.cls-3,.cls-4,.cls-5{fill:#fff;}.cls-3{opacity:0.51;}.cls-4{opacity:0.33;}.cls-5{opacity:0.58;}</style><linearGradient id="linear-gradient" x1="960.72" y1="509.03" x2="960.72" y2="-4.97" gradientUnits="userSpaceOnUse"><stop offset="0.42" stop-color="#fce3de"/><stop offset="0.69" stop-color="#f9aced"/><stop offset="0.73" stop-color="#eba6e7"/><stop offset="0.79" stop-color="#c695d6"/><stop offset="0.88" stop-color="#8979bb"/><stop offset="0.99" stop-color="#375496"/><stop offset="1" stop-color="#2e5092"/></linearGradient><linearGradient id="linear-gradient-2" x1="2882.16" y1="2657.25" x2="2882.16" y2="2143.24" gradientTransform="translate(-1921.44 -1308.13)" xlink:href="#linear-gradient"/></defs><title>background</title><g id="OBJECTS"><rect class="cls-1" width="1921.44" height="1040.01"/><rect class="cls-2" y="840.08" width="1921.44" height="1040.01" transform="translate(1921.44 2720.18) rotate(180)"/><path class="cls-3" d="M1585.66,323c-214.71,0-284.89,33.91-284.89,33.91s-180.15-4.69-317.54-6.28C1061.9,350.65,1344,323,1344,323Z" transform="translate(0)"/><path class="cls-4" d="M333,418.32c-27.64-1.35-68.5-33.64-68.5-33.64C229.1,383.67,74,377.3,0,374.23v50l242.84-1.9,3.61,9.42,329.27-5.38S360.6,419.67,333,418.32Z" transform="translate(0)"/><path class="cls-5" d="M1921.44,611.8c-161.29,1.45-124.89-20.09-192.89-11.17-73.82,9.69-146.19,6.27-269.23,12.53,0,0,173.47,1.2,223.6,8.05,36.09,4.93,167.67-2.59,238.52-7.19Z" transform="translate(0)"/></g></svg>