<svg xmlns="http://www.w3.org/2000/svg" xmlns:xlink="http://www.w3.org/1999/xlink" viewBox="0 0 1921.74 1273.43"><defs><style>.cls-1{isolation:isolate;}.cls-2{fill:url(#Degradado_sin_nombre_20);}.cls-3,.cls-4,.cls-5,.cls-7{opacity:0.4;}.cls-3,.cls-4,.cls-5{mix-blend-mode:soft-light;}.cls-3{fill:url(#Degradado_sin_nombre_151);}.cls-4{fill:url(#Degradado_sin_nombre_151-2);}.cls-5{fill:url(#Degradado_sin_nombre_151-3);}.cls-6{opacity:0.3;fill:url(#Degradado_sin_nombre_20-2);}.cls-7{fill:url(#Degradado_sin_nombre_20-3);}.cls-8{fill:url(#Degradado_sin_nombre_20-4);}</style><linearGradient id="Degradado_sin_nombre_20" x1="959.82" y1="316.33" x2="959.82" gradientUnits="userSpaceOnUse"><stop offset="0" stop-color="#262a5f"/><stop offset="1" stop-color="#020729"/></linearGradient><linearGradient id="Degradado_sin_nombre_151" x1="1344.96" y1="316.33" x2="1344.96" y2="52.3" gradientUnits="userSpaceOnUse"><stop offset="0" stop-color="#fff" stop-opacity="0"/><stop offset="1" stop-color="#fff"/></linearGradient><linearGradient id="Degradado_sin_nombre_151-2" x1="122.08" y1="316.33" x2="122.08" y2="0" xlink:href="#Degradado_sin_nombre_151"/><linearGradient id="Degradado_sin_nombre_151-3" x1="530.01" y1="255.72" x2="1094.74" y2="255.72" xlink:href="#Degradado_sin_nombre_151"/><linearGradient id="Degradado_sin_nombre_20-2" x1="133.35" y1="1989.44" x2="1921.39" y2="1989.44" xlink:href="#Degradado_sin_nombre_20"/><linearGradient id="Degradado_sin_nombre_20-3" x1="0.95" y1="1995.44" x2="1727.98" y2="1995.44" xlink:href="#Degradado_sin_nombre_20"/><linearGradient id="Degradado_sin_nombre_20-4" x1="960.7" y1="1200" x2="960.7" y2="2112.07" xlink:href="#Degradado_sin_nombre_20"/></defs><title>foreground</title><g class="cls-1"><g id="OBJECTS"><polygon class="cls-2" points="1919.45 10.06 1789.11 0 1651.65 38.22 1535.53 52.3 1450.22 118.67 1362.53 166.94 1284.33 166.94 1143.04 195.1 1094.74 195.1 928.85 237.34 744 205.16 670.54 203.15 620.77 181.02 478.58 130.74 326.91 118.67 243.97 38.22 99.41 0 0.19 0 0.19 316.33 1919.45 316.33 1919.45 10.06"/><polygon class="cls-3" points="1535.53 52.3 1552.66 109.74 1486.96 128.26 1448.81 161.32 1480.6 184.05 1391.58 316.33 1137.25 316.33 1304.68 283.23 1362.53 166.94 1450.22 118.67 1535.53 52.3"/><polygon class="cls-4" points="243.97 38.22 119.89 109.74 151.69 174.99 0.19 316.33 0.19 0 99.41 0 243.97 38.22"/><polygon class="cls-5" points="1094.74 195.1 1010.08 316.33 1038.69 316.33 530.01 316.33 641.29 316.33 788.19 260.5 901.98 265.67 928.85 237.34 1094.74 195.1"/><path class="cls-6" d="M133.35,1833.73v233.19c83.33,26.49,212.9,59.67,373.15,66,275.62,11,324.15-70,587.77-66,264.19,3.95,309.6,86.66,569.76,77.54a1235.65,1235.65,0,0,0,257.36-36.63v-274.1Z" transform="translate(0.17 -883.73)"/><path class="cls-7" d="M1,1833.72v292.35A1396.69,1396.69,0,0,0,180.6,2145c275.62,11,324.15-70,587.77-66,264.19,3.95,309.6,86.66,569.76,77.54,167-5.85,302.17-45.33,389.86-77.54v-245.2Z" transform="translate(0.17 -883.73)"/><path class="cls-8" d="M1921.57,1550.6h-.24V1200H-.11v350.6H-.17v484.7a1443.92,1443.92,0,0,0,373.35,64.8c275.76,10.76,324.32-68.67,588.09-64.8,264.33,3.88,309.76,85,570.06,76.08,167.1-5.74,302.33-44.48,390.07-76.08v-95.75h.18Z" transform="translate(0.17 -883.73)"/></g></g></svg>