<svg xmlns="http://www.w3.org/2000/svg" xmlns:xlink="http://www.w3.org/1999/xlink" viewBox="0 0 1919.28 482.42"><defs><style>.cls-1{isolation:isolate;}.cls-2{fill:url(#Degradado_sin_nombre_21);}.cls-3,.cls-4,.cls-5{opacity:0.4;mix-blend-mode:soft-light;}.cls-3{fill:url(#Degradado_sin_nombre_151);}.cls-4{fill:url(#Degradado_sin_nombre_152);}.cls-5{fill:url(#Degradado_sin_nombre_151-2);}</style><linearGradient id="Degradado_sin_nombre_21" x1="959.64" y1="482.42" x2="959.64" gradientUnits="userSpaceOnUse"><stop offset="0" stop-color="#4a4e7a"/><stop offset="1" stop-color="#262a5f"/></linearGradient><linearGradient id="Degradado_sin_nombre_151" x1="1535.36" y1="109.19" x2="1820.07" y2="109.19" gradientUnits="userSpaceOnUse"><stop offset="0" stop-color="#fff" stop-opacity="0"/><stop offset="1" stop-color="#fff"/></linearGradient><linearGradient id="Degradado_sin_nombre_152" x1="1142.86" y1="276.99" x2="1440.89" y2="276.99" gradientUnits="userSpaceOnUse"><stop offset="0.17" stop-color="#fff" stop-opacity="0"/><stop offset="1" stop-color="#fff"/></linearGradient><linearGradient id="Degradado_sin_nombre_151-2" x1="239.2" y1="296.83" x2="239.2" y2="0" xlink:href="#Degradado_sin_nombre_151"/></defs><title>mountains_1</title><g class="cls-1"><g id="OBJECTS"><polygon class="cls-2" points="0 14.83 130.34 0 267.8 56.35 383.92 77.11 469.24 174.99 556.92 246.17 635.13 246.17 776.42 287.69 824.72 287.69 990.61 349.98 1175.46 302.52 1248.93 299.56 1298.69 266.93 1440.89 192.78 1592.56 174.99 1675.5 56.35 1820.07 0 1919.28 0 1919.28 482.42 0 482.42 0 14.83"/><polygon class="cls-3" points="1820.07 0 1734.77 46.4 1764.44 84.32 1702.98 126.99 1673.16 198.28 1535.36 218.39 1594.88 198.28 1592.56 174.99 1675.5 56.35 1820.07 0"/><polygon class="cls-4" points="1440.89 192.78 1368.1 275.83 1362.36 333.03 1284.15 333.03 1142.86 361.19 1248.93 299.56 1298.69 266.93 1440.89 192.78"/><polygon class="cls-5" points="130.34 0 278.67 106.77 314.7 149.78 380.4 232.37 478.39 296.83 326.72 284.76 243.78 204.31 99.21 166.09 0 166.09 0 14.83 130.34 0"/></g></g></svg>