<svg xmlns="http://www.w3.org/2000/svg" xmlns:xlink="http://www.w3.org/1999/xlink" viewBox="0 0 1919.28 553.09"><defs><style>.cls-1{isolation:isolate;}.cls-2{fill:url(#Degradado_sin_nombre_22);}.cls-3,.cls-4,.cls-5,.cls-6{opacity:0.4;mix-blend-mode:soft-light;}.cls-3{fill:url(#Degradado_sin_nombre_151);}.cls-4{fill:url(#Degradado_sin_nombre_151-2);}.cls-5{fill:url(#Degradado_sin_nombre_151-3);}.cls-6{fill:url(#Degradado_sin_nombre_151-4);}</style><linearGradient id="Degradado_sin_nombre_22" x1="959.64" y1="553.09" x2="959.64" gradientUnits="userSpaceOnUse"><stop offset="0" stop-color="#204e9c"/><stop offset="1" stop-color="#203e84"/></linearGradient><linearGradient id="Degradado_sin_nombre_151" x1="1680.24" y1="160.27" x2="1680.24" gradientUnits="userSpaceOnUse"><stop offset="0" stop-color="#fff" stop-opacity="0"/><stop offset="1" stop-color="#fff"/></linearGradient><linearGradient id="Degradado_sin_nombre_151-2" x1="1344.91" y1="373.19" x2="1344.91" y2="144.82" xlink:href="#Degradado_sin_nombre_151"/><linearGradient id="Degradado_sin_nombre_151-3" x1="471.52" y1="268.95" x2="471.52" y2="153.72" xlink:href="#Degradado_sin_nombre_151"/><linearGradient id="Degradado_sin_nombre_151-4" x1="1091.92" y1="373.19" x2="1091.92" y2="266.42" xlink:href="#Degradado_sin_nombre_151"/></defs><title>mountains_2</title><g class="cls-1"><g id="OBJECTS"><polygon class="cls-2" points="994.16 328.71 1115.03 328.71 1189.68 266.42 1264.33 266.42 1363.87 194.73 1434.96 194.73 1514.35 144.82 1540.42 112.19 1630.48 112.19 1656.55 70.67 1692.09 43.98 1791.63 0 1919.28 0 1919.28 553.09 0 553.09 0 85.5 130.34 70.67 258.32 97.36 298.32 132.48 431.32 153.72 492.94 207.1 531.15 224.9 573.51 275.32 635.13 316.84 708.59 313.88 790.35 343.54 853.16 337.6 921.88 346.5 994.16 328.71"/><polygon class="cls-3" points="1791.63 0 1820.07 70.67 1675.5 127.02 1611.84 160.27 1552.49 141.87 1540.42 112.19 1630.48 112.19 1656.55 70.67 1692.09 43.98 1791.63 0"/><polygon class="cls-4" points="1434.96 194.73 1514.35 144.82 1440.89 263.46 1298.69 337.6 1248.93 370.23 1175.46 373.19 1270.6 311.3 1264.33 266.42 1363.87 194.73 1434.96 194.73"/><polygon class="cls-5" points="431.32 153.72 411.88 179.87 469.24 245.66 529.83 268.95 531.15 224.9 492.94 207.1 431.32 153.72"/><polygon class="cls-6" points="1189.68 266.42 1189.68 309.24 1142.86 356.76 1052.29 373.19 994.16 330.56 1115.03 330.56 1189.68 266.42"/></g></g></svg>