<svg id="OBJECTS" xmlns="http://www.w3.org/2000/svg" xmlns:xlink="http://www.w3.org/1999/xlink" viewBox="0 0 1921.74 1367.72"><defs><style>.cls-1{opacity:0.4;fill:url(#linear-gradient);}.cls-2{opacity:0.3;fill:url(#linear-gradient-2);}.cls-3{fill:url(#linear-gradient-3);}.cls-4{fill:url(#linear-gradient-4);}.cls-5{fill:url(#linear-gradient-5);}</style><linearGradient id="linear-gradient" x1="1027.46" y1="2145.24" x2="1027.46" y2="1833.8" gradientUnits="userSpaceOnUse"><stop offset="0" stop-color="#002e46"/><stop offset="0.3" stop-color="#003a50"/><stop offset="1" stop-color="#005264"/></linearGradient><linearGradient id="linear-gradient-2" x1="864.56" y1="2157.24" x2="864.56" y2="1833.8" xlink:href="#linear-gradient"/><linearGradient id="linear-gradient-3" x1="780.85" y1="1158.99" x2="610.12" y2="675.62" xlink:href="#linear-gradient"/><linearGradient id="linear-gradient-4" x1="1325.99" y1="1229.11" x2="1341.88" y2="657.32" xlink:href="#linear-gradient"/><linearGradient id="linear-gradient-5" x1="960.81" y1="1188.13" x2="960.81" y2="2100.2" xlink:href="#linear-gradient"/></defs><title>foreground</title><path class="cls-1" d="M133.44,1833.8V2067c83.33,26.49,212.9,59.67,373.15,66,275.62,11,324.15-70,587.77-66,264.19,3.95,309.6,86.66,569.76,77.54a1235.65,1235.65,0,0,0,257.36-36.63V1833.8Z" transform="translate(0.06 -789.52)"/><path class="cls-2" d="M1,1833.8v292.35A1396.69,1396.69,0,0,0,180.69,2145c275.62,11,324.15-70,587.77-66,264.19,3.95,309.6,86.66,569.76,77.54,167-5.85,302.17-45.33,389.86-77.54V1833.8Z" transform="translate(0.06 -789.52)"/><path class="cls-3" d="M943.36,1081.22l-7.77-38.82-8.44,29.1-11.71-42.69-18.27,46q-49-6.69-98.76-12.91L787,981.46l-15.89,77-7.81-.95-6.61-46.4-9.18,44.51q-11.87-1.41-23.78-2.8l-19.85-71.19-20.71,60-11.62-46.39-14.62,50.09q-61.28-6.65-123.06-12.44l-7.58-26.21-7.73,24.8q-14.39-1.32-28.79-2.59L478.6,966.61l-12.43,60.25-12.32-1-5.55-29.52-5.9,28.58q-15.39-1.26-30.78-2.46l-10.11-38.71-10.38,34.16L380,940l-15.51,62.54-8.87-35.51-15.81,50.06q-42.47-2.91-84.84-5.32l-10.27-45.27-10.67,44.11h-.27l-19.08-134-20.43,99-9.87-69.35-20.81,100.86-6-.27-16.41-58.86-15.2,40-20.76-71.59-31,60.14-38-187.13S16.32,864.18,0,926.64V1200H1590.66C1405.63,1156.85,1182.52,1115.17,943.36,1081.22Z" transform="translate(0.06 -789.52)"/><path class="cls-4" d="M1884.85,789.52l-38,187.13-31-60.14L1795,988.1l-15.2-40-18.3,65.61-2.74.25-22.2-107.6-10.23,71.86-20.07-101.55-19.34,134-10.67-44.13-12.94,57.05q-29.36,3.24-60.77,7.06l-17.26-.44-19.95-63.14-8.86,35.51L1541,940l-11.08,77.82-10.38-34.16-15.63,59.85q-10.31,1.44-20.8,2.94l-10.36-50.2-10,53.16-3.12.46-17.19-83.31-15.78,88.25-16.09,2.48-15.8-50.65-16.11,55.71q-22.06,3.55-44.75,7.37l-16.45-56.36-11.62,46.39-20.71-60-23,82.46q-9.59,1.73-19.28,3.51l-8.94-37.21-8.25,40.39-5,.93L1202,999.63l-23.9,98.39q-16.39,3.18-33.05,6.5L1123.83,1047l-17.55,50-9.52-32.82-19.47,54.16C969.33,1141,854.12,1168,732.6,1200H1921V926.64C1904.68,864.18,1884.85,789.52,1884.85,789.52Z" transform="translate(0.06 -789.52)"/><path class="cls-5" d="M1921.67,1538.73h-.24v-350.6H0v350.6H-.06v484.7a1443.92,1443.92,0,0,0,373.35,64.8c275.76,10.76,324.32-68.67,588.09-64.8,264.33,3.88,309.76,85,570.06,76.08,167.1-5.74,302.33-44.48,390.07-76.08v-95.75h.18Z" transform="translate(0.06 -789.52)"/></svg>