<svg id="OBJECTS" xmlns="http://www.w3.org/2000/svg" xmlns:xlink="http://www.w3.org/1999/xlink" viewBox="0 0 1921.88 553.92"><defs><style>.cls-1{fill:url(#linear-gradient);}.cls-2{fill:url(#linear-gradient-2);}.cls-3{fill:url(#linear-gradient-3);}.cls-4{fill:url(#linear-gradient-4);}.cls-5{fill:url(#linear-gradient-5);}.cls-6{fill:url(#linear-gradient-6);}</style><linearGradient id="linear-gradient" x1="954.02" y1="790.86" x2="1006.06" y2="1117.28" gradientUnits="userSpaceOnUse"><stop offset="0.03" stop-color="#006579"/><stop offset="1" stop-color="#005668"/></linearGradient><linearGradient id="linear-gradient-2" x1="447.17" y1="167.53" x2="451.79" y2="384.87" xlink:href="#linear-gradient"/><linearGradient id="linear-gradient-3" x1="1512.85" y1="241.61" x2="1545.12" y2="536.63" xlink:href="#linear-gradient"/><linearGradient id="linear-gradient-4" x1="521.72" y1="1323.61" x2="1044.47" y2="800.86" gradientUnits="userSpaceOnUse"><stop offset="0.03" stop-color="#006579"/><stop offset="1" stop-color="#59cdcb"/></linearGradient><linearGradient id="linear-gradient-5" x1="0" y1="328.33" x2="528.29" y2="328.33" xlink:href="#linear-gradient-4"/><linearGradient id="linear-gradient-6" x1="1330.53" y1="313.15" x2="1539.01" y2="313.15" xlink:href="#linear-gradient-4"/></defs><title>mountain</title><path class="cls-1" d="M943.76,631.84l71-35.54,13.53,7.9,57.77,72.19,211.7,189.7s91.2,34.12,97,35.48,279.44,248.65,279.44,248.65H348.34l228-192.69S626.6,935.69,632.45,933s94.7-106.45,94.7-106.45,183.56-191.07,190.58-193.8S943.76,631.84,943.76,631.84Z" transform="translate(0.88 -596.3)"/><polygon class="cls-2" points="0 553.92 401.27 226 496.89 102.74 528.29 102.74 605.36 192.7 668.16 212.69 910.78 553.92 0 553.92"/><polygon class="cls-3" points="1172.14 553.92 1359.57 380.08 1470.79 214.08 1503.21 181.51 1563.92 200 1708.05 358.5 1921.88 553.92 1172.14 553.92"/><path class="cls-4" d="M970.62,951.72,1034,873.26,983.82,773,809.58,890.09l137.28-114L1014.8,596.3l-71,35.54s-19-1.86-26,.87-190.58,193.8-190.58,193.8S638.3,930.23,632.45,933s-56.12,24.57-56.12,24.57l-228,192.69H909.9l235-103Z" transform="translate(0.88 -596.3)"/><polygon class="cls-5" points="528.29 102.74 477.83 210.59 308.87 336.93 483.11 229.08 498.95 266.06 398.63 346.82 432.95 386.24 89.76 553.92 0 553.92 401.27 226 496.89 102.74 528.29 102.74"/><polygon class="cls-6" points="1503.21 181.51 1470.79 214.08 1359.57 380.08 1454.61 309.2 1330.53 444.79 1528.53 352.34 1502.13 244.49 1539.01 219.36 1503.21 181.51"/></svg>