<svg id="Layer_1" data-name="Layer 1" xmlns="http://www.w3.org/2000/svg" xmlns:xlink="http://www.w3.org/1999/xlink" viewBox="0 0 1921.44 2006.96"><defs><style>.cls-1{fill:url(#linear-gradient);}.cls-2,.cls-3,.cls-4{fill:#fff;}.cls-3{opacity:0.45;}.cls-4{opacity:0.25;}.cls-5{fill:url(#linear-gradient-2);}.cls-6{fill:url(#linear-gradient-3);}.cls-7{fill:url(#linear-gradient-4);}.cls-8{fill:url(#linear-gradient-5);}</style><linearGradient id="linear-gradient" x1="960.72" y1="1200" x2="960.72" gradientUnits="userSpaceOnUse"><stop offset="0.35" stop-color="#efdce3"/><stop offset="0.48" stop-color="#ebd8e1"/><stop offset="0.61" stop-color="#ddcddd"/><stop offset="0.75" stop-color="#c8bbd5"/><stop offset="0.89" stop-color="#a9a2cb"/><stop offset="1" stop-color="#8b89c0"/></linearGradient><linearGradient id="linear-gradient-2" x1="1800.34" y1="290.14" x2="1877.15" y2="290.14" gradientUnits="userSpaceOnUse"><stop offset="0" stop-color="#fff"/><stop offset="0.03" stop-color="#fff" stop-opacity="0.88"/><stop offset="0.07" stop-color="#fff" stop-opacity="0.72"/><stop offset="0.12" stop-color="#fff" stop-opacity="0.57"/><stop offset="0.18" stop-color="#fff" stop-opacity="0.44"/><stop offset="0.24" stop-color="#fff" stop-opacity="0.33"/><stop offset="0.31" stop-color="#fff" stop-opacity="0.25"/><stop offset="0.38" stop-color="#fff" stop-opacity="0.18"/><stop offset="0.48" stop-color="#fff" stop-opacity="0.13"/><stop offset="0.62" stop-color="#fff" stop-opacity="0.11"/><stop offset="1" stop-color="#fff" stop-opacity="0.1"/></linearGradient><linearGradient id="linear-gradient-3" x1="1431.84" y1="211.86" x2="1486" y2="211.86" gradientUnits="userSpaceOnUse"><stop offset="0" stop-color="#fff" stop-opacity="0.7"/><stop offset="0.05" stop-color="#fff" stop-opacity="0.56"/><stop offset="0.11" stop-color="#fff" stop-opacity="0.44"/><stop offset="0.17" stop-color="#fff" stop-opacity="0.33"/><stop offset="0.25" stop-color="#fff" stop-opacity="0.25"/><stop offset="0.33" stop-color="#fff" stop-opacity="0.18"/><stop offset="0.44" stop-color="#fff" stop-opacity="0.13"/><stop offset="0.59" stop-color="#fff" stop-opacity="0.11"/><stop offset="1" stop-color="#fff" stop-opacity="0.1"/></linearGradient><linearGradient id="linear-gradient-4" x1="413.28" y1="285.71" x2="467.44" y2="285.71" xlink:href="#linear-gradient-3"/><linearGradient id="linear-gradient-5" x1="960.72" y1="1179" x2="960.72" y2="2006.96" gradientUnits="userSpaceOnUse"><stop offset="0.39" stop-color="#efdce3"/><stop offset="0.51" stop-color="#ebd8e1"/><stop offset="0.63" stop-color="#ddcddd"/><stop offset="0.76" stop-color="#c8bbd5"/><stop offset="0.89" stop-color="#a9a2cb"/><stop offset="1" stop-color="#8b89c0"/></linearGradient></defs><title>background</title><rect class="cls-1" width="1921.44" height="1200"/><ellipse class="cls-2" cx="1309.16" cy="375.03" rx="2.74" ry="2.72"/><ellipse class="cls-2" cx="364.91" cy="273.13" rx="2.74" ry="2.72"/><ellipse class="cls-2" cx="1179.24" cy="142" rx="2.74" ry="2.72"/><ellipse class="cls-2" cx="93.02" cy="233.2" rx="2.74" ry="2.72"/><ellipse class="cls-2" cx="784.11" cy="488.96" rx="2.74" ry="2.71"/><ellipse class="cls-2" cx="583.86" cy="92.19" rx="5.13" ry="5.09"/><ellipse class="cls-2" cx="1755.39" cy="206.93" rx="2.74" ry="2.72"/><ellipse class="cls-2" cx="928.63" cy="77.73" rx="2.23" ry="2.22"/><ellipse class="cls-2" cx="1429.89" cy="159.95" rx="2.23" ry="2.22"/><ellipse class="cls-3" cx="275.16" cy="251.51" rx="2.23" ry="2.22"/><ellipse class="cls-3" cx="217.81" cy="398.57" rx="2.23" ry="2.22"/><ellipse class="cls-3" cx="465.92" cy="356.02" rx="2.23" ry="2.22"/><ellipse class="cls-3" cx="1487.56" cy="325.85" rx="2.23" ry="2.22"/><ellipse class="cls-3" cx="90.79" cy="413.6" rx="2.23" ry="2.22"/><ellipse class="cls-3" cx="407.17" cy="62.4" rx="2.23" ry="2.22"/><ellipse class="cls-4" cx="237.04" cy="134.69" rx="2.23" ry="2.22"/><ellipse class="cls-4" cx="181.5" cy="563.8" rx="2.23" ry="2.22"/><ellipse class="cls-4" cx="312.17" cy="142" rx="2.23" ry="2.22"/><ellipse class="cls-4" cx="674.37" cy="27.1" rx="2.23" ry="2.22"/><ellipse class="cls-3" cx="766.46" cy="134.69" rx="2.23" ry="2.22"/><ellipse class="cls-4" cx="1327.49" cy="283.49" rx="2.23" ry="2.22"/><ellipse class="cls-4" cx="637.2" cy="290.14" rx="2.23" ry="2.22"/><ellipse class="cls-4" cx="1854.73" cy="459.16" rx="2.23" ry="2.22"/><ellipse class="cls-4" cx="1817.37" cy="29.32" rx="2.23" ry="2.22"/><ellipse class="cls-4" cx="1731.62" cy="268.2" rx="2.23" ry="2.22"/><ellipse class="cls-4" cx="1645.11" cy="204.71" rx="2.23" ry="2.22"/><ellipse class="cls-4" cx="1778.14" cy="168.81" rx="2.23" ry="2.22"/><ellipse class="cls-4" cx="1606.59" cy="24.88" rx="2.23" ry="2.22"/><ellipse class="cls-4" cx="1143.26" cy="67.36" rx="2.23" ry="2.22"/><ellipse class="cls-3" cx="1016.75" cy="136.91" rx="2.23" ry="2.22"/><ellipse class="cls-3" cx="1304.2" cy="180.41" rx="2.23" ry="2.22"/><ellipse class="cls-3" cx="728.11" cy="89.97" rx="2.23" ry="2.22"/><ellipse class="cls-3" cx="534.4" cy="211.86" rx="2.23" ry="2.22"/><ellipse class="cls-3" cx="639.44" cy="226.84" rx="2.23" ry="2.22"/><path class="cls-5" d="M1877.15,252l-75.6,69.27a4.06,4.06,0,0,0,0,5.77,4.13,4.13,0,0,0,5.81,0Z" transform="translate(0.72)"/><path class="cls-6" d="M1486,185l-53.31,48.85a2.86,2.86,0,0,0,0,4.07,2.91,2.91,0,0,0,4.1,0Z" transform="translate(0.72)"/><path class="cls-7" d="M467.44,258.83l-53.31,48.85a2.86,2.86,0,0,0,0,4.07,2.91,2.91,0,0,0,4.1,0Z" transform="translate(0.72)"/><rect class="cls-8" x="0.72" y="1179" width="1920" height="827.96"/></svg>