<svg id="Layer_1" data-name="Layer 1" xmlns="http://www.w3.org/2000/svg" xmlns:xlink="http://www.w3.org/1999/xlink" viewBox="0 0 1921.18 2534.29"><defs><style>.cls-1{fill:url(#linear-gradient);}.cls-2{fill:url(#linear-gradient-2);}.cls-3{fill:url(#linear-gradient-3);}.cls-4{fill:url(#linear-gradient-4);}.cls-5{fill:url(#linear-gradient-5);}.cls-6{fill:url(#linear-gradient-6);}.cls-7{fill:url(#linear-gradient-7);}.cls-8{fill:url(#linear-gradient-8);}.cls-9{fill:url(#linear-gradient-9);}.cls-10{fill:url(#linear-gradient-10);}.cls-11{fill:none;}.cls-12{fill:url(#linear-gradient-11);}.cls-13{fill:url(#linear-gradient-12);}.cls-14{fill:url(#linear-gradient-13);}.cls-15{fill:url(#linear-gradient-14);}.cls-16{fill:url(#linear-gradient-15);}.cls-17{fill:url(#linear-gradient-16);}.cls-18{fill:url(#linear-gradient-17);}.cls-19{fill:url(#linear-gradient-18);}.cls-20{fill:url(#linear-gradient-19);}.cls-21{fill:url(#linear-gradient-20);}.cls-22{fill:url(#linear-gradient-21);}.cls-23{fill:url(#linear-gradient-22);}.cls-24{fill:url(#linear-gradient-23);}.cls-25{fill:url(#linear-gradient-24);}.cls-26{fill:url(#linear-gradient-25);}.cls-27{fill:url(#linear-gradient-26);}.cls-28{opacity:0.3;fill:url(#linear-gradient-27);}.cls-29{opacity:0.4;fill:url(#linear-gradient-28);}.cls-30{fill:url(#linear-gradient-29);}.cls-31{fill:url(#linear-gradient-30);}.cls-32{fill:url(#linear-gradient-31);}</style><linearGradient id="linear-gradient" x1="1655.05" y1="431.55" x2="1538.02" y2="110.02" gradientUnits="userSpaceOnUse"><stop offset="0" stop-color="#3881ba"/><stop offset="0.69" stop-color="#eeb9ba"/></linearGradient><linearGradient id="linear-gradient-2" x1="1439.92" y1="333.81" x2="1439.63" y2="333.01" gradientUnits="userSpaceOnUse"><stop offset="0" stop-color="#0f0f56"/><stop offset="1" stop-color="#1a248c"/></linearGradient><linearGradient id="linear-gradient-3" x1="1438.74" y1="325.42" x2="1438.24" y2="324.07" xlink:href="#linear-gradient-2"/><linearGradient id="linear-gradient-4" x1="1657.87" y1="429.32" x2="1543.02" y2="113.76" gradientUnits="userSpaceOnUse"><stop offset="0" stop-color="#280f56"/><stop offset="1" stop-color="#351787"/></linearGradient><linearGradient id="linear-gradient-5" x1="298.58" y1="-330.13" x2="298.58" y2="-166.19" gradientUnits="userSpaceOnUse"><stop offset="0.24" stop-color="#0b0933"/><stop offset="1" stop-color="#260f56"/></linearGradient><linearGradient id="linear-gradient-6" x1="297.92" y1="-329.75" x2="297.92" y2="-178.68" gradientUnits="userSpaceOnUse"><stop offset="0.23" stop-color="#eeb9ba"/><stop offset="0.49" stop-color="#eab6bb"/><stop offset="0.73" stop-color="#dfacc0"/><stop offset="0.96" stop-color="#cd9bc6"/><stop offset="1" stop-color="#c997c8"/></linearGradient><linearGradient id="linear-gradient-7" x1="351.78" y1="-522.99" x2="351.78" y2="-255.58" xlink:href="#linear-gradient-5"/><linearGradient id="linear-gradient-8" x1="352.08" y1="-522.99" x2="352.08" y2="-263.41" xlink:href="#linear-gradient-6"/><linearGradient id="linear-gradient-9" x1="96.63" y1="-460.38" x2="96.63" y2="-248.16" xlink:href="#linear-gradient-5"/><linearGradient id="linear-gradient-10" x1="68.81" y1="-381.06" x2="68.81" y2="-248.16" gradientUnits="userSpaceOnUse"><stop offset="0" stop-color="#79639b"/><stop offset="0.98" stop-color="#4a459d"/></linearGradient><linearGradient id="linear-gradient-11" x1="423.61" y1="-737.91" x2="423.61" y2="-445.17" xlink:href="#linear-gradient-6"/><linearGradient id="linear-gradient-12" x1="473.98" y1="-737.91" x2="473.98" y2="-544.2" xlink:href="#linear-gradient-5"/><linearGradient id="linear-gradient-13" x1="528.51" y1="-737.91" x2="528.51" y2="-566.38" xlink:href="#linear-gradient-6"/><linearGradient id="linear-gradient-14" x1="209.49" y1="-737.91" x2="209.49" y2="543.19" gradientUnits="userSpaceOnUse"><stop offset="0.13" stop-color="#eeb9ba"/><stop offset="0.53" stop-color="#b78bb2"/><stop offset="0.98" stop-color="#7c5aa9"/></linearGradient><linearGradient id="linear-gradient-15" x1="389.04" y1="-737.91" x2="389.04" y2="-419.11" xlink:href="#linear-gradient-5"/><linearGradient id="linear-gradient-16" x1="119.61" y1="-737.91" x2="119.61" y2="-637.33" xlink:href="#linear-gradient-5"/><linearGradient id="linear-gradient-17" x1="60.49" y1="-737.91" x2="60.49" y2="-666.74" xlink:href="#linear-gradient-10"/><linearGradient id="linear-gradient-18" x1="205.1" y1="543.19" x2="205.1" y2="-737.91" gradientUnits="userSpaceOnUse"><stop offset="0" stop-color="#17093d"/><stop offset="1" stop-color="#25195e"/></linearGradient><linearGradient id="linear-gradient-19" x1="92.72" y1="-570.63" x2="92.72" y2="-359.4" xlink:href="#linear-gradient-5"/><linearGradient id="linear-gradient-20" x1="92.72" y1="-570.63" x2="92.72" y2="-404.78" xlink:href="#linear-gradient-10"/><linearGradient id="linear-gradient-21" x1="104.85" y1="-715.73" x2="104.85" y2="-467.69" xlink:href="#linear-gradient-5"/><linearGradient id="linear-gradient-22" x1="104.85" y1="-715.73" x2="104.85" y2="-526.16" xlink:href="#linear-gradient-10"/><linearGradient id="linear-gradient-23" x1="1489.09" y1="492.62" x2="1489.09" y2="171.62" xlink:href="#linear-gradient-6"/><linearGradient id="linear-gradient-24" x1="1493.13" y1="492.6" x2="1493.13" y2="187.71" gradientUnits="userSpaceOnUse"><stop offset="0.29" stop-color="#1a0b4f"/><stop offset="1" stop-color="#522c62"/></linearGradient><linearGradient id="linear-gradient-25" x1="362.24" y1="573.84" x2="362.24" y2="260.8" gradientUnits="userSpaceOnUse"><stop offset="0" stop-color="#4e2977"/><stop offset="0.36" stop-color="#502b7b"/><stop offset="0.68" stop-color="#573186"/><stop offset="0.99" stop-color="#613a98"/><stop offset="1" stop-color="#623b99"/></linearGradient><linearGradient id="linear-gradient-26" x1="358.21" y1="573.82" x2="358.21" y2="327.75" xlink:href="#linear-gradient-24"/><linearGradient id="linear-gradient-27" x1="132.55" y1="1627.87" x2="1920.59" y2="1627.87" gradientUnits="userSpaceOnUse"><stop offset="1" stop-color="#1a0b4f"/><stop offset="1" stop-color="#522c62"/></linearGradient><linearGradient id="linear-gradient-28" x1="0.02" y1="1633.87" x2="1727.05" y2="1633.87" xlink:href="#linear-gradient-27"/><linearGradient id="linear-gradient-29" x1="-0.14" y1="1620.08" x2="1920.39" y2="1620.08" xlink:href="#linear-gradient-27"/><linearGradient id="linear-gradient-30" x1="0" y1="1746.71" x2="1921.1" y2="1746.71" xlink:href="#linear-gradient-27"/><linearGradient id="linear-gradient-31" x1="357.39" y1="573.82" x2="357.39" y2="327.75" xlink:href="#linear-gradient-24"/></defs><title>foreground</title><path class="cls-1" d="M1920.5,332.87c-13.41-14.64-43.81-60.91-50-74.13a12.3,12.3,0,0,0,7.32,3.18c-4.92-7.12-7.17-9.94-10.48-18,4.25,3,6.73,3.49,10,3.7-11.19-16-22.55-39.78-29.3-57.81,3.85,2.57,5.95,4.05,10.88,4.16l-11.23-18.89a25.52,25.52,0,0,0,10.08,6.32c-11.87-14.51-15.47-22-21.8-38.52l5.76,2.39a37,37,0,0,1-5-12.28l5.71,1.55c-15.58-17.41-16.39-37.3-22-61.12,1.48,1.85,2.14,2.61,3.76,3.46-5.16-7.53-7.32-16.88-8.36-25.51,0,6.14-4.07,24.18-7.45,30.39,1.08-.9,1.25.08,2.37-1.63-2.55,11.29-4.49,14.71-8.19,23,.85,0,1.26-.51,2.65-1.66-1.33,9.38-2.43,15.84-9.06,31.76,2.24,0,3-1.49,5-3.17a26.19,26.19,0,0,1-7.12,9.78,8.62,8.62,0,0,0,3.89-1.92c-.18,3.18-11,32-21.43,54.27,3.29,0,6.39-2.11,7.14-4.78a87.42,87.42,0,0,1-12.5,28.14,23.47,23.47,0,0,0,11.65-7.14c-5,18.56-13.37,34.14-23.23,51.25-3.88-5.58-6-8.62-8.94-15.74,4.25,3,6.73,3.49,10,3.7-11.19-16-22.55-39.78-29.3-57.81,3.85,2.57,5.95,4.05,10.88,4.16l-11.23-18.89a25.52,25.52,0,0,0,10.08,6.32c-11.87-14.51-15.47-22-21.8-38.52l5.76,2.39a37,37,0,0,1-5-12.28l5.71,1.55c-15.58-17.41-16.39-37.3-22-61.12,1.48,1.85,2.14,2.61,3.76,3.46-5.16-7.53-7.32-16.88-8.36-25.51,0,6.14-4.07,24.18-7.45,30.39,1.08-.9,1.25.08,2.37-1.63-2.55,11.29-4.49,14.71-8.19,23,.85,0,1.26-.51,2.65-1.66-1.33,9.38-2.43,15.84-9.06,31.76,2.24,0,3-1.49,5-3.17a26.19,26.19,0,0,1-7.12,9.78,8.62,8.62,0,0,0,3.89-1.92c-.18,3.18-11,32-21.43,54.27,3.29,0,6.39-2.11,7.14-4.78a87.42,87.42,0,0,1-12.5,28.14,23.47,23.47,0,0,0,11.65-7.14c-5.9,21.87-16.44,39.57-28.62,60.55a45.62,45.62,0,0,0,14.92-7.31c-2,1.51-3.23,6.38-4.39,8.5q-2.43,4.46-5.08,8.83c-3.43,5.7-7.09,11.3-10.84,16.85-4.8,7.12-9.15,14.24-13.75,21.32-1.34-2.31-2.42-4.3-3.08-5.71a8.7,8.7,0,0,0,5.17,2.25c-3.47-5-5.06-7-7.41-12.69a12,12,0,0,0,7,2.61c-7.91-11.29-15.94-28.11-20.71-40.86,2.72,1.81,4.2,2.86,7.69,2.94L1599,252.39a18,18,0,0,0,7.12,4.47c-8.39-10.26-10.93-15.58-15.41-27.22l4.07,1.69a26.15,26.15,0,0,1-3.52-8.68l4,1.09c-11-12.3-11.58-26.37-15.57-43.2a7.51,7.51,0,0,0,2.65,2.45c-3.65-5.32-5.17-11.93-5.91-18,0,4.34-2.88,17.09-5.27,21.48.77-.64.88.05,1.67-1.16-1.8,8-3.18,10.39-5.79,16.26.6,0,.89-.36,1.87-1.17-.94,6.63-1.72,11.19-6.4,22.45,1.58,0,2.12-1.05,3.55-2.24a18.52,18.52,0,0,1-5,6.91,6.1,6.1,0,0,0,2.75-1.36c-.13,2.24-7.81,22.59-15.15,38.36a5.31,5.31,0,0,0,5-3.38,61.79,61.79,0,0,1-8.83,19.89,16.59,16.59,0,0,0,8.24-5c-3.66,13.57-9.85,24.88-17.14,37.47a116.84,116.84,0,0,1-10.92-23.82,22.87,22.87,0,0,0,10.91,5.67,64.7,64.7,0,0,1-11.7-22.34c.71,2.11,3.61,3.76,6.68,3.79-9.72-17.7-19.89-40.55-20.06-43.07a8.7,8.7,0,0,0,3.64,1.52,21.32,21.32,0,0,1-6.66-7.76c1.89,1.34,2.6,2.52,4.69,2.52-6.2-12.64-7.23-17.76-8.48-25.21,1.3.92,1.68,1.32,2.48,1.32-3.46-6.59-5.28-9.29-7.67-18.26,1,1.36,1.2.58,2.22,1.3-3.17-4.92-7-19.24-7-24.12-1,6.85-3,14.27-7.82,20.25a9.56,9.56,0,0,0,3.51-2.75c-5.27,18.9-6,34.7-20.61,48.51l5.35-1.23a27,27,0,0,1-4.66,9.74l5.39-1.9c-5.93,13.08-9.29,19.05-20.41,30.57a24.82,24.82,0,0,0,9.43-5l-10.51,15c4.61-.09,6.58-1.27,10.18-3.3-6.31,14.31-16.95,33.2-27.42,45.88a17.82,17.82,0,0,0,9.32-2.93c-3.1,6.36-5.2,8.6-9.81,14.25a12.6,12.6,0,0,0,6.85-2.53c-1.32,2.4-3.87,6.2-7.1,10.73a209.88,209.88,0,0,1-9.74-21.81c2.51,1.67,3.87,2.63,7.08,2.71l-7.31-12.29a16.6,16.6,0,0,0,6.55,4.11c-7.72-9.44-10.06-14.34-14.18-25.05l3.75,1.55a24.06,24.06,0,0,1-3.24-8l3.72,1c-10.13-11.32-10.66-24.27-14.33-39.76a6.91,6.91,0,0,0,2.44,2.25c-3.36-4.9-4.76-11-5.44-16.59,0,4-2.65,15.73-4.85,19.77.7-.59.81,0,1.54-1.06-1.66,7.35-2.92,9.57-5.33,15,.55,0,.82-.33,1.72-1.08-.87,6.1-1.58,10.3-5.89,20.66,1.46,0,1.95-1,3.26-2.06a17,17,0,0,1-4.63,6.36,5.61,5.61,0,0,0,2.53-1.25c-.12,2.07-7.18,20.79-13.94,35.3a4.88,4.88,0,0,0,4.65-3.11,56.86,56.86,0,0,1-8.13,18.31,15.26,15.26,0,0,0,7.58-4.64c-3.84,14.23-10.69,25.74-18.62,39.39a29.67,29.67,0,0,0,9.7-4.76c-1.3,1-2.1,4.15-2.85,5.53q-1.58,2.9-3.3,5.74c-2.23,3.71-4.61,7.35-7.05,11-4.76,7.06-8.81,14.14-13.85,21.1a30.61,30.61,0,0,1,4.92-2.58,53.47,53.47,0,0,1-4.92,9.2c10.68,2.14,23-.29,32.91-4.2l-1.29,4a55.22,55.22,0,0,0,6.4-2.63c3.07,3,15.63,7.64,15.63,7.64,0-1.41-.85-3.33.35-6.13,2.8,1.85,36.26,7,48.07,6.13-1.34-1.12-4.8-7.58-4.87-9.25,3.57,1.79,8.68,6.14,17.36,6.14-3.06-1.28-6.84-6.14-7.18-7.16,5.37.81,12.81,2.47,18.2,1.81A166.43,166.43,0,0,1,1462.11,397c17.39-1.8,34.67-4.49,37-5.8,1.73,3.42.5,5.75.5,7.48,0,0,18.07-5.64,22.49-9.32a87.9,87.9,0,0,0,9.21,3.21l-1.85-4.9c14.3,4.77,32,7.74,47.34,5.13a62.71,62.71,0,0,1-7.08-11.22,47.31,47.31,0,0,1,7.08,3.15c-4.05-4.75-7.67-9.55-11.26-14.36,3.63,1.56,6.76,2.71,6.76,2.71,0-1.54-.93-3.61.38-6.66,3,2,39.39,7.63,52.23,6.66-1.46-1.22-5.22-8.24-5.29-10.05,3.88,1.95,9.43,6.67,18.86,6.67-3.33-1.39-7.44-6.68-7.8-7.78,5.83.88,13.92,2.69,19.78,2-4.45-4.86-11.54-14.64-18.27-24.62a111.69,111.69,0,0,0,29.05-7.23l-2,6.17a84.81,84.81,0,0,0,9.84-4c4.73,4.64,24,11.74,24,11.74,0-2.17-1.31-5.11.54-9.42,4.3,2.84,55.74,10.79,73.9,9.42-1.27-1.06-3.76-5.21-5.52-8.86q2.57-.61,5.09-1.33a39.09,39.09,0,0,0,19.63,5.4,20.77,20.77,0,0,1-6.11-4.64c1.77-.72,3.51-1.48,5.21-2.31,4.73,4.64,24,11.74,24,11.74,0-2.17-1.31-5.11.54-9.42,4.3,2.84,55.74,10.79,73.9,9.42-2.07-1.72-7.38-11.66-7.48-14.22,5.48,2.76,13.34,9.44,26.68,9.44-4.71-2-10.52-9.45-11-11C1900.77,331.34,1912.21,333.9,1920.5,332.87Zm-377.07-19.3c-1.42,1.07-2.29,4.51-3.1,6l-.28.49c-.69-1.09-1.35-2.18-2-3.27A30.91,30.91,0,0,0,1543.43,313.57Zm221.22-43.38c-.71,1.31-1.49,2.59-2.24,3.89-1.43-2.34-2.75-4.54-3.93-6.56a44.57,44.57,0,0,0,10.55-5.83C1767,263.2,1765.81,268.08,1764.66,270.19Zm-6.12-8.78-1.78,3.07c-1.28-2.28-2.31-4.24-3-5.75A11.76,11.76,0,0,0,1758.54,261.42Zm18.62,70.94.88-.33-.33,1C1777.52,332.82,1777.32,332.58,1777.16,332.36Z" transform="translate(0.6 738.69)"/><path class="cls-2" d="M1440.34,333.66l-.46-.74-.53.66C1439.69,333.6,1440,333.66,1440.34,333.66Z" transform="translate(0.6 738.69)"/><path class="cls-3" d="M1439.29,325.22c-.35-.42-.64-.78-1-1.18l-.48.62C1438.31,324.86,1438.79,325.06,1439.29,325.22Z" transform="translate(0.6 738.69)"/><path class="cls-4" d="M1867.35,249.52c4.25,3,6.73,3.49,10,3.7-11.19-16-22.55-39.78-29.3-57.81,3.85,2.57,5.95,4.05,10.88,4.16l-11.23-18.89a25.23,25.23,0,0,0,8.91,5.84l-.38-1,.77.49c-11.24-13.88-14.83-21.45-21-37.55l5.76,2.39a37,37,0,0,1-5-12.28l5.71,1.55c-15.58-17.41-16.39-37.3-22-61.12,1.48,1.85,2.14,2.61,3.76,3.46C1819,75,1816.83,65.61,1815.79,57a48.1,48.1,0,0,1-.83,7.25c-.71,8.73-1.79,17.14-3.27,20.2a16.18,16.18,0,0,0,2.77-3.95c-2.13,11.76-3.23,14.4-6.62,23.09.85,0,1.24-.56,2.59-1.8-1,9.75-2.18,10.12-8.21,26.79,2.24-.07,2.94-1.63,4.9-3.43-1.35,3.81-4.57,13.39-7.65,16.35a8.45,8.45,0,0,0,3.81-2.1c-.06,3.29-10.92,29.16-20.48,52.54,4.33-1.68,8.27-4.17,8.93-6.95a91.49,91.49,0,0,1-11.45,29.48,23.17,23.17,0,0,0,11.38-7.73c-4.32,19.35-18.2,35.71-27.42,53.7l-1.09-1.51c-.49.87-1,1.77-1.51,2.65a13,13,0,0,0,1.68.66l-1.67,3.23c-.4-.68-.77-1.32-1.12-1.94l-1,1.76c-3.88-5.58-6-8.62-8.94-15.74,3.64,2.54,6,3.28,8.61,3.58a68.33,68.33,0,0,1-4.47-8.69l.17.11a310.17,310.17,0,0,1-23.65-49.1c3.85,2.57,5.95,4.05,10.88,4.16l-11.23-18.89A25.53,25.53,0,0,0,1741,187c-11.87-14.51-15.47-22-21.8-38.52l5.76,2.39a37,37,0,0,1-5-12.28l5.71,1.55c-15.58-17.41-16.39-37.3-22-61.12,1.48,1.85,2.14,2.61,3.76,3.46C1702.22,75,1700.06,65.61,1699,57a38,38,0,0,1-.47,5.05c-.5,8.25-1.48,17-3.21,20.55,1-1,1.25,0,2.31-1.76-2.13,11.76-3.95,15.34-7.34,24,.85,0,1.24-.56,2.59-1.8-1,9.75-1.36,12.31-7.4,29,2.24-.07,2.94-1.63,4.9-3.43a26.86,26.86,0,0,1-6.75,10.33,8.45,8.45,0,0,0,3.81-2.1c-.06,3.29-8.75,27.69-18.31,51.07,3.28-.14,6.3-2.37,7-5.15-2,10.25-6,19.48-11.56,28.72a23.17,23.17,0,0,0,11.38-7.73c-5.09,22.8-16.13,44.45-31.28,65.88,5.44-1.78,13.5-9.52,17.69-13-1.95,1.62-8.21,15.75-9.29,18q-2.27,4.68-4.75,9.28c-3.22,6-6.67,11.89-10.21,17.75-4.53,7.5-8.62,15-13,22.46-1.42-2.35-2.58-4.38-3.29-5.81a8.61,8.61,0,0,0,5.26,2.17c-1.6-2.23-2.81-3.87-3.89-5.5-1.65,2.61-3.3,5.21-5,7.81-1.34-2.31-2.42-4.3-3.08-5.71a8.7,8.7,0,0,0,5.17,2.25c-3.47-5-5.06-7-7.41-12.69a12,12,0,0,0,7,2.61c-7.91-11.29-15.94-28.11-20.71-40.86,2.25,1.5,3.67,2.47,6.07,2.81-.39-.93-.8-1.88-1.16-2.78.61.39,1.15.74,1.68,1.06l-6.84-11.5a18,18,0,0,0,7.12,4.47c-8.39-10.26-10.93-15.58-15.41-27.22l4.07,1.69a26.15,26.15,0,0,1-3.52-8.68l4,1.09c-11-12.3-11.58-26.37-15.57-43.2a7.51,7.51,0,0,0,2.65,2.45c-3.61-5.27-5.14-11.8-5.88-17.85-.28,7.23-1.07,17-2.61,20.24.74-.68.89,0,1.63-1.25-1.51,8.31-2.33,11.65-4.73,17.79.6,0,.88-.4,1.83-1.27-.69,6.89-2.34,10.12-6.6,21.9,1.58,0,2.08-1.15,3.46-2.42a19,19,0,0,1-4.77,7.3,6,6,0,0,0,2.69-1.49c0,2.32-6.54,16.32-13.29,32.84a5.27,5.27,0,0,0,4.92-3.64c-1.42,7.25-4.48,13.44-8.41,20a16.38,16.38,0,0,0,8-5.46c-3.16,14.15-9,34.17-15.85,47.41-.28-.46-.54-.93-.81-1.39-.64,1.38-1.16,3-1.66,3.91l-.28.49c-.69-1.09-1.35-2.18-2-3.27a32.47,32.47,0,0,0,3.48-1.94q-1.64-2.77-3.15-5.59c-.78,1.37-1.57,2.74-2.37,4.14a116.84,116.84,0,0,1-10.92-23.82,20.68,20.68,0,0,0,6.3,4.1c-.11-.32-.25-.62-.36-.94a18.2,18.2,0,0,0,2,1.64,26.86,26.86,0,0,0,3,.87,64.7,64.7,0,0,1-11.7-22.34c.63,1.9,3,3.4,5.74,3.72-.13-.37-.3-.74-.41-1.11a4.14,4.14,0,0,0,.67,1.13c.23,0,.46,0,.69.05-9.72-17.7-19.89-40.55-20.06-43.07a8.7,8.7,0,0,0,3.64,1.52,21.32,21.32,0,0,1-6.66-7.76c1.72,1.21,2.5,2.25,4.19,2.44-.18-.3-.38-.6-.54-.91.34.23.61.45.89.67-6.06-12.4-7.09-17.51-8.32-24.89,1.3.92,1.68,1.32,2.48,1.32-3.46-6.59-5.28-9.29-7.67-18.26,1,1.36,1.2.58,2.22,1.3-2.62-4.07-5.67-14.56-6.65-20.83-1,5.66-2.54,11.87-5.19,16.27-.1.36-.2.73-.29,1.08a10.47,10.47,0,0,0,2.84-2.62c-4.54,19.56-4.76,35.81-18.5,50.44l-.12.3,5.11-1.38a28.21,28.21,0,0,1-4.29,10.22l5.32-2.12c-5.44,13.7-8.58,20-19.26,32.22a24.37,24.37,0,0,0,9.24-5.47l-6.76,10.74c-.76,1.63-1.55,3.3-2.4,5,4-.34,6-1.58,9.26-3.65-5.78,15-15.71,34.84-25.71,48.27a17.3,17.3,0,0,0,9.2-3.31c-2.86,6.67-4.88,9.05-9.27,15a12.27,12.27,0,0,0,6.75-2.82c-1.24,2.52-3.64,6.53-6.7,11.31-1.95-3.59-3.81-7.28-5.52-10.88q-1.1,1.59-2.34,3.33a209.91,209.91,0,0,1-9.74-21.81c2.51,1.67,3.87,2.63,7.08,2.71l-7.31-12.29a16.61,16.61,0,0,0,6.55,4.11c-7.72-9.44-10.06-14.34-14.18-25.05L1422,295a24.06,24.06,0,0,1-3.24-8l3.72,1c-10.13-11.32-10.66-24.27-14.33-39.76a6.92,6.92,0,0,0,2.44,2.25,32.69,32.69,0,0,1-4.76-12.26c-.32-.88-.59-1.72-.8-2.5-.12,1.13-.34,2.49-.61,4-.46,7.88-1.7,20.49-3.23,23.67a17.24,17.24,0,0,0,2.73-3.25c-1.39,7.65-3.47,12.8-5.68,18.45.55,0,4.07-5.33,4.95-6.14-.64,6.34-4.33,13.07-8.25,23.91,1.46,0,1.91-1.06,3.18-2.23a17.47,17.47,0,0,1-4.39,6.72,5.5,5.5,0,0,0,2.48-1.37c0,1.85-7.8,22.55-13.92,38a13.2,13.2,0,0,0,1.37-1.36c-.65,2.39-1.4,4.69-2.21,6.95,3.42-3,9.44-10.87,9.78-12.33a59.51,59.51,0,0,1-7.45,19.18,15.07,15.07,0,0,0,7.4-5c-3.31,14.83-9.73,26.94-17.15,41.29a29.07,29.07,0,0,0,9.52-5.21c-1.27,1.05-1.95,4.36-2.65,5.8q-1.47,3-3.09,6c-2.09,3.9-4.34,7.74-6.64,11.55-3.4,5.63-6.4,11.26-9.72,16.84a72.49,72.49,0,0,0,19.13-4.7l-1.29,4a55.11,55.11,0,0,0,6.4-2.63c3.07,3,15.63,7.64,15.63,7.64,0-1.41-.85-3.33.35-6.13,2.8,1.85,36.26,7,48.07,6.13-1.34-1.12-4.8-7.58-4.87-9.25,3.57,1.79,8.68,6.14,17.36,6.14-3.06-1.28-6.84-6.14-7.18-7.16,5.37.81,12.81,2.47,18.2,1.81a166.43,166.43,0,0,1-11.16-14.47c17.39-1.8,34.67-4.49,37-5.8,1.73,3.42.5,5.75.5,7.48,0,0,18.07-5.64,22.49-9.32a87.9,87.9,0,0,0,9.21,3.21l-1.85-4.9c14.3,4.77,32,7.74,47.34,5.13a62.72,62.72,0,0,1-7.08-11.22,47.31,47.31,0,0,1,7.08,3.15c-4.05-4.75-7.67-9.55-11.26-14.36,3.63,1.56,6.76,2.72,6.76,2.72,0-1.54-.93-3.61.38-6.66,3,2,39.39,7.63,52.23,6.66-1.46-1.22-5.22-8.24-5.29-10.05,2.32,1.17,5.26,3.31,9.25,4.86a7.69,7.69,0,0,1-.64-2c1.77.85,3.92,2.26,6.57,3.54a26.6,26.6,0,0,0,3.67.27c-3.33-1.39-7.44-6.68-7.8-7.78,5.83.88,13.92,2.69,19.78,2-4.45-4.86-11.54-14.64-18.27-24.62a111.7,111.7,0,0,0,29.05-7.23l-1.28,4c3-1,5.93-2.19,8.72-3.43l-.54,2c.32-.15.65-.28,1-.43a19.37,19.37,0,0,0,3.41,2.46c1.39-.66,2.76-1.33,4.1-2.06,2.77,2.63,10.22,5.94,16.18,8.32a11.81,11.81,0,0,1,.88-6.4c.81.54,3.32,1.26,7,2.07a12.71,12.71,0,0,1,.62-2.31c3.79,2.42,42.55,7.7,64.84,7.89a55.75,55.75,0,0,1-4.05-7.08q2.57-.61,5.09-1.33c1.26.7,2.63,1.4,4.1,2.05-.57-1-1.12-2-1.62-3q2.55-.71,5-1.53a47.85,47.85,0,0,0,6.62,2.94c1.55-.64,3.1-1.31,4.59-2a28.92,28.92,0,0,0,6.29,4.07c.76,0,1.52,0,2.31,0a21,21,0,0,1-6.28-4.62c1.74-.8,3.46-1.64,5.12-2.55,2.78,2.65,10.29,6,16.26,8.35a12,12,0,0,1,.86-3c.8.53,3.23,1.23,6.77,2a12.35,12.35,0,0,1,.76-5.74c3.67,2.34,40.18,7.38,62.73,7.86-1.93-3.43-3.78-7.44-3.84-8.95,3.48,1.75,7.92,5.06,14.09,7.26-2.55-3.34-6.61-10.88-6.78-13.12,2.33,1.12,5.11,2.94,8.51,4.64-.06-.11-.15-.27-.18-.35,4.39.66,9.69,1.68,14.93,2.35-3.74-3-7.26-7.54-7.69-8.73,4.33.54,9.55,1.42,14.73,2-14.9-18.94-38.6-55.44-44-66.94a12.3,12.3,0,0,0,7.32,3.18C1872.91,260.36,1870.66,257.54,1867.35,249.52Zm-320,79.34-.26.51c-.73-1.11-1.43-2.22-2.14-3.32a30.44,30.44,0,0,0,5.28-3.49C1548.88,323.7,1548.14,327.29,1547.38,328.86Zm206.36-64.57a11.76,11.76,0,0,0,4.81,2.67l-1.78,3.07C1755.48,267.77,1754.44,265.81,1753.73,264.3Zm16,6.82c-.67,1.38-1.4,2.73-2.09,4.09l-1.66-2.62a32,32,0,0,1-1.35,3.16c-.71,1.31-1.49,2.59-2.24,3.89-1.43-2.34-2.75-4.54-3.93-6.56a46.59,46.59,0,0,0,6-2.88l-1-1.66a43.8,43.8,0,0,0,10.33-6.34C1771.88,263.81,1770.83,268.89,1769.75,271.12Zm7.95,67.5c-.18-.24-.38-.48-.54-.7l.88-.33Zm7.42-2.86c-.19-.24-.4-.49-.57-.71l.86-.37Z" transform="translate(0.6 738.69)"/><path class="cls-5" d="M227.95-329.75c16.35,22,32.75,60.69,51.76,80.32,21,21.66,44.85,40.12,69.29,57.52q9.4,6.69,18.9,13.23c4.89,3.38,14.39,7,3.58,9.94-4.07,1.1-22.23-2.45-24.82-5.56a6.83,6.83,0,0,1,.24,8.12,122,122,0,0,1-50.12-37.91q-.07,6.56-.15,13.11a32.8,32.8,0,0,1-18.46-20.29,20.8,20.8,0,0,1-.6,10.91c-4.26,1.84-8.91-1.35-12.34-4.5-20.7-19-21.69-39.53-32.93-65-7.28-16.47-19.51-65.1-4.36-59.93" transform="translate(0.6 738.69)"/><path class="cls-6" d="M367.9-178.68q-9.48-6.56-18.9-13.23c-24.44-17.4-48.32-35.86-69.29-57.52-19-19.63-35.41-58.35-51.76-80.32,0,0,5.08,13.86,7.68,18.27C276.5-224.6,361.85-182.87,367.9-178.68Z" transform="translate(0.6 738.69)"/><path class="cls-7" d="M256.33-333.14c-14.77-28.6-23.51-57.6-30.8-89.84a357.35,357.35,0,0,1-7.67-50.67q-1-12.83-1.11-25.74c0-3.41,2.23-21.74.61-23.61C282.27-411.24,386.42-346,481.8-273c2.86,2.19,6.13,5.94,4.63,9.58-1.1,2.65-4,3.13-6.51,3.1-23-.28-44-14.49-63.93-28.3l7.16,21.87c.75,2.3,1.51,4.87.78,7.19-1.31,4.12-6,4.35-9.68,3.71-41.19-7.3-79.36-36.33-102.43-77.89-1.17,14.09,4.35,27.59,9.72,40.2-16.64-6.12-31.43-19.21-41.21-36.46,2,6.78-5.43,13.13-11.23,11.3S259.49-327,256.33-333.14Z" transform="translate(0.6 738.69)"/><path class="cls-8" d="M481.8-273c-95.38-73-199.53-138.25-264.44-250,1.28,1.48,20.31,107.7,250.22,245.3,3,1.81,20.35,10.63,18.84,14.27C487.93-267.06,484.65-270.81,481.8-273Z" transform="translate(0.6 738.69)"/><path class="cls-9" d="M189.74-460.38C151.63-403.78,113-346.58,62.59-301,43-283.22,21.7-267.34,3.45-248.16a171.56,171.56,0,0,0,86.64-58.68L69.84-272.37C81-271,91.19-279.13,98.34-288s13.12-19.18,22.75-25.15l.79,13.11q10.89-16.1,21.34-32.51c.37,6.23,2.75,14.45,8.89,14.15,4.4-.21,7-5,8.69-9.08C176-364.71,191-415.64,189.74-460.38Z" transform="translate(0.6 738.69)"/><path class="cls-10" d="M62.59-301C43-283.22,21.7-267.34,3.45-248.16a165.75,165.75,0,0,0,16.91-5.94c15.07-14.77,31.47-28.17,46.79-42.69,26.43-25.05,47.48-54,67-84.27C112.48-352.34,89.18-325,62.59-301Z" transform="translate(0.6 738.69)"/><rect class="cls-11" x="0.82" width="1920" height="1201.56"/><path class="cls-12" d="M505.23-483.35c-43.4-41.43-70.83-73-114.25-129-31-40-59.09-85.08-85.78-125.54H289.1c135.3,246,255.55,284.35,269,292.75C543.95-454,517.87-471.28,505.23-483.35Z" transform="translate(0.6 738.69)"/><path class="cls-13" d="M603.41-612.32C541.71-650.9,473-694.59,416.5-737.91H287.84c3.37,6.77,6.25,12.27,7,13.77C319-677.51,352.42-639,391.06-613.31c3.68,2.44,9.17,4.13,11.12-.57.75-1.81.61-4,.45-6.05l-2.3-29.58,36.27,37.75c9.9,10.3,22.25,21.24,34.3,16a6.14,6.14,0,0,0,3.65-3.53c.66-1.94.13-4.16-.4-6.16L461.72-652.2c34.24,27.5,51.77,85.37,90,102,12.28,5.33,25.48,5.69,38.43,6,4.6.11,9.45.14,13.47-2.77a159.12,159.12,0,0,0-20.47-34.66c24.57,10.77,71.38,21.93,76.53,15.29S623.48-599.77,603.41-612.32Z" transform="translate(0.6 738.69)"/><path class="cls-14" d="M603.41-612.32C541.71-650.9,473-694.59,416.5-737.91H396.9c56.76,43.32,126.06,87,187.76,125.59,20.07,12.55,80.16,39.3,75,45.94C664.83-573,623.48-599.77,603.41-612.32Z" transform="translate(0.6 738.69)"/><path class="cls-15" d="M178.68-737.91l-34,1277.31s129.6,10.91,129.6-4.3c0-14.39-40.79-1149.84-45.22-1273Z" transform="translate(0.6 738.69)"/><path class="cls-16" d="M558.12-445.17C543.95-454,529.79-462.9,515.71-472c-54.95-35.44-82.88-80.56-129.28-132.56-32-35.82-58.88-87.78-85-133.37H199.29c5.87,37.55,15.79,75,32.07,107.81,22.12,44.54,42.32,86,74.82,118.42.27-8.59,6.67-18.79,3.18-26.13,8.08,15.58,20.74,27.15,34.86,31.87a196.56,196.56,0,0,0-5-31.64c14,24.12,33.95,41.29,53.47,58,9.21,7.88,19.2,16.06,30.27,15.74a4.13,4.13,0,0,0,3.7-1.68c.76-1.24.71-3,.58-4.57a94.91,94.91,0,0,0-2.86-16.71c2.24,4.8,6.15,8.51,9.87,11.73a610.61,610.61,0,0,0,73.5,54.82c1.29-9.07-1.93-18.93-7.88-24.11,16.42,14.3,56.87,36.26,76.11,18.82C586.26-434.87,565.53-440.55,558.12-445.17Z" transform="translate(0.6 738.69)"/><path class="cls-17" d="M108.6-737.91c-11.89,7.63-23.95,15-36,22.37L.22-671.23v17.35c10.57-3.91,20.91-8.84,31-13.73-8.88,8.1-18.56,18.27-17,30.28a340.19,340.19,0,0,0,103.55-45.82,35.56,35.56,0,0,0-1.16,17.5,90.53,90.53,0,0,0,65.23-35.24c-2.57,6.76,5.47,13.7,12.55,12.79s12.54-6.58,17.19-12.08A313,313,0,0,0,239-737.91Z" transform="translate(0.6 738.69)"/><path class="cls-18" d="M108.6-737.91c-11.89,7.63-23.95,15-36,22.37L.22-671.23v4.49c48.61-25.31,88.3-49.34,120.53-71.18Z" transform="translate(0.6 738.69)"/><path class="cls-19" d="M175.78-737.91,144.69,539.4s120.83,10.91,120.83-4.3c0-14.39-40.79-1149.84-45.22-1273Z" transform="translate(0.6 738.69)"/><path class="cls-20" d="M185.22-570.63c-12.66,19.45-26.42,38.24-42.27,55.1C108.56-479,65.36-452.42,22.72-426.33L.22-412.56v53.16a340.72,340.72,0,0,0,67.69-34.53,35.56,35.56,0,0,0-1.16,17.5A90.53,90.53,0,0,0,132-411.67c-2.57,6.76,5.47,13.7,12.55,12.79s12.54-6.58,17.19-12.08a312.38,312.38,0,0,0,23.51-31.67Z" transform="translate(0.6 738.69)"/><path class="cls-21" d="M185.22-570.63c-12.66,19.45-26.42,38.24-42.27,55.1C108.56-479,65.36-452.42,22.72-426.33L.22-412.56v7.78c110-63.12,163.31-115.3,185-140.59Z" transform="translate(0.6 738.69)"/><path class="cls-22" d="M209.49-709.27l-40.3-6.46C123.26-645.82,65.5-584.66.22-533v48.17l1.12-.58a59.71,59.71,0,0,1,.17,17.61c13.21,1.26,25.42-6.82,35.69-15.34a258.53,258.53,0,0,0,53.31-60.66,164.41,164.41,0,0,0,1.78,36.48A81.34,81.34,0,0,0,122.74-562c4.52,4.47,12,1.28,17.38-2.08l32-20c11.71-7.31,23.77-15,31.59-26.44a62.56,62.56,0,0,0,5.8-10.82Z" transform="translate(0.6 738.69)"/><path class="cls-23" d="M209.49-709.27l-40.3-6.46C123.26-645.82,65.5-584.66.22-533v6.85c68.4-50.45,128.15-112.45,174.87-183.56l34.39,2.59Z" transform="translate(0.6 738.69)"/><path class="cls-24" d="M1920.22,171.62c-29.26,8.73-54,17.59-86.72,26.22-12.49,3.3-48.33,9.23-59.18,13.13-5.12,4.81-35.27,43.27-50.51,53.67s-61.17,20.26-102.68,26.89l-192,30.63c-14.13,2.25-36,5-36,5s-29.23,19.13-40.86,26.4a223.24,223.24,0,0,1-104.06,33.35c-16.33,1-45.91,1.5-45.91,1.5s-36.43,17.31-51.8,27.28l-92.55,60c190.16,29,383.88,12.27,576.25,10.22,95.37-1,190.71,1.6,286,5.28Z" transform="translate(0.6 738.69)"/><path class="cls-25" d="M1920.22,187.71c-17.79,7.91-34.38,16.38-34.38,16.38l-86.32,15.63-39.23,40,36.07,8.35-57.26,5.68s-200.71,46.62-288.94,54.35c15.8.5,45.81,10.9,45.81,10.9l-84.56,1.78s-41.4,15-57.06,23.78c-14.53,8.17-52.07,23.77-52.07,23.77s-38.35,8.67-62.11,8.52l20,11.44c-29.83-17.79-68.77-9.49-99.41,6.89s-57.09,40-88.68,54.52l-6,7.2c187.28,27.33,378,11.07,567.31,9,95.65-1,191.28,1.63,286.87,5.33Z" transform="translate(0.6 738.69)"/><path class="cls-26" d="M631.83,489.94c-15.35-11-51.71-30.07-51.71-30.07s-29.49-.62-45.76-1.78a209.78,209.78,0,0,1-103.81-36.87c-11.62-8-40.8-29.07-40.8-29.07s-21.77-3.07-35.86-5.58l-191.5-34.14C121,345,75.19,334.1,60,322.65s-45.38-53.71-50.5-59A89.26,89.26,0,0,0,.22,260.8V566.33c49.89-1.06,99.8-1.43,149.71-.71,191.74,2.8,384.88,21.7,574.33-9.57Z" transform="translate(0.6 738.69)"/><path class="cls-27" d="M710.17,549.41c-31.57-16-58-42-88.68-60S552,462.1,522.25,481.52L542.14,469c-23.72.1-62-9.52-62-9.52s-37.51-17.21-52-26.22c-15.66-9.7-57-26.24-57-26.24l-84.41-2.19s29.93-11.32,45.7-11.82c-88.09-8.73-288.58-60.43-288.58-60.43L.22,327.75V566.33c49.89-1.06,99.8-1.43,149.71-.71,189,2.76,379.41,21.13,566.27-8.3Z" transform="translate(0.6 738.69)"/><path class="cls-28" d="M132.55,1472.16v233.19c83.33,26.49,212.9,59.67,373.15,66,275.62,11,324.15-70,587.77-66,264.19,3.95,309.6,86.66,569.76,77.54a1235.65,1235.65,0,0,0,257.36-36.63v-274.1Z" transform="translate(0.6 738.69)"/><path class="cls-29" d="M0,1472.15v292.35a1396.69,1396.69,0,0,0,179.64,18.89c275.62,11,324.15-70,587.77-66,264.19,3.95,309.6,86.66,569.76,77.54,167-5.85,302.17-45.33,389.86-77.54v-245.2Z" transform="translate(0.6 738.69)"/><path class="cls-30" d="M-.14,1472.15v217.61c83.33,26.49,212.9,59.67,373.15,66,275.62,11,324.15-70,587.77-66,264.19,3.95,309.6,86.66,569.76,77.54,167-5.85,302.17-45.33,389.86-77.54V1472.15Z" transform="translate(0.6 738.69)"/><rect class="cls-31" y="1212.69" width="1921.1" height="1068.04"/><path class="cls-32" d="M709.35,549.41c-31.57-16-58-42-88.68-60s-69.52-27.26-99.25-7.84L541.32,469c-23.72.1-62-9.52-62-9.52s-37.51-17.21-52-26.22c-15.66-9.7-57-26.24-57-26.24l-84.41-2.19s29.93-11.32,45.7-11.82c-88.09-8.73-288.58-60.43-288.58-60.43L-.6,327.75V566.33c49.89-1.06,99.8-1.43,149.71-.71,189,2.76,379.41,21.13,566.27-8.3Z" transform="translate(0.6 738.69)"/></svg>