<svg xmlns="http://www.w3.org/2000/svg" xmlns:xlink="http://www.w3.org/1999/xlink" viewBox="0 0 1920 534.29"><defs><style>.cls-1{isolation:isolate;}.cls-2{fill:url(#linear-gradient);}.cls-3{fill:none;}.cls-4,.cls-5,.cls-8{opacity:0.45;mix-blend-mode:multiply;}.cls-4{fill:url(#linear-gradient-2);}.cls-6{fill:url(#linear-gradient-3);}.cls-7{fill:url(#linear-gradient-4);}.cls-8{fill:url(#linear-gradient-5);}</style><linearGradient id="linear-gradient" x1="960" y1="534.29" x2="960" y2="9.73" gradientUnits="userSpaceOnUse"><stop offset="0.12" stop-color="#bbc8e1"/><stop offset="0.3" stop-color="#bfcae2"/><stop offset="0.47" stop-color="#cad0e5"/><stop offset="0.63" stop-color="#dcdae9"/><stop offset="0.79" stop-color="#f6e7f0"/><stop offset="0.8" stop-color="#f7e8f0"/></linearGradient><linearGradient id="linear-gradient-2" x1="-1992.53" y1="2531.85" x2="-1992.53" y2="2840.69" gradientUnits="userSpaceOnUse"><stop offset="0.12" stop-color="#bbc8e1"/><stop offset="0.26" stop-color="#bbc8e1" stop-opacity="0.98"/><stop offset="0.4" stop-color="#bbc8e1" stop-opacity="0.94"/><stop offset="0.52" stop-color="#bbc8e1" stop-opacity="0.85"/><stop offset="0.65" stop-color="#bbc8e1" stop-opacity="0.74"/><stop offset="0.77" stop-color="#bbc8e1" stop-opacity="0.59"/><stop offset="0.89" stop-color="#bbc8e1" stop-opacity="0.41"/><stop offset="1" stop-color="#bbc8e1" stop-opacity="0.2"/></linearGradient><linearGradient id="linear-gradient-3" x1="-1982.2" y1="2968.4" x2="-1982.2" y2="2620.74" gradientUnits="userSpaceOnUse"><stop offset="0.12" stop-color="#ba9ecc"/><stop offset="0.24" stop-color="#ba9fcc" stop-opacity="0.98"/><stop offset="0.35" stop-color="#baa2ce" stop-opacity="0.93"/><stop offset="0.46" stop-color="#baa7d0" stop-opacity="0.83"/><stop offset="0.56" stop-color="#baaed4" stop-opacity="0.7"/><stop offset="0.67" stop-color="#bbb6d8" stop-opacity="0.53"/><stop offset="0.77" stop-color="#bbc1de" stop-opacity="0.33"/><stop offset="0.82" stop-color="#bbc8e1" stop-opacity="0.2"/></linearGradient><linearGradient id="linear-gradient-4" x1="-1209.31" y1="2612.13" x2="-1209.31" y2="2876.68" gradientUnits="userSpaceOnUse"><stop offset="0.12" stop-color="#bbc8e1"/><stop offset="0.23" stop-color="#bbc8e1" stop-opacity="0.98"/><stop offset="0.34" stop-color="#bbc8e1" stop-opacity="0.94"/><stop offset="0.44" stop-color="#bbc8e1" stop-opacity="0.85"/><stop offset="0.54" stop-color="#bbc8e1" stop-opacity="0.74"/><stop offset="0.64" stop-color="#bbc8e1" stop-opacity="0.59"/><stop offset="0.73" stop-color="#bbc8e1" stop-opacity="0.41"/><stop offset="0.82" stop-color="#bbc8e1" stop-opacity="0.2"/></linearGradient><linearGradient id="linear-gradient-5" x1="1145.34" y1="-251.12" x2="1548.03" y2="446.35" xlink:href="#linear-gradient-4"/></defs><title>lake</title><g class="cls-1"><g id="Layer_1" data-name="Layer 1"><rect class="cls-2" y="9.73" width="1920" height="524.56"/><rect class="cls-3" x="0.72" width="1919.28" height="534.29"/><path class="cls-4" d="M-1756.56,2815.09l208.72-18.93-400.35-30.79,298.78-9.11-594.75-29.09,402.54-32.5s-353.57-14.7-367.3-14.7,392.44-11.81,392.44-11.81L-2186.31,2648l467-23.85L-2051,2609.39s626.56-24,627.87-43.92c0,0-54.56-4.68-60.89-4.68l-1107.84-29V2726c19.88,18,36.65,33.25,42.24,38.38,16.86,15.43,221,75.13,221,75.13l935.44,1.16Z" transform="translate(2591.88 -2493.21)"/><g class="cls-5"><path class="cls-6" d="M-1580.9,3027.5l.3-.27c-9.35-10.41-24.39-13.21-38.3-15.23-136.69-19.84-275.31-21.55-413.45-23.22,148.82-2.09,456.46-18.46,456.46-18.46l-249.29-25.7,452.66-30-373.31-12.84s109.11-8.62,160.1-22.63c19.7-5.41,25.35-4.91,40.26-19.7,5.48-5.43-55.93-14.72-70.31-16.21-85.11-8.82-111.84-17.35-196.8-28-12.38-1.55-44.51-8-38.46-30.64,1.89-7.08,8-14,5-20.59-1.76-3.86-5.9-5.14-9.59-6a557.76,557.76,0,0,0-176.53-12.34c-33.29,3-67.2,9-99.73.18-5.43-1.47-12.16-6.29-10.11-12.32.74-2.18,2.51-3.63,4.18-4.95,13.33-10.49,86.71-13,70.83-31.47s-102.06-22-138.64-27.54c-55.59-8.47-110.24-16.58-164.73-30.87-56.05-14.7-113.91-24.81-171.34-16.08-11.05,1.68-22.42,4.23-31.56,11.65-7.71,6.26-13.23,15.5-18.09,24.86l-.48,1V3027.5Z" transform="translate(2591.88 -2493.21)"/></g><g class="cls-5"><path class="cls-7" d="M-671.88,2620.14a4181.12,4181.12,0,0,0-735.75,19.28c-5.11.59-10.61,1.38-14.38,5.44s-4.95,10.29-8.55,14.37c-4.66,5.28-11.89,5.5-18.38,5.4-112.41-1.71-129-14.24-221.79-14.24-7.43,0-76,15.18-76,15.18s1.62,12.29,42.57,18c45.21,6.31,220.56,18,220.56,18l-229.85,11.4L-1458,2720l-130.27,14.79,311.9,5.07-211.78,17.85,476.39,24.81-421.77,18.88,503.56,23-363.17,19.69,340.78,32.6s5.47-14.75,57.77-17.38c70.5-3.55,142.18-8.13,208.15-31.16,4.9-1.71,9.78-3.54,14.56-5.54Z" transform="translate(2591.88 -2493.21)"/></g><polygon class="cls-8" points="1920 231.59 1920 170.71 1904.57 12.76 690.18 11.66 1558.04 47.47 1160.72 86.18 1491.87 106.95 1008.57 121.98 1920 231.59"/></g></g></svg>