<svg xmlns="http://www.w3.org/2000/svg" xmlns:xlink="http://www.w3.org/1999/xlink" viewBox="0 0 1921.97 508.39"><defs><style>.cls-1{isolation:isolate;}.cls-2{fill:url(#linear-gradient);}.cls-3{opacity:0.25;}.cls-10,.cls-3{mix-blend-mode:screen;}.cls-4{fill:url(#linear-gradient-2);}.cls-5{fill:url(#linear-gradient-3);}.cls-6{fill:url(#linear-gradient-4);}.cls-10,.cls-7{opacity:0.45;}.cls-7{mix-blend-mode:multiply;}.cls-8{fill:url(#linear-gradient-5);}.cls-9{fill:url(#linear-gradient-6);}.cls-11{fill:url(#linear-gradient-7);}.cls-12{fill:url(#linear-gradient-8);}.cls-13{fill:none;}</style><linearGradient id="linear-gradient" x1="-3887.88" y1="924.1" x2="-3887.88" y2="577.71" gradientUnits="userSpaceOnUse"><stop offset="0" stop-color="#eeb9ba"/><stop offset="0.01" stop-color="#eebaba" stop-opacity="0.99"/><stop offset="0.17" stop-color="#eec8c6" stop-opacity="0.81"/><stop offset="0.33" stop-color="#efd3d0" stop-opacity="0.66"/><stop offset="0.49" stop-color="#efdcd8" stop-opacity="0.55"/><stop offset="0.66" stop-color="#efe3de" stop-opacity="0.47"/><stop offset="0.83" stop-color="#efe7e1" stop-opacity="0.42"/><stop offset="1" stop-color="#efe8e2" stop-opacity="0.4"/></linearGradient><linearGradient id="linear-gradient-2" x1="-4202.1" y1="702.41" x2="-3683.27" y2="702.41" gradientUnits="userSpaceOnUse"><stop offset="0" stop-color="#eeb9ba"/><stop offset="0.13" stop-color="#eec5c4"/><stop offset="0.42" stop-color="#efd8d5"/><stop offset="0.7" stop-color="#efe4df"/><stop offset="1" stop-color="#efe8e2"/></linearGradient><linearGradient id="linear-gradient-3" x1="-3665.11" y1="929.21" x2="-3665.11" y2="511.66" xlink:href="#linear-gradient-2"/><linearGradient id="linear-gradient-4" x1="-4832.34" y1="1077.2" x2="-3462.4" y2="1077.2" gradientTransform="translate(37.07 -53.87) rotate(3.55)" gradientUnits="userSpaceOnUse"><stop offset="0" stop-color="#e7b5d9"/><stop offset="0.17" stop-color="#eac5dc"/><stop offset="0.44" stop-color="#edd8df"/><stop offset="0.72" stop-color="#eee4e1"/><stop offset="1" stop-color="#efe8e2"/></linearGradient><linearGradient id="linear-gradient-5" x1="-4832.34" y1="1075.65" x2="-4025.82" y2="1075.65" gradientTransform="translate(37.07 -53.87) rotate(3.55)" gradientUnits="userSpaceOnUse"><stop offset="0" stop-color="#d7a0ce"/><stop offset="0.07" stop-color="#daaad1"/><stop offset="0.3" stop-color="#e3c5d8"/><stop offset="0.53" stop-color="#ead8de"/><stop offset="0.76" stop-color="#eee4e1"/><stop offset="1" stop-color="#efe8e2"/></linearGradient><linearGradient id="linear-gradient-6" x1="-3662.4" y1="1228.92" x2="-3462.4" y2="1228.92" gradientTransform="translate(37.07 -53.87) rotate(3.55)" gradientUnits="userSpaceOnUse"><stop offset="0.12" stop-color="#6f75b5"/><stop offset="0.25" stop-color="#7177b6" stop-opacity="0.98"/><stop offset="0.37" stop-color="#777eba" stop-opacity="0.91"/><stop offset="0.49" stop-color="#8189c0" stop-opacity="0.81"/><stop offset="0.6" stop-color="#9099c8" stop-opacity="0.65"/><stop offset="0.71" stop-color="#a3add3" stop-opacity="0.46"/><stop offset="0.82" stop-color="#b9c6e0" stop-opacity="0.22"/><stop offset="0.82" stop-color="#bbc8e1" stop-opacity="0.2"/></linearGradient><linearGradient id="linear-gradient-7" x1="-4431.54" y1="1076.24" x2="-3462.4" y2="1076.24" gradientTransform="translate(37.07 -53.87) rotate(3.55)" gradientUnits="userSpaceOnUse"><stop offset="0" stop-color="#c4a8d1"/><stop offset="0.01" stop-color="#c5aad1"/><stop offset="0.25" stop-color="#d7c5d9"/><stop offset="0.5" stop-color="#e5d8de"/><stop offset="0.75" stop-color="#ece4e1"/><stop offset="1" stop-color="#efe8e2"/></linearGradient><linearGradient id="linear-gradient-8" x1="-4371.59" y1="721.61" x2="-3243.15" y2="721.61" xlink:href="#linear-gradient-2"/></defs><title>mountains</title><g class="cls-1"><g id="Layer_1" data-name="Layer 1"><path class="cls-2" d="M-3366.24,895.86c-429.93-3.72-700.28-7.41-1128.84,28.23,239.86-74.52,798.32-346,813.71-346,40.81-9.24,254.79,134.85,400.68,201.42" transform="translate(4880.6 -463.94)"/><g class="cls-3"><path class="cls-4" d="M-4202.1,810.38a10.13,10.13,0,0,0,3.4,5.54c5.06,4.16,12.36,1.95,18.81,1.61,13-.69,25.12,7.14,38.11,8.51,10.14,1.07,20.25-1.85,29.94-5.15,36.56-12.43,71-30.51,105.36-48.51L-3767,646.75l-109.85,36q98.12-49.37,193.56-104.15C-3709.66,586.63-3966.55,709.53-4202.1,810.38Z" transform="translate(4880.6 -463.94)"/></g><path class="cls-5" d="M-2958.64,654.06c-80.27-46.6-177.33-101.89-237.2-132.3-8.74-4.44-17.78-9-27.69-9.91-12.15-1.16-24,3.21-35.35,7.52-179.64,68.52-946.22,313.1-996.81,329.7-28.13,9.23-117.69,23.78-115.87,60.23q117.28,15.34,235.85,19.28c28.33.94,56.84,1.37,84.85-2.67,33.18-4.79,65-15.76,97.82-22.24,36.91-7.28,74.81-8.81,112.5-10.19q291.42-10.64,583.15-10.36l298.74-101.84Z" transform="translate(4880.6 -463.94)"/><path class="cls-6" d="M-4524.11,553.78c6.27-3.19,12.7-6.44,19.78-7.42,10.51-1.46,21,2.23,30.93,5.89q148.79,54.86,292.81,120.3C-4065,725.09-3952,782.58-3837,836.24c58.28,27.19,117.09,53.44,176.94,77.47,29.87,12,59.95,23.67,90.43,34.21,24.21,8.37,54.39,6.63,74,23.64l-157.43.67c-50.45.21-101,.42-151.28-3.69-34.56-2.83-68.93-7.69-103.54-9.7-84.68-4.92-169.45,7.27-254.21,4-81.33-3.09-161.3-20.3-242-30.45-102.07-12.84-205.25-14.37-307.91-21.56-42-2.94-87.63-8.4-117.38-36.38-31.67-29.77-35.43-78.71-17.8-117,26.06-56.57,80-79.86,134-107.39Q-4618.69,601.91-4524.11,553.78Z" transform="translate(4880.6 -463.94)"/><g class="cls-7"><path class="cls-8" d="M-4402.77,760.07l73.13,42.29c87.2,50.43,175.19,101.21,271.65,134.31a2242.72,2242.72,0,0,0-185-150.36,794.23,794.23,0,0,0,133.08,22.6c-79.52-40.37-151.55-98.51-105.49-95.69Q-4356.11,624.69-4504,546.34l-.32,0c-7.08,1-13.51,4.23-19.78,7.42q-94.56,48.17-189.11,96.34c-54,27.53-107.95,50.82-134,107.39-17.63,38.27-13.87,87.2,17.8,117,29.75,28,75.39,33.43,117.38,36.38,102.66,7.2,205.84,8.73,307.91,21.56,46.58,5.86,92.91,14.05,139.39,20.54Z" transform="translate(4880.6 -463.94)"/><path class="cls-9" d="M-3569.66,947.92c-22.34-7.72-44.47-16.07-66.45-24.69a133.68,133.68,0,0,1-33.41,34,166,166,0,0,1-26.56,15c14.34,0,28.67,0,43-.07l157.43-.67C-3515.27,954.55-3545.45,956.29-3569.66,947.92Z" transform="translate(4880.6 -463.94)"/></g><g class="cls-10"><path class="cls-11" d="M-3569.66,947.92c-30.48-10.54-60.57-22.22-90.43-34.21-59.85-24-118.65-50.28-176.94-77.47-115-53.66-227.94-111.15-343.55-163.68Q-4309,614.21-4441.4,564.21c82.23,38.2,283.48,132.44,397.89,192.62-27.32.68-43.12-2.62-70.43-1.94q88.47,27.12,174.79,59.83c9.35,3.54,19.13,7.44,25.29,14.81,4.19,5,6.34,11.25,10.47,16.31,10.1,12.35,26.69,16.43,41.55,22.07-54.82,7.28-108.2-20.51-163.54-24.47,64,35.51,121.59,79.79,183.72,117.93q3.5,2.15,7,4.26c10.09,1.05,20.18,2.06,30.29,2.89,50.29,4.11,100.83,3.9,151.28,3.69l157.43-.67C-3515.27,954.55-3545.45,956.29-3569.66,947.92Z" transform="translate(4880.6 -463.94)"/></g><g class="cls-10"><path class="cls-12" d="M-3654.95,883.86l247.27-154.41-53.27,6.42,173.36-132.2-53.66,75.72,31-19.25s-57.23,190.67-91.06,223.5C-3529.15,884.7-3654.95,883.86-3654.95,883.86Zm396.06-364.49c-179.64,68.52-946.22,313.1-996.81,329.7-28.13,9.23-117.69,23.78-115.87,60.23q117.28,15.34,235.85,19.28c28.33.94,56.84,1.37,84.85-2.67,33.18-4.79,65-15.76,97.82-22.24,36.91-7.28,74.81-8.81,112.5-10.19l2-.07c125.11-82.31,262.9-146.76,400-210.73-21.12,1.89-515.34,110.38-515.34,110.38s528.23-149.42,566.35-171.78L-3472,638.22-3243.15,514C-3248.49,515.47-3253.75,517.41-3258.88,519.37Zm-83,71.8,66.45-53.16-114.82,72.88Z" transform="translate(4880.6 -463.94)"/></g><rect class="cls-13" width="1921.97" height="442.33"/></g></g></svg>