<svg xmlns="http://www.w3.org/2000/svg" xmlns:xlink="http://www.w3.org/1999/xlink" viewBox="0 0 1920.77 567.52"><defs><style>.cls-1{isolation:isolate;}.cls-2{fill:url(#linear-gradient);}.cls-19,.cls-3,.cls-33{opacity:0.25;}.cls-17,.cls-21,.cls-22,.cls-23,.cls-28,.cls-3,.cls-31,.cls-32,.cls-33{mix-blend-mode:multiply;}.cls-4{fill:#543a98;}.cls-5{fill:url(#linear-gradient-2);}.cls-6{fill:url(#linear-gradient-3);}.cls-7{fill:url(#linear-gradient-4);}.cls-8{fill:url(#linear-gradient-5);}.cls-9{fill:url(#linear-gradient-6);}.cls-10{fill:url(#linear-gradient-7);}.cls-11{fill:url(#linear-gradient-8);}.cls-12{fill:url(#linear-gradient-9);}.cls-13{fill:url(#linear-gradient-10);}.cls-14{fill:url(#linear-gradient-11);}.cls-15{fill:url(#linear-gradient-12);}.cls-16{fill:url(#linear-gradient-13);}.cls-17,.cls-21,.cls-23,.cls-28,.cls-31{opacity:0.55;}.cls-17{fill:url(#linear-gradient-14);}.cls-18{fill:url(#linear-gradient-15);}.cls-19{mix-blend-mode:screen;}.cls-20{fill:url(#linear-gradient-16);}.cls-21{fill:url(#linear-gradient-17);}.cls-22{fill:url(#linear-gradient-18);}.cls-23{fill:url(#linear-gradient-19);}.cls-24{fill:url(#linear-gradient-20);}.cls-25{fill:url(#linear-gradient-21);}.cls-26{fill:url(#linear-gradient-22);}.cls-27{fill:url(#linear-gradient-23);}.cls-28{fill:url(#linear-gradient-24);}.cls-29{fill:url(#linear-gradient-25);}.cls-30{fill:url(#linear-gradient-26);}.cls-31{fill:url(#linear-gradient-27);}.cls-32{opacity:0.5;fill:url(#linear-gradient-28);}.cls-33{fill:url(#linear-gradient-29);}.cls-34{fill:url(#linear-gradient-30);}.cls-35{fill:url(#linear-gradient-31);}.cls-36{fill:none;}.cls-37{fill:url(#linear-gradient-32);}.cls-38{fill:url(#linear-gradient-33);}.cls-39{fill:url(#linear-gradient-34);}</style><linearGradient id="linear-gradient" x1="-1105.79" y1="-202.03" x2="-1394.3" y2="-701.74" gradientUnits="userSpaceOnUse"><stop offset="0" stop-color="#473c98"/><stop offset="0.56" stop-color="#7b83bd"/><stop offset="1" stop-color="#eeb9ba"/></linearGradient><linearGradient id="linear-gradient-2" x1="-1325.44" y1="-715.52" x2="-1326.47" y2="-715.52" gradientUnits="userSpaceOnUse"><stop offset="0" stop-color="#99a7d0"/><stop offset="0.14" stop-color="#b0acca"/><stop offset="0.35" stop-color="#cbb2c3"/><stop offset="0.56" stop-color="#deb6be"/><stop offset="0.78" stop-color="#eab8bb"/><stop offset="1" stop-color="#eeb9ba"/></linearGradient><linearGradient id="linear-gradient-3" x1="-1520.1" y1="-681.46" x2="-1521.16" y2="-681.46" xlink:href="#linear-gradient-2"/><linearGradient id="linear-gradient-4" x1="-1520.98" y1="-679.6" x2="-1521.09" y2="-679.6" xlink:href="#linear-gradient-2"/><linearGradient id="linear-gradient-5" x1="-752.14" y1="-689.23" x2="-2067.14" y2="-689.23" xlink:href="#linear-gradient-2"/><linearGradient id="linear-gradient-6" x1="-1520.18" y1="-678.89" x2="-1520.94" y2="-678.89" xlink:href="#linear-gradient-2"/><linearGradient id="linear-gradient-7" x1="-752.14" y1="-688.55" x2="-1655.72" y2="-688.55" gradientUnits="userSpaceOnUse"><stop offset="0" stop-color="#7b83bd" stop-opacity="0.1"/><stop offset="1" stop-color="#d7aec5" stop-opacity="0.7"/></linearGradient><linearGradient id="linear-gradient-8" x1="-1380.82" y1="-601.89" x2="-1307.4" y2="-474.73" gradientUnits="userSpaceOnUse"><stop offset="0.1" stop-color="#e2aab3"/><stop offset="0.99" stop-color="#8661ac"/></linearGradient><linearGradient id="linear-gradient-9" x1="-1001.14" y1="-754.95" x2="-862.28" y2="-514.43" xlink:href="#linear-gradient-8"/><linearGradient id="linear-gradient-10" x1="-1218.4" y1="-635.68" x2="-1152.49" y2="-521.52" xlink:href="#linear-gradient-8"/><linearGradient id="linear-gradient-11" x1="-1208" y1="-722.79" x2="-1121.59" y2="-423.39" gradientUnits="userSpaceOnUse"><stop offset="0.1" stop-color="#949ac1"/><stop offset="1" stop-color="#4c479e"/></linearGradient><linearGradient id="linear-gradient-12" x1="3476.4" y1="-479.63" x2="3521.18" y2="-479.63" gradientTransform="matrix(-1, 0, 0, 1, 4873.47, 908.11)" gradientUnits="userSpaceOnUse"><stop offset="0" stop-color="#9f8ac1"/><stop offset="0.6" stop-color="#8a86bf"/><stop offset="1" stop-color="#8285be"/></linearGradient><linearGradient id="linear-gradient-13" x1="3521.18" y1="-489.9" x2="3570.99" y2="-489.9" gradientTransform="matrix(-1, 0, 0, 1, 4873.47, 908.11)" gradientUnits="userSpaceOnUse"><stop offset="0" stop-color="#99a7d0"/><stop offset="0.25" stop-color="#b6adca"/><stop offset="0.55" stop-color="#d2b3c3"/><stop offset="0.81" stop-color="#e4b7bf"/><stop offset="1" stop-color="#eab8be"/></linearGradient><linearGradient id="linear-gradient-14" x1="3476.4" y1="-518.31" x2="3570.99" y2="-518.31" gradientTransform="matrix(-1, 0, 0, 1, 4873.47, 908.11)" gradientUnits="userSpaceOnUse"><stop offset="0" stop-color="#c3b1d4"/><stop offset="0.36" stop-color="#a9a8cf"/><stop offset="0.75" stop-color="#93a1cb"/><stop offset="1" stop-color="#8b9eca"/></linearGradient><linearGradient id="linear-gradient-15" x1="3472.73" y1="-519.26" x2="3573.3" y2="-519.26" gradientTransform="matrix(-1, 0, 0, 1, 4873.47, 908.11)" gradientUnits="userSpaceOnUse"><stop offset="0" stop-color="#99a7d0"/><stop offset="0.3" stop-color="#c1aabb"/><stop offset="0.58" stop-color="#ddacac"/><stop offset="0.82" stop-color="#efaea2"/><stop offset="1" stop-color="#f5ae9f"/></linearGradient><linearGradient id="linear-gradient-16" x1="-1217.48" y1="-519.14" x2="-1217.48" y2="-624.35" gradientUnits="userSpaceOnUse"><stop offset="0" stop-color="#c3b1d4"/><stop offset="0.01" stop-color="#c3b1d4" stop-opacity="0.99"/><stop offset="0.27" stop-color="#afaad0" stop-opacity="0.7"/><stop offset="0.51" stop-color="#9fa5ce" stop-opacity="0.46"/><stop offset="0.72" stop-color="#94a1cc" stop-opacity="0.29"/><stop offset="0.89" stop-color="#8d9fca" stop-opacity="0.19"/><stop offset="1" stop-color="#8b9eca" stop-opacity="0.15"/></linearGradient><linearGradient id="linear-gradient-17" x1="3484.46" y1="-511.7" x2="3498.79" y2="-511.7" xlink:href="#linear-gradient-14"/><linearGradient id="linear-gradient-18" x1="3542.52" y1="-498.35" x2="3557.24" y2="-498.35" gradientTransform="matrix(-1, 0, 0, 1, 2200.56, 0)" xlink:href="#linear-gradient-2"/><linearGradient id="linear-gradient-19" x1="3483.24" y1="-492.72" x2="3497.03" y2="-492.72" xlink:href="#linear-gradient-14"/><linearGradient id="linear-gradient-20" x1="3498.79" y1="-519.21" x2="3490.13" y2="-519.21" xlink:href="#linear-gradient-14"/><linearGradient id="linear-gradient-21" x1="3488.48" y1="-525.47" x2="3500.44" y2="-525.47" gradientTransform="matrix(-1, 0, 0, 1, 4873.47, 908.11)" gradientUnits="userSpaceOnUse"><stop offset="0" stop-color="#606ab0"/><stop offset="0.66" stop-color="#a590c4"/><stop offset="1" stop-color="#c4a1cd"/></linearGradient><linearGradient id="linear-gradient-22" x1="3230.35" y1="-459.66" x2="3305.1" y2="-459.66" gradientTransform="matrix(-1, 0, 0, 1, 4873.47, 908.11)" gradientUnits="userSpaceOnUse"><stop offset="0" stop-color="#857dba"/><stop offset="0.14" stop-color="#7e79b8"/><stop offset="0.66" stop-color="#686eb2"/><stop offset="1" stop-color="#606ab0"/></linearGradient><linearGradient id="linear-gradient-23" x1="3305.1" y1="-469.42" x2="3352.46" y2="-469.42" gradientTransform="matrix(-1, 0, 0, 1, 4873.47, 908.11)" gradientUnits="userSpaceOnUse"><stop offset="0" stop-color="#737dba"/><stop offset="1" stop-color="#9f9cc9"/></linearGradient><linearGradient id="linear-gradient-24" x1="3230.35" y1="-492.08" x2="3352.46" y2="-492.08" xlink:href="#linear-gradient-14"/><linearGradient id="linear-gradient-25" x1="3226.86" y1="-492.98" x2="3354.66" y2="-492.98" gradientTransform="matrix(-1, 0, 0, 1, 4873.47, 908.11)" gradientUnits="userSpaceOnUse"><stop offset="0" stop-color="#99a7d0"/><stop offset="0.11" stop-color="#9fa8cf"/><stop offset="1" stop-color="#cbacca"/></linearGradient><linearGradient id="linear-gradient-26" x1="-949.09" y1="-497.49" x2="-949.09" y2="-626.47" gradientTransform="translate(-8.71)" xlink:href="#linear-gradient-16"/><linearGradient id="linear-gradient-27" x1="3238.01" y1="-485.8" x2="3251.64" y2="-485.8" xlink:href="#linear-gradient-14"/><linearGradient id="linear-gradient-28" x1="3325.39" y1="-473.1" x2="3339.39" y2="-473.1" gradientTransform="matrix(-1, 0, 0, 1, 2200.56, 0)" xlink:href="#linear-gradient-2"/><linearGradient id="linear-gradient-29" x1="-1091.69" y1="-467.4" x2="-1062.83" y2="-467.4" gradientTransform="matrix(1, 0, 0, 1, 0, 0)" xlink:href="#linear-gradient-22"/><linearGradient id="linear-gradient-30" x1="3251.64" y1="-492.94" x2="3243.41" y2="-492.94" xlink:href="#linear-gradient-14"/><linearGradient id="linear-gradient-31" x1="3241.84" y1="-498.89" x2="3253.21" y2="-498.89" xlink:href="#linear-gradient-21"/><linearGradient id="linear-gradient-32" x1="-2672.16" y1="-701.68" x2="-1503.32" y2="-701.68" gradientUnits="userSpaceOnUse"><stop offset="0" stop-color="#a28fc4"/><stop offset="0.46" stop-color="#c2a1c0"/><stop offset="1" stop-color="#eeb9ba"/></linearGradient><linearGradient id="linear-gradient-33" x1="-2358.73" y1="-348.01" x2="-2111.32" y2="-776.53" gradientUnits="userSpaceOnUse"><stop offset="0" stop-color="#5960ab" stop-opacity="0.6"/><stop offset="1" stop-color="#d7aec5" stop-opacity="0.8"/></linearGradient><linearGradient id="linear-gradient-34" x1="-1143.3" y1="-180.77" x2="-1431.58" y2="-680.09" xlink:href="#linear-gradient"/></defs><title>small_mountain</title><g class="cls-1"><g id="Layer_1" data-name="Layer 1"><path class="cls-2" d="M-752.14-588.89C-915.2-589-1077-554.12-1240.26-547.4q-57.22,2.36-114.52.1c-32.87-1.3-56.63,2.56-88.58,9.54-60,13.11-120.17,25.57-180.32,38-48.13,10-96.33,19.73-144.25,30.66-18.48,4.22-43.24,6.58-59.08,17.25,3.57,1.8,7.68,1.8,12,1.8,92.75,0,216.57,5.27,329,3.81,6.49-.08,13.72.11,18.38,4.6,3.6,3.47,4.86,8.85,8.55,12.23s9.27,4.13,14.38,4.63a4908.16,4908.16,0,0,0,692.6,18.51Z" transform="translate(2672.91 908.11)"/><g class="cls-3"><path class="cls-4" d="M-1359.52-458.73c7.05-1.23,14-1.23,21-1.89,6.71-.63,13.56-4.74,20.32-6.07,14.92-2.95,30.23-2.61,45.34-3.74,19.19-1.44,38.11-5.36,57.23-7.55s38.83-2.6,57.28,2.85a12.48,12.48,0,0,1,5.73,2.94c2.7,2.86,2.25,7.64,0,10.86s-5.84,5.21-9.38,7c-11.52,5.69-23.85,10-36.63,11.37a169.12,169.12,0,0,1-19.13.62c-29.2-.15-58.52.48-87.67-.75a125.66,125.66,0,0,1-14.32-1.26c-3.16-.5-6.28-1.19-9.4-1.88-13.35-3-41.32-8.61-41.32-8.61S-1362.94-458.14-1359.52-458.73Z" transform="translate(2672.91 908.11)"/></g><path class="cls-5" d="M-1325.44-715.8a8.09,8.09,0,0,1-1,.56l.71-.17A1.16,1.16,0,0,1-1325.44-715.8Z" transform="translate(2672.91 908.11)"/><path class="cls-6" d="M-1520.1-681.37a4.44,4.44,0,0,1-1.06-.69l.81,1.21Z" transform="translate(2672.91 908.11)"/><path class="cls-7" d="M-1521-679.61l-.11-.06.07.15Z" transform="translate(2672.91 908.11)"/><path class="cls-8" d="M-752.14-668.35l-22-10.66c-35.37-.44-70.95-.89-105.84-5.35-.43-.64-.79-1.22-1-1.59a2.39,2.39,0,0,0,1.34.52,12.51,12.51,0,0,1-1.91-2.91,3.36,3.36,0,0,0,1.82.6,44.83,44.83,0,0,1-5.34-9.37,3.41,3.41,0,0,0,2,.68l-2-3.06a4.76,4.76,0,0,0,1.84,1,18,18,0,0,1-4-6.24l1.05.39a5.64,5.64,0,0,1-.91-2l1,.25c-2.84-2.82-3-6-4-9.91a1.88,1.88,0,0,0,.68.56,8.59,8.59,0,0,1-1.52-4.14,14.8,14.8,0,0,1-1.36,4.93c.2-.15.23,0,.43-.27a14.37,14.37,0,0,1-1.49,3.73c.16,0,.23-.08.48-.27a16,16,0,0,1-1.65,5.15c.41,0,.55-.24.91-.51a4.31,4.31,0,0,1-1.3,1.59,1.65,1.65,0,0,0,.71-.31,64.36,64.36,0,0,1-3.91,8.8,1.38,1.38,0,0,0,1.3-.77,13.45,13.45,0,0,1-2.28,4.56,4.39,4.39,0,0,0,2.13-1.16,28,28,0,0,1-3.2,6.65q-21.14-3.63-42-8.61a43.17,43.17,0,0,1-2.6-3.93,2.39,2.39,0,0,0,1.33.52,12.51,12.51,0,0,1-1.91-2.91,3.36,3.36,0,0,0,1.82.6,44.84,44.84,0,0,1-5.34-9.37,3.41,3.41,0,0,0,2,.67l-2-3.06a4.76,4.76,0,0,0,1.84,1,18,18,0,0,1-4-6.24l1.05.39a5.64,5.64,0,0,1-.91-2l1,.25c-2.84-2.82-3-6-4-9.91a1.88,1.88,0,0,0,.68.56,8.6,8.6,0,0,1-1.52-4.14,14.8,14.8,0,0,1-1.36,4.93c.2-.15.23,0,.43-.27a14.36,14.36,0,0,1-1.49,3.73c.16,0,.23-.08.48-.27a16,16,0,0,1-1.65,5.15c.41,0,.55-.24.91-.51a4.31,4.31,0,0,1-1.3,1.59,1.65,1.65,0,0,0,.71-.31,64.42,64.42,0,0,1-3.91,8.8,1.38,1.38,0,0,0,1.3-.77,13.45,13.45,0,0,1-2.28,4.56,4.39,4.39,0,0,0,2.12-1.16,27.72,27.72,0,0,1-3.13,6.55q-8.23-2.23-16.42-4.62a49.2,49.2,0,0,1-3.75-7.12,3.41,3.41,0,0,0,2,.67l-2-3.06a4.76,4.76,0,0,0,1.84,1,18,18,0,0,1-4-6.24l1.05.39a5.64,5.64,0,0,1-.91-2l1,.25c-2.84-2.82-3-6-4-9.91a1.87,1.87,0,0,0,.68.56,8.6,8.6,0,0,1-1.52-4.14,14.8,14.8,0,0,1-1.36,4.93c.2-.15.23,0,.43-.26a14.37,14.37,0,0,1-1.49,3.73c.16,0,.23-.08.48-.27a16,16,0,0,1-1.65,5.15c.41,0,.55-.24.91-.51a4.31,4.31,0,0,1-1.3,1.59,1.66,1.66,0,0,0,.71-.31,64.47,64.47,0,0,1-3.91,8.8,1.38,1.38,0,0,0,1.3-.77,12.79,12.79,0,0,1-1,2.49c-1.56-.49-3.11-1-4.67-1.5a39.87,39.87,0,0,1-2.32-3.53,2.39,2.39,0,0,0,1.34.52,12.5,12.5,0,0,1-1.91-2.91,3.36,3.36,0,0,0,1.82.6,44.83,44.83,0,0,1-5.34-9.37,3.41,3.41,0,0,0,2,.67l-2-3.06a4.76,4.76,0,0,0,1.84,1,18,18,0,0,1-4-6.24l1.05.39a5.64,5.64,0,0,1-.91-2l1,.25c-2.84-2.82-3-6-4-9.91a1.88,1.88,0,0,0,.68.56,8.6,8.6,0,0,1-1.52-4.14,14.8,14.8,0,0,1-1.36,4.93c.2-.15.23,0,.43-.27a14.35,14.35,0,0,1-1.49,3.73c.16,0,.23-.08.48-.27a16,16,0,0,1-1.65,5.15c.41,0,.55-.24.91-.51a4.31,4.31,0,0,1-1.3,1.59,1.65,1.65,0,0,0,.71-.31,64.46,64.46,0,0,1-3.91,8.8,1.38,1.38,0,0,0,1.3-.77,13.46,13.46,0,0,1-2.28,4.56,4.4,4.4,0,0,0,2.12-1.16,24.43,24.43,0,0,1-2.13,4.87q-8.51-2.95-17-6a48.09,48.09,0,0,1-4.22-7.79,3.41,3.41,0,0,0,2,.68l-2-3.06a4.76,4.76,0,0,0,1.84,1,18,18,0,0,1-4-6.25l1.05.39a5.64,5.64,0,0,1-.91-2l1,.25c-2.84-2.82-3-6-4-9.91a1.88,1.88,0,0,0,.68.56,8.6,8.6,0,0,1-1.52-4.14,14.8,14.8,0,0,1-1.36,4.93c.2-.15.23,0,.43-.27a14.36,14.36,0,0,1-1.49,3.73c.16,0,.23-.08.48-.27a16,16,0,0,1-1.65,5.15c.41,0,.55-.24.91-.51a4.31,4.31,0,0,1-1.3,1.59,1.65,1.65,0,0,0,.71-.31,19.09,19.09,0,0,1-1,2.74,17.88,17.88,0,0,1-3.57-5.79l1.05.39a5.63,5.63,0,0,1-.91-2l1,.25c-2.84-2.82-3-6-4-9.91a1.87,1.87,0,0,0,.68.56,8.6,8.6,0,0,1-1.52-4.14,14.8,14.8,0,0,1-1.36,4.93c.2-.15.23,0,.43-.27a14.34,14.34,0,0,1-1.49,3.73c.16,0,.23-.08.48-.27a16,16,0,0,1-1.65,5.15c.41,0,.55-.24.91-.51a4.31,4.31,0,0,1-1.3,1.59,1.66,1.66,0,0,0,.71-.31,64.46,64.46,0,0,1-3.91,8.8,1.38,1.38,0,0,0,1.3-.77,12.7,12.7,0,0,1-.52,1.36q-6.49-2.56-12.94-5.18a10.91,10.91,0,0,1-1.59-2.5,3.35,3.35,0,0,0,1.82.6,44.83,44.83,0,0,1-5.34-9.37,3.41,3.41,0,0,0,2,.68l-2-3.06a4.77,4.77,0,0,0,1.84,1,18,18,0,0,1-4-6.25l1.05.39a5.64,5.64,0,0,1-.91-2l1,.25c-2.84-2.82-3-6-4-9.91a1.88,1.88,0,0,0,.68.56,8.6,8.6,0,0,1-1.52-4.14,14.79,14.79,0,0,1-1.36,4.93c.2-.15.23,0,.43-.27a14.36,14.36,0,0,1-1.49,3.73c.16,0,.23-.08.48-.27a16,16,0,0,1-1.65,5.15c.41,0,.55-.24.91-.51a4.3,4.3,0,0,1-1.3,1.59,1.65,1.65,0,0,0,.71-.31,64.42,64.42,0,0,1-3.91,8.8,1.38,1.38,0,0,0,1.3-.77,13.29,13.29,0,0,1-1.86,3.89c-17.74-7.51-35.21-15.27-52.35-23.14-3-1.4-6.28-2.85-9.78-2.8-3.2,0-6.14,1.33-8.93,2.6-17.85,8.1-34.94,15.68-52,22.71a29.17,29.17,0,0,1-1.27-2.65l1.05.39a5.64,5.64,0,0,1-.91-2l1,.25c-2.84-2.82-3-6-4-9.91a1.87,1.87,0,0,0,.68.56,8.59,8.59,0,0,1-1.52-4.14,14.8,14.8,0,0,1-1.36,4.93c.2-.15.23,0,.43-.26a14.36,14.36,0,0,1-1.49,3.73c.16,0,.23-.08.48-.27a16,16,0,0,1-1.65,5.15c.41,0,.55-.24.91-.51a4.31,4.31,0,0,1-1.3,1.59,1.66,1.66,0,0,0,.71-.31,61.75,61.75,0,0,1-3.62,8.24q-4.68,1.86-9.39,3.66c-.63-1.21-1.22-2.42-1.67-3.49a3.41,3.41,0,0,0,2,.68l-2-3.06a4.77,4.77,0,0,0,1.84,1,18,18,0,0,1-4-6.25l1.05.39a5.64,5.64,0,0,1-.91-2l1,.25c-2.84-2.82-3-6-4-9.91a1.87,1.87,0,0,0,.68.56,8.6,8.6,0,0,1-1.52-4.14,14.8,14.8,0,0,1-1.36,4.93c.2-.15.23,0,.43-.26a14.36,14.36,0,0,1-1.49,3.73c.16,0,.23-.08.48-.27a16,16,0,0,1-1.65,5.15c.41,0,.55-.24.91-.51a4.31,4.31,0,0,1-1.3,1.59,1.66,1.66,0,0,0,.71-.31,64.37,64.37,0,0,1-3.91,8.8,1.38,1.38,0,0,0,1.3-.77,13.44,13.44,0,0,1-2.28,4.56,4.39,4.39,0,0,0,2.13-1.16,28.06,28.06,0,0,1-3.22,6.69A661.09,661.09,0,0,1-1331.54-714a49.28,49.28,0,0,1-3.68-7,3.41,3.41,0,0,0,2,.67l-2-3.06a4.76,4.76,0,0,0,1.84,1,18,18,0,0,1-4-6.24l1.05.39a5.64,5.64,0,0,1-.91-2l1,.25c-2.84-2.82-3-6-4-9.91a1.88,1.88,0,0,0,.68.56,8.6,8.6,0,0,1-1.52-4.14,14.81,14.81,0,0,1-1.36,4.93c.2-.15.23,0,.43-.27a14.37,14.37,0,0,1-1.49,3.73c.16,0,.23-.08.48-.27a16,16,0,0,1-1.65,5.15c.41,0,.55-.24.91-.51a4.31,4.31,0,0,1-1.3,1.59,1.66,1.66,0,0,0,.71-.31,64.36,64.36,0,0,1-3.91,8.8,1.38,1.38,0,0,0,1.3-.77,13.45,13.45,0,0,1-2.28,4.56,4.4,4.4,0,0,0,2.13-1.16,33.12,33.12,0,0,1-4.34,8.45l-.75.16a12.3,12.3,0,0,1-1.87-2.86,3.36,3.36,0,0,0,1.82.6,44.82,44.82,0,0,1-5.34-9.37,3.41,3.41,0,0,0,2,.67l-2-3.06a4.77,4.77,0,0,0,1.84,1,18,18,0,0,1-4-6.24l1.05.39a5.64,5.64,0,0,1-.91-2l1,.25c-2.84-2.82-3-6-4-9.91a1.88,1.88,0,0,0,.68.56,8.6,8.6,0,0,1-1.52-4.14,14.8,14.8,0,0,1-1.36,4.93c.2-.15.23,0,.43-.27a14.36,14.36,0,0,1-1.49,3.73c.16,0,.23-.08.48-.27a16,16,0,0,1-1.65,5.15c.41,0,.55-.24.91-.51a4.31,4.31,0,0,1-1.3,1.59,1.66,1.66,0,0,0,.71-.31,64.44,64.44,0,0,1-3.91,8.8,1.38,1.38,0,0,0,1.3-.77,13.45,13.45,0,0,1-2.28,4.56,4.39,4.39,0,0,0,2.12-1.16,31.79,31.79,0,0,1-4.07,8.05c-.62-1.19-1.19-2.36-1.63-3.41a3.41,3.41,0,0,0,2,.67l-2-3.06a4.77,4.77,0,0,0,1.84,1,18,18,0,0,1-4-6.24l1.05.39a5.65,5.65,0,0,1-.91-2l1,.25c-2.84-2.82-3-6-4-9.91a1.88,1.88,0,0,0,.68.56,8.6,8.6,0,0,1-1.52-4.14,14.79,14.79,0,0,1-1.36,4.93c.2-.15.23,0,.43-.26a14.36,14.36,0,0,1-1.49,3.73c.16,0,.23-.08.48-.27a16,16,0,0,1-1.65,5.15c.41,0,.55-.24.91-.51a4.31,4.31,0,0,1-1.3,1.59,1.66,1.66,0,0,0,.71-.31,64.45,64.45,0,0,1-3.91,8.8,1.38,1.38,0,0,0,1.3-.77,13.46,13.46,0,0,1-2.28,4.56,4.39,4.39,0,0,0,2.12-1.16,35.58,35.58,0,0,1-4.78,9.13L-1398-700c-.65-1.24-1.26-2.48-1.72-3.58a3.41,3.41,0,0,0,2,.68l-2-3.06a4.76,4.76,0,0,0,1.84,1,18,18,0,0,1-4-6.24l1.05.39a5.64,5.64,0,0,1-.91-2l1,.25c-2.84-2.82-3-6-4-9.91a1.88,1.88,0,0,0,.68.56,8.6,8.6,0,0,1-1.52-4.14,14.8,14.8,0,0,1-1.36,4.93c.2-.15.23,0,.43-.27a14.36,14.36,0,0,1-1.49,3.73c.16,0,.23-.08.48-.27a16,16,0,0,1-1.65,5.15c.41,0,.55-.24.91-.51a4.3,4.3,0,0,1-1.3,1.59,1.65,1.65,0,0,0,.71-.31,64.39,64.39,0,0,1-3.91,8.8,1.38,1.38,0,0,0,1.3-.77,13.45,13.45,0,0,1-2.28,4.56,4.39,4.39,0,0,0,2.13-1.16,22.56,22.56,0,0,1-1.4,3.43q-18.42,3.48-36.89,6.81a18.65,18.65,0,0,1-2.55-4.58l1.05.39a5.65,5.65,0,0,1-.91-2l1,.25c-2.84-2.82-3-6-4-9.91a1.88,1.88,0,0,0,.68.56,8.6,8.6,0,0,1-1.52-4.14,14.8,14.8,0,0,1-1.36,4.93c.2-.15.23,0,.43-.27a14.36,14.36,0,0,1-1.49,3.73c.16,0,.23-.08.48-.27a16,16,0,0,1-1.65,5.15c.41,0,.55-.24.91-.51a4.31,4.31,0,0,1-1.3,1.59,1.66,1.66,0,0,0,.71-.31,58.6,58.6,0,0,1-3.36,7.72l-2.16.39-7.48,1.35c-.16-.35-.34-.72-.48-1a3.41,3.41,0,0,0,2,.68l-2-3.06a4.76,4.76,0,0,0,1.84,1,18,18,0,0,1-4-6.24l1.05.39a5.64,5.64,0,0,1-.91-2l1,.25c-2.84-2.82-3-6-4-9.91a1.87,1.87,0,0,0,.68.56,8.6,8.6,0,0,1-1.52-4.14,14.8,14.8,0,0,1-1.36,4.93c.2-.15.23,0,.43-.27a14.36,14.36,0,0,1-1.49,3.73c.16,0,.23-.08.48-.27a16,16,0,0,1-1.65,5.15c.41,0,.55-.24.91-.51a4.31,4.31,0,0,1-1.3,1.59,1.66,1.66,0,0,0,.71-.31,25.31,25.31,0,0,1-1.37,3.5,5.59,5.59,0,0,1-.76-1.74l1,.25c-2.84-2.82-3-6-4-9.91a1.88,1.88,0,0,0,.68.56,8.6,8.6,0,0,1-1.52-4.14,14.79,14.79,0,0,1-1.36,4.93c.2-.15.23,0,.43-.27a14.35,14.35,0,0,1-1.49,3.73c.16,0,.23-.08.48-.27a16,16,0,0,1-1.65,5.15c.41,0,.55-.24.91-.51a4.3,4.3,0,0,1-1.3,1.59,1.65,1.65,0,0,0,.71-.31c-.18,2.8-3,9.91-5.77,11.37a16.21,16.21,0,0,1-4.92,1.39l-40.3,6.95c-3.41.59-37.07,7.71-37.74,6.48-.8-1.47-1.52-2.95-2.07-4.24a3.41,3.41,0,0,0,2,.68l-2-3.06a4.77,4.77,0,0,0,1.84,1,18,18,0,0,1-4-6.24l1.05.39a5.64,5.64,0,0,1-.91-2l1,.25c-2.84-2.82-3-6-4-9.91a1.87,1.87,0,0,0,.68.56,8.59,8.59,0,0,1-1.52-4.14,14.8,14.8,0,0,1-1.36,4.93c.2-.15.23,0,.43-.27a14.37,14.37,0,0,1-1.49,3.73c.16,0,.23-.08.48-.27a16,16,0,0,1-1.65,5.15c.41,0,.55-.24.91-.51a4.3,4.3,0,0,1-1.3,1.59,1.66,1.66,0,0,0,.71-.31,64.4,64.4,0,0,1-3.91,8.8,1.37,1.37,0,0,0,1.3-.77,13.44,13.44,0,0,1-2.28,4.56,4.39,4.39,0,0,0,2.12-1.16,23.21,23.21,0,0,1-1.68,4l-5.21.91a10.25,10.25,0,0,1-.64-1.18,3.36,3.36,0,0,0,1.82.6,44.82,44.82,0,0,1-5.34-9.37,3.41,3.41,0,0,0,2,.68l-2-3.06a4.77,4.77,0,0,0,1.84,1,18.05,18.05,0,0,1-4-6.24l1.05.39a5.64,5.64,0,0,1-.91-2l1,.25c-2.84-2.82-3-6-4-9.91a1.88,1.88,0,0,0,.68.56,8.6,8.6,0,0,1-1.52-4.14,14.8,14.8,0,0,1-1.36,4.93c.2-.15.23,0,.43-.26a14.36,14.36,0,0,1-1.49,3.73c.16,0,.23-.08.48-.27a16,16,0,0,1-1.65,5.15c.41,0,.55-.24.91-.51a4.3,4.3,0,0,1-1.3,1.59,1.66,1.66,0,0,0,.71-.31,64.46,64.46,0,0,1-3.91,8.8,1.38,1.38,0,0,0,1.3-.77,13.45,13.45,0,0,1-2.28,4.56,4.39,4.39,0,0,0,2.12-1.16c-1.08,3.55-3,6.42-5.22,9.82a8.78,8.78,0,0,0,2.72-1.19c-.36.24-.59,1-.8,1.38l-.2.32q-18.42,3.18-36.85,6.28a36.36,36.36,0,0,1-3.88-6.92,2.69,2.69,0,0,0,1.56.53l-1.62-2.42a3.76,3.76,0,0,0,1.45.81,14.23,14.23,0,0,1-3.13-4.92l.83.31a4.45,4.45,0,0,1-.72-1.57l.82.2c-2.24-2.23-2.36-4.77-3.17-7.81a1.48,1.48,0,0,0,.54.44,6.78,6.78,0,0,1-1.2-3.26,11.67,11.67,0,0,1-1.07,3.88c.16-.12.18,0,.34-.21a11.32,11.32,0,0,1-1.18,2.94c.12,0,.18-.06.38-.21a12.59,12.59,0,0,1-1.3,4.06c.32,0,.43-.19.72-.41a3.4,3.4,0,0,1-1,1.25,1.31,1.31,0,0,0,.56-.25,50.82,50.82,0,0,1-3.08,6.94,1.08,1.08,0,0,0,1-.61,10.61,10.61,0,0,1-1.8,3.6,3.46,3.46,0,0,0,1.68-.91,28.84,28.84,0,0,1-3.9,7.41c-19.29,3.2-39.12,2.17-58.44,5.19-.12-.21-.25-.44-.38-.74a2.64,2.64,0,0,0,1.43.47,35.33,35.33,0,0,1-4.21-7.39,2.69,2.69,0,0,0,1.56.53l-1.62-2.42a3.76,3.76,0,0,0,1.45.81,14.23,14.23,0,0,1-3.14-4.92l.83.31a4.45,4.45,0,0,1-.72-1.57l.82.2c-2.24-2.23-2.36-4.77-3.17-7.81a1.48,1.48,0,0,0,.54.44,6.78,6.78,0,0,1-1.2-3.26,11.67,11.67,0,0,1-1.07,3.88c.16-.12.18,0,.34-.21a11.33,11.33,0,0,1-1.18,2.94c.12,0,.18-.06.38-.21a12.59,12.59,0,0,1-1.3,4.06c.32,0,.43-.19.72-.41a3.39,3.39,0,0,1-1,1.25,1.3,1.3,0,0,0,.56-.25,50.8,50.8,0,0,1-3.08,6.94,1.08,1.08,0,0,0,1-.61,19.49,19.49,0,0,1-1.49,3.35,5.36,5.36,0,0,1,1.16-.29,22.68,22.68,0,0,1-3.13,6.14s-13.33,2.18-20.19,3.22c-11.81,1.8-20.69,3.71-32.48,5.74-12.54,2.15-7.6-6.77-14.43-10.81a3.41,3.41,0,0,0,2,.67l-2-3.06a4.77,4.77,0,0,0,1.84,1,18,18,0,0,1-4-6.24l1.05.39a5.65,5.65,0,0,1-.91-2l1,.25c-2.84-2.82-3-6-4-9.91a1.88,1.88,0,0,0,.68.56,8.6,8.6,0,0,1-1.52-4.14,14.8,14.8,0,0,1-1.36,4.93c.2-.15.23,0,.43-.26a14.36,14.36,0,0,1-1.49,3.73c.16,0,.23-.08.48-.27a16,16,0,0,1-1.65,5.15c.41,0,.55-.24.91-.51a4.31,4.31,0,0,1-1.3,1.59,1.66,1.66,0,0,0,.71-.31,64.42,64.42,0,0,1-3.91,8.8,1.38,1.38,0,0,0,1.3-.77,13.45,13.45,0,0,1-2.28,4.56,4.39,4.39,0,0,0,2.12-1.16c-1.08,3.55-3,6.42-5.22,9.82a8.79,8.79,0,0,0,2.72-1.19c-.36.24-.59,1-.8,1.38s-.61,1-.93,1.43c-.17.25-.36.49-.53.73-10.1,1.36-24.42,3.52-34.53,4.81a7.08,7.08,0,0,1-1-1.63,2.11,2.11,0,0,0,1.14.38,28.23,28.23,0,0,1-3.36-5.9,2.14,2.14,0,0,0,1.25.42l-1.29-1.93a3,3,0,0,0,1.16.65,11.36,11.36,0,0,1-2.5-3.93l.66.24a3.55,3.55,0,0,1-.57-1.25l.66.16c-1.79-1.78-1.88-3.81-2.53-6.24a1.18,1.18,0,0,0,.43.35,5.41,5.41,0,0,1-1-2.6,9.32,9.32,0,0,1-.86,3.1c.12-.09.14,0,.27-.17a9,9,0,0,1-.94,2.35c.1,0,.14-.05.3-.17a10,10,0,0,1-1,3.24c.26,0,.34-.15.58-.32a2.71,2.71,0,0,1-.82,1,1,1,0,0,0,.45-.2,40.55,40.55,0,0,1-2.46,5.54.87.87,0,0,0,.82-.49,8.47,8.47,0,0,1-1.43,2.87,2.77,2.77,0,0,0,1.34-.73,24.14,24.14,0,0,1-3.28,6.18,5.53,5.53,0,0,0,1.71-.75c-.23.15-.37.65-.5.87l-.38.58c-41,5.08-145.66,12.85-186.92,16.38,52.14,3.19,482.49-3.08,552.56-.63,73.25,2.56,446,4.19,549.41,3.23,75.73-.7,143.38,2.91,213,2.16ZM-1867.58-626.1l-.11-.19a1.3,1.3,0,0,0,.29.17ZM-1672.74-651l-.49.08a6.45,6.45,0,0,0,.74-.41A1,1,0,0,0-1672.74-651Zm14.48-2.41-.09-.18a3,3,0,0,0,.3.14Zm174.43-37.81c-.15-.34-.31-.69-.48-1.09l.83.31Zm94.18-10.38-.09,0,.15-.08Zm17-6.62-.32-.57a8.12,8.12,0,0,0,1-.54A2.88,2.88,0,0,0-1372.66-708.25Zm19.56-.93c-.14-.23-.3-.49-.39-.66a2.35,2.35,0,0,0,1.19.48Zm255.82-39.47-.67-.28a3.93,3.93,0,0,0,1.06-.75C-1097-749.33-1097.15-749-1097.28-748.66Zm42.89,12c-.09-.2-.2-.42-.28-.61l.45.26Zm.67-1.48-1-1.52a4.59,4.59,0,0,0,1.33.81Z" transform="translate(2672.91 908.11)"/><path class="cls-9" d="M-1520.94-679.35c.14.31.3.65.45,1,.12-.27.22-.55.32-.83a3.89,3.89,0,0,1-.48-.23A1.58,1.58,0,0,1-1520.94-679.35Z" transform="translate(2672.91 908.11)"/><path class="cls-10" d="M-752.14-670.2l-22-8.82c-35.37-.44-70.95-.89-105.84-5.35-.43-.64-.79-1.22-1-1.59a2.39,2.39,0,0,0,1.34.52,12.5,12.5,0,0,1-1.91-2.91,3.36,3.36,0,0,0,1.82.6,44.84,44.84,0,0,1-5.34-9.37,3.41,3.41,0,0,0,2,.67l-2-3.06a4.77,4.77,0,0,0,1.84,1,18,18,0,0,1-4-6.24l1.05.39a5.64,5.64,0,0,1-.91-2l1,.25c-2.84-2.82-3-6-4-9.91a1.87,1.87,0,0,0,.68.56,8.6,8.6,0,0,1-1.52-4.14,14.8,14.8,0,0,1-1.36,4.93c.2-.15.23,0,.43-.27a14.37,14.37,0,0,1-1.49,3.73c.16,0,.23-.08.48-.27a16,16,0,0,1-1.65,5.15c.41,0,.55-.24.91-.51a4.31,4.31,0,0,1-1.3,1.59,1.65,1.65,0,0,0,.71-.31,64.38,64.38,0,0,1-3.91,8.8,1.38,1.38,0,0,0,1.3-.77,13.46,13.46,0,0,1-2.28,4.56,4.39,4.39,0,0,0,2.13-1.16,28,28,0,0,1-3.2,6.65q-21.14-3.63-42-8.61a43.21,43.21,0,0,1-2.6-3.93,2.39,2.39,0,0,0,1.33.52,12.51,12.51,0,0,1-1.91-2.91,3.36,3.36,0,0,0,1.82.6,44.84,44.84,0,0,1-5.34-9.37,3.41,3.41,0,0,0,2,.67l-2-3.06a4.77,4.77,0,0,0,1.84,1,18,18,0,0,1-4-6.24l1.05.39a5.64,5.64,0,0,1-.91-2l1,.25c-2.84-2.82-3-6-4-9.91a1.87,1.87,0,0,0,.68.56,8.59,8.59,0,0,1-1.52-4.14,14.8,14.8,0,0,1-1.36,4.93c.2-.15.23,0,.43-.27a14.36,14.36,0,0,1-1.49,3.73c.16,0,.23-.08.48-.27a16,16,0,0,1-1.65,5.15c.41,0,.55-.24.91-.51a4.31,4.31,0,0,1-1.3,1.59,1.65,1.65,0,0,0,.71-.31,64.42,64.42,0,0,1-3.91,8.8,1.38,1.38,0,0,0,1.3-.77,13.45,13.45,0,0,1-2.28,4.56,4.39,4.39,0,0,0,2.12-1.16,27.72,27.72,0,0,1-3.13,6.55q-8.23-2.23-16.42-4.62a49.15,49.15,0,0,1-3.75-7.12,3.41,3.41,0,0,0,2,.68l-2-3.06a4.76,4.76,0,0,0,1.84,1,18,18,0,0,1-4-6.25l1.05.39a5.64,5.64,0,0,1-.91-2l1,.25c-2.84-2.82-3-6-4-9.91a1.87,1.87,0,0,0,.68.56,8.59,8.59,0,0,1-1.52-4.14,14.8,14.8,0,0,1-1.36,4.93c.2-.15.23,0,.43-.27a14.36,14.36,0,0,1-1.49,3.73c.16,0,.23-.08.48-.27a16,16,0,0,1-1.65,5.15c.41,0,.55-.24.91-.51a4.31,4.31,0,0,1-1.3,1.59,1.65,1.65,0,0,0,.71-.31,64.47,64.47,0,0,1-3.91,8.8,1.38,1.38,0,0,0,1.3-.77,12.79,12.79,0,0,1-1,2.49c-1.56-.49-3.11-1-4.67-1.5a39.93,39.93,0,0,1-2.32-3.53,2.39,2.39,0,0,0,1.34.52,12.5,12.5,0,0,1-1.91-2.91,3.36,3.36,0,0,0,1.82.6,44.82,44.82,0,0,1-5.34-9.37,3.41,3.41,0,0,0,2,.68l-2-3.06a4.77,4.77,0,0,0,1.84,1,18,18,0,0,1-4-6.25l1.05.39a5.64,5.64,0,0,1-.91-2l1,.25c-2.7-2.68-3-5.74-3.88-9.35l-1.81-.43a6.81,6.81,0,0,1-.53,1.22c.2-.15.23,0,.43-.27a14.36,14.36,0,0,1-1.49,3.73c.16,0,.23-.08.48-.27a16,16,0,0,1-1.65,5.15c.41,0,.55-.24.91-.51a4.31,4.31,0,0,1-1.3,1.59,1.65,1.65,0,0,0,.71-.31,64.41,64.41,0,0,1-3.91,8.8,1.38,1.38,0,0,0,1.3-.77,13.45,13.45,0,0,1-2.28,4.56,4.39,4.39,0,0,0,2.12-1.16,24.44,24.44,0,0,1-2.13,4.87q-8.51-2.95-17-6a48.09,48.09,0,0,1-4.22-7.79,3.41,3.41,0,0,0,2,.68l-2-3.06a4.77,4.77,0,0,0,1.84,1,18,18,0,0,1-4-6.24l1.05.39a5.64,5.64,0,0,1-.91-2l1,.25c-2.84-2.82-3-6-4-9.91a1.88,1.88,0,0,0,.68.56,8.6,8.6,0,0,1-1.52-4.14,14.8,14.8,0,0,1-1.36,4.93c.2-.15.23,0,.43-.27a14.36,14.36,0,0,1-1.49,3.73c.16,0,.23-.08.48-.27a16,16,0,0,1-1.65,5.15c.41,0,.55-.24.91-.51a4.31,4.31,0,0,1-1.3,1.59,1.65,1.65,0,0,0,.71-.31,19.09,19.09,0,0,1-1,2.74,17.88,17.88,0,0,1-3.57-5.79l1.05.39a5.63,5.63,0,0,1-.91-2l1,.25c-2.84-2.82-3-6-4-9.91a1.88,1.88,0,0,0,.68.56,8.6,8.6,0,0,1-1.52-4.14,14.8,14.8,0,0,1-1.36,4.93c.2-.15.23,0,.43-.27a14.36,14.36,0,0,1-1.49,3.73c.16,0,.23-.08.48-.27a16,16,0,0,1-1.65,5.15c.41,0,.55-.24.91-.51a4.31,4.31,0,0,1-1.3,1.59,1.66,1.66,0,0,0,.71-.31,64.47,64.47,0,0,1-3.91,8.8,1.37,1.37,0,0,0,1.3-.77,12.69,12.69,0,0,1-.52,1.36q-6.49-2.56-12.94-5.18a10.91,10.91,0,0,1-1.59-2.5,3.36,3.36,0,0,0,1.82.6,44.84,44.84,0,0,1-5.34-9.37,3.41,3.41,0,0,0,2,.68l-2-3.06a4.77,4.77,0,0,0,1.84,1,18,18,0,0,1-4-6.25l1.05.39a5.64,5.64,0,0,1-.91-2l1,.25c-2.16-2.14-2.76-4.52-3.38-7.23l-2.66-.73a16.09,16.09,0,0,1-1.24,2.86c.16,0,.23-.08.48-.27a16,16,0,0,1-1.65,5.15c.41,0,.55-.24.91-.51a4.31,4.31,0,0,1-1.3,1.59,1.66,1.66,0,0,0,.71-.31,64.43,64.43,0,0,1-3.91,8.8,1.38,1.38,0,0,0,1.3-.77,13.29,13.29,0,0,1-1.86,3.89c-17.74-7.51-35.21-15.27-52.35-23.14-1.38-.63-2.81-1.27-4.27-1.78a21.71,21.71,0,0,0-9.5,6.39c-3.87,4.75-4.33,10.78-7.1,16-13.74,26-69.79,17.18-87.28,41.68-2.2,3.08-3.6,6.52-6.12,9.43-3.29,3.79-8.22,6.41-13.08,8.85-109.43,55-248.79,75.69-377.43,82.73,61-1.23,119.14-.53,141.14.24,73.25,2.56,446,4.19,549.41,3.23,76.28-.7,142.7,3.33,213,2.48Zm-345.14-78.46-.67-.28a3.93,3.93,0,0,0,1.06-.75C-1097-749.33-1097.15-749-1097.28-748.66Zm42.89,12c-.09-.2-.2-.42-.28-.61l.45.26Zm.67-1.48-1-1.52a4.6,4.6,0,0,0,1.33.81Z" transform="translate(2672.91 908.11)"/><g class="cls-3"><path class="cls-4" d="M-1139.55-444.11c7.05-1.23,14-1.23,21-1.89,6.71-.63,13.56-4.73,20.32-6.07,14.92-2.95,30.23-2.61,45.34-3.74,19.19-1.44,38.11-5.36,57.23-7.55s38.83-2.6,57.28,2.85a12.48,12.48,0,0,1,5.73,2.94c2.7,2.86,2.25,7.64,0,10.86s-18.81,10.67-25.2,10.64c-29.2-.16-98.47,8.79-127.62,7.56a125.52,125.52,0,0,1-14.32-1.26c-3.16-.5-6.28-1.19-9.4-1.88-13.35-3-41.32-8.61-41.32-8.61S-1143-443.52-1139.55-444.11Z" transform="translate(2672.91 908.11)"/></g><path class="cls-11" d="M-1240.45-548a27.43,27.43,0,0,1-4-6.36,6.93,6.93,0,0,0,3.83,1.31,98.8,98.8,0,0,1-11.28-20.47,7,7,0,0,0,4.19,1.47l-4.33-6.69a10,10,0,0,0,3.88,2.24c-4.57-5.14-6-7.8-8.4-13.64l2.22.85a12.52,12.52,0,0,1-1.92-4.35l2.2.55c-6-6.16-6.31-13.21-8.48-21.64a4,4,0,0,0,1.45,1.23,19.17,19.17,0,0,1-3.22-9c0,2.17-1.57,8.56-2.87,10.76.42-.32.48,0,.91-.58a32,32,0,0,1-3.15,8.14c.33,0,.49-.18,1-.59-.51,3.32-.94,5.61-3.49,11.25.86,0,1.15-.53,1.93-1.12a9.35,9.35,0,0,1-2.74,3.46,3.44,3.44,0,0,0,1.5-.68c-.07,1.12-4.25,11.32-8.25,19.21a2.9,2.9,0,0,0,2.75-1.69,29.77,29.77,0,0,1-4.81,10,9.19,9.19,0,0,0,4.49-2.53c-2.19,7.46-6.05,13.57-10.53,20.65a135.64,135.64,0,0,1-8.74-13.14,4.94,4.94,0,0,0,2.82,1.13,27.41,27.41,0,0,1-4-6.36,6.93,6.93,0,0,0,3.83,1.31A98.79,98.79,0,0,1-1305-583.8a7,7,0,0,0,4.19,1.47l-4.33-6.69a10,10,0,0,0,3.88,2.24c-4.57-5.14-6-7.8-8.4-13.64l2.22.85a12.52,12.52,0,0,1-1.92-4.35l2.2.55c-6-6.16-6.31-13.21-8.48-21.64a4,4,0,0,0,1.45,1.23,19.17,19.17,0,0,1-3.22-9c0,2.17-1.57,8.56-2.87,10.76.42-.32.48,0,.91-.58a32,32,0,0,1-3.15,8.14c.33,0,.49-.18,1-.59-.51,3.32-.94,5.61-3.49,11.25.86,0,1.15-.53,1.93-1.12a9.34,9.34,0,0,1-2.74,3.46,3.44,3.44,0,0,0,1.5-.68c-.07,1.12-4.25,11.32-8.25,19.21a2.9,2.9,0,0,0,2.75-1.69,29.77,29.77,0,0,1-4.81,10,9.19,9.19,0,0,0,4.49-2.53c-1.83,6.22-4.83,11.51-8.36,17.19-1.42-2.79-2.69-5.55-3.69-8a7,7,0,0,0,4.19,1.47l-4.33-6.69a10,10,0,0,0,3.88,2.24c-4.57-5.14-6-7.8-8.4-13.64l2.22.85a12.52,12.52,0,0,1-1.92-4.35l2.2.55c-6-6.16-6.31-13.21-8.48-21.64a4,4,0,0,0,1.45,1.23,19.17,19.17,0,0,1-3.22-9c0,2.17-1.57,8.56-2.87,10.76.42-.32.48,0,.91-.58a32,32,0,0,1-3.15,8.14c.33,0,.49-.18,1-.59-.51,3.32-.94,5.61-3.49,11.25.86,0,1.15-.53,1.93-1.12a9.35,9.35,0,0,1-2.74,3.46,3.44,3.44,0,0,0,1.5-.68c-.07,1.12-4.25,11.32-8.25,19.21a2.9,2.9,0,0,0,2.75-1.69,29.77,29.77,0,0,1-4.81,10,9.19,9.19,0,0,0,4.49-2.53c-2.27,7.74-6.33,14-11,21.44a18.23,18.23,0,0,0,5.74-2.59c-.77.53-1.25,2.26-1.69,3q-.94,1.58-2,3.13c-1.32,2-2.73,4-4.18,6-1.28,1.74-2.46,3.48-3.66,5.22-1.18-1.77-2.1-3.25-2.56-4.16a3.73,3.73,0,0,0,2.13.85,20.67,20.67,0,0,1-3-4.79,5.23,5.23,0,0,0,2.89,1,74.47,74.47,0,0,1-8.5-15.43,5.31,5.31,0,0,0,3.16,1.11l-3.26-5a7.53,7.53,0,0,0,2.92,1.69,29.84,29.84,0,0,1-6.33-10.28l1.67.64a9.43,9.43,0,0,1-1.44-3.28l1.66.41c-4.52-4.64-4.76-10-6.39-16.31a3,3,0,0,0,1.09.92,14.45,14.45,0,0,1-2.43-6.81,25,25,0,0,1-2.16,8.11c.31-.24.36,0,.69-.44a24.11,24.11,0,0,1-2.38,6.14c.25,0,.37-.14.77-.44a26.93,26.93,0,0,1-2.63,8.47c.65,0,.87-.4,1.46-.85a7,7,0,0,1-2.07,2.61,2.59,2.59,0,0,0,1.13-.51c-.05.85-3.2,8.53-6.22,14.48a2.18,2.18,0,0,0,2.07-1.27,22.44,22.44,0,0,1-3.63,7.51,6.93,6.93,0,0,0,3.38-1.91c-1.52,5.16-4.11,9.48-7.13,14.28-1-2-2-4-2.72-5.78a4.43,4.43,0,0,0,2.63.93l-2.72-4.21a6.28,6.28,0,0,0,2.44,1.41,24.9,24.9,0,0,1-5.28-8.57l1.4.53a7.87,7.87,0,0,1-1.21-2.73l1.38.34c-3.77-3.88-4-8.31-5.33-13.61a2.5,2.5,0,0,0,.91.77,12.06,12.06,0,0,1-2-5.68,20.86,20.86,0,0,1-1.8,6.76c.26-.2.3,0,.57-.36a20.1,20.1,0,0,1-2,5.12c.21,0,.31-.11.64-.37a22.47,22.47,0,0,1-2.19,7.07c.54,0,.72-.33,1.21-.71a5.88,5.88,0,0,1-1.72,2.18,2.16,2.16,0,0,0,.94-.43c0,.71-2.67,7.12-5.19,12.08a1.82,1.82,0,0,0,1.73-1.06,18.71,18.71,0,0,1-3,6.27,5.78,5.78,0,0,0,2.82-1.59c-1.43,4.87-4,8.81-6.93,13.48a11.46,11.46,0,0,0,3.61-1.63c-.49.34-.78,1.42-1.06,1.89-.39.66-.8,1.32-1.23,2-.83,1.27-1.72,2.51-2.63,3.75-1.77,2.42-3.28,4.84-5.16,7.22a11.78,11.78,0,0,1,1.83-.88,17.88,17.88,0,0,1-1.83,3.15,24.65,24.65,0,0,0,12.25-1.44l-.48,1.37a21.65,21.65,0,0,0,2.38-.9c1.14,1,5.82,2.61,5.82,2.61a3.49,3.49,0,0,1,.13-2.1c1,.63,13.5,2.4,17.89,2.1a8.84,8.84,0,0,1-1.81-3.17c1.33.61,3.23,2.1,6.46,2.1a7,7,0,0,1-2.67-2.45c2,.28,4.77.85,6.78.62a62.94,62.94,0,0,1-4.63-5.57c2.11,1,4.81,1.89,4.81,1.89a4.18,4.18,0,0,1,.16-2.51c1.25.76,16.18,2.88,21.45,2.51a10.59,10.59,0,0,1-2.17-3.8c1.59.74,3.87,2.52,7.74,2.52a8.39,8.39,0,0,1-3.2-2.94c2.39.33,5.71,1,8.12.74a69.24,69.24,0,0,1-5-5.93,47.82,47.82,0,0,0,8-2.11l-.76,2.18a34.3,34.3,0,0,0,3.79-1.43c1.82,1.64,9.25,4.16,9.25,4.16,0-.77-.51-1.81.21-3.34,1.66,1,21.46,3.82,28.46,3.34a14.06,14.06,0,0,1-2.88-5c2.11,1,5.14,3.34,10.27,3.34a11.13,11.13,0,0,1-4.25-3.9c3.18.44,7.58,1.35,10.78,1a133.7,133.7,0,0,1-10.52-13.11c2.5,1.06,5.11,1.95,5.11,1.95,0-.77-.51-1.81.21-3.34,1.38.84,15.43,2.94,24.1,3.32-1,1.37-1.95,2.73-3,4.09a18.76,18.76,0,0,1,2.91-1.41,28.4,28.4,0,0,1-2.91,5c6.33,1.17,13.6-.16,19.48-2.29l-.76,2.18a34.35,34.35,0,0,0,3.79-1.43c1.82,1.64,9.25,4.16,9.25,4.16,0-.77-.51-1.81.21-3.34,1.66,1,21.46,3.82,28.46,3.34a14.06,14.06,0,0,1-2.88-5c2.11,1,5.14,3.34,10.27,3.34a11.13,11.13,0,0,1-4.25-3.9c3.18.44,7.58,1.35,10.78,1-5.16-5.18-16.87-21.56-19.26-26.25A5,5,0,0,0-1240.45-548Z" transform="translate(2672.91 908.11)"/><path class="cls-12" d="M-752.14-578v-131.8c-1.63-3.12-3.13-6.54-4.91-10.79l4.47,1.7a25.23,25.23,0,0,1-3.86-8.76l4.3,1.07v-.11c-12-12.39-12.6-26.54-17-43.47a8,8,0,0,0,2.91,2.47c-4-5.38-5.68-12-6.49-18.2,0,4.38-3.16,17.26-5.78,21.68.84-.64,1,.05,1.84-1.17-2,8.06-3.49,10.49-6.36,16.41.66,0,1-.36,2.06-1.18-1,6.7-1.89,11.3-7,22.66,1.74,0,2.32-1.06,3.89-2.26a18.85,18.85,0,0,1-5.53,7,6.94,6.94,0,0,0,3-1.37c-.14,2.27-8.57,22.81-16.63,38.72,2.55,0,5-1.51,5.54-3.41a60,60,0,0,1-9.7,20.08,18.53,18.53,0,0,0,9-5.09,104.15,104.15,0,0,1-7.07,17.6c-4.81-5.83-6.79-9.83-9.92-17.31l3.31,1.26a18.69,18.69,0,0,1-2.86-6.49l3.29.82c-9-9.2-9.42-19.72-12.66-32.31a6,6,0,0,0,2.16,1.83c-3-4-4.21-8.92-4.81-13.48,0,3.25-2.34,12.78-4.29,16.06.62-.48.72,0,1.36-.86-1.47,6-2.58,7.77-4.71,12.16.49,0,.73-.27,1.52-.88-.77,5-1.4,8.37-5.21,16.79,1.29,0,1.72-.79,2.88-1.68a14,14,0,0,1-4.09,5.17,5.14,5.14,0,0,0,2.23-1c-.09,1.43-4.65,12.73-9.7,23.34-2.3-4.57-4.36-9.07-6-13.1,2.56,1.57,4,2.48,7.24,2.55L-853.12-675a17.26,17.26,0,0,0,6.71,3.87c-7.9-8.88-10.29-13.49-14.51-23.57l3.84,1.46a21.65,21.65,0,0,1-3.31-7.51l3.8.95c-10.37-10.65-10.91-22.83-14.66-37.41a6.9,6.9,0,0,0,2.5,2.12c-3.44-4.61-4.87-10.33-5.56-15.61,0,3.76-2.71,14.8-5,18.6.72-.55.83,0,1.58-1-1.7,6.91-3,9-5.45,14.08.57,0,.84-.31,1.76-1-.89,5.74-1.62,9.69-6,19.44,1.49,0,2-.91,3.34-1.94a16.16,16.16,0,0,1-4.74,6,6,6,0,0,0,2.59-1.18c-.12,1.94-7.35,19.56-14.27,33.21,2.19,0,4.25-1.29,4.75-2.92a51.46,51.46,0,0,1-8.32,17.22,15.88,15.88,0,0,0,7.76-4.37,88.19,88.19,0,0,1-5.59,14.17c-6.17-7.06-8.25-11.1-11.75-19.44l3.31,1.26a18.69,18.69,0,0,1-2.86-6.49l3.29.82c-9-9.2-9.42-19.72-12.66-32.31a6,6,0,0,0,2.16,1.83c-3-4-4.21-8.92-4.81-13.48,0,3.25-2.34,12.78-4.29,16.06.62-.48.72,0,1.36-.86-1.47,6-2.58,7.77-4.71,12.16.49,0,.73-.27,1.52-.88-.77,5-1.4,8.37-5.21,16.79,1.29,0,1.72-.79,2.88-1.68a14,14,0,0,1-4.09,5.17,5.13,5.13,0,0,0,2.23-1c-.1,1.68-6.35,16.9-12.32,28.69,1.89,0,3.67-1.12,4.11-2.52a44.45,44.45,0,0,1-7.18,14.88,13.72,13.72,0,0,0,6.7-3.77,80.67,80.67,0,0,1-6.56,15.59c-4-5.07-5.89-9-8.74-15.83l3.31,1.26a18.69,18.69,0,0,1-2.86-6.49l3.28.82c-9-9.2-9.42-19.72-12.66-32.31a6,6,0,0,0,2.16,1.83c-3-4-4.21-8.92-4.81-13.48,0,3.25-2.34,12.78-4.29,16.06.62-.48.72,0,1.36-.86-1.47,6-2.58,7.77-4.71,12.16.49,0,.73-.27,1.52-.88-.77,5-1.4,8.37-5.21,16.79,1.29,0,1.72-.79,2.88-1.68a14,14,0,0,1-4.09,5.17,5.14,5.14,0,0,0,2.23-1c-.1,1.68-6.35,16.9-12.32,28.69,1.89,0,3.67-1.12,4.11-2.52A44.46,44.46,0,0,1-996.79-587a13.73,13.73,0,0,0,6.7-3.77c-2.25,7.67-5.69,14.37-9.78,21.25-2.25-3.38-4-6.21-4.89-8a7.39,7.39,0,0,0,4.21,1.68c-2.83-3.76-4.12-5.25-6-9.49a10.35,10.35,0,0,0,5.72,2c-6.43-8.44-13-21-16.85-30.56,2.21,1.36,3.42,2.14,6.25,2.2l-6.46-10a14.91,14.91,0,0,0,5.79,3.34c-6.83-7.67-8.89-11.65-12.54-20.36l3.31,1.26a18.69,18.69,0,0,1-2.86-6.49l3.28.82c-9-9.2-9.42-19.72-12.66-32.31a6,6,0,0,0,2.16,1.83c-3-4-4.21-8.92-4.81-13.48,0,3.25-2.34,12.78-4.29,16.06.62-.48.72,0,1.36-.86-1.47,6-2.58,7.77-4.71,12.16.49,0,.73-.27,1.52-.88-.77,5-1.4,8.37-5.21,16.79,1.29,0,1.72-.79,2.88-1.68a14,14,0,0,1-4.09,5.17,5.14,5.14,0,0,0,2.23-1c-.08,1.4-4.42,12.15-9.31,22.52a163.15,163.15,0,0,1-7.75-16.19c2.21,1.36,3.42,2.14,6.25,2.2l-6.46-10a14.91,14.91,0,0,0,5.79,3.34c-6.83-7.67-8.89-11.65-12.54-20.36l3.31,1.26a18.69,18.69,0,0,1-2.86-6.49l3.28.82c-9-9.2-9.42-19.72-12.66-32.31a6,6,0,0,0,2.16,1.83c-3-4-4.21-8.92-4.81-13.48,0,3.25-2.34,12.78-4.29,16.06.62-.48.72,0,1.36-.86-1.47,6-2.58,7.77-4.71,12.16.49,0,.73-.27,1.52-.88-.77,5-1.4,8.37-5.21,16.79,1.29,0,1.72-.79,2.88-1.68a14,14,0,0,1-4.09,5.17,5.14,5.14,0,0,0,2.23-1c-.1,1.68-6.35,16.9-12.32,28.69,1.89,0,3.67-1.12,4.11-2.52a44.45,44.45,0,0,1-7.18,14.88,13.72,13.72,0,0,0,6.7-3.77c-3.39,11.56-9.45,20.92-16.46,32a27.24,27.24,0,0,0,8.58-3.87c-1.15.8-1.86,3.37-2.52,4.49q-1.4,2.36-2.92,4.67c-2,3-4.08,6-6.23,8.91-4.21,5.74-7.79,11.49-12.24,17.15a28,28,0,0,1,4.35-2.1,42.44,42.44,0,0,1-4.35,7.48c9.44,1.74,20.3-.24,29.09-3.42l-1.14,3.26a51.21,51.21,0,0,0,5.66-2.14c2.72,2.45,13.82,6.21,13.82,6.21,0-1.15-.76-2.7.31-5,.77.47,4.15,1.19,8.75,1.95-3.52,5-6.75,9.94-10.6,14.84a28,28,0,0,1,4.35-2.1,42.41,42.41,0,0,1-4.35,7.48c9.44,1.74,20.3-.24,29.09-3.41l-1.14,3.26a51.3,51.3,0,0,0,5.66-2.14c2.72,2.45,13.82,6.21,13.82,6.21,0-1.15-.76-2.7.31-5,1.38.84,11.13,2.5,21.31,3.7-1.26,1.77-2.54,3.53-3.92,5.28a28,28,0,0,1,4.35-2.1,42.41,42.41,0,0,1-4.35,7.48c9.44,1.74,20.3-.24,29.09-3.41l-1.14,3.26a51.24,51.24,0,0,0,5.66-2.14c2.72,2.45,13.82,6.21,13.82,6.21,0-1.15-.76-2.7.31-5,2.47,1.5,32,5.7,42.49,5-1.19-.91-4.24-6.16-4.3-7.52,3.15,1.46,7.67,5,15.34,5-2.71-1-6-5-6.35-5.82,4.74.66,11.32,2,16.09,1.47-5.43-5.45-15.7-19.19-22.54-29.28,2.66,1,4.84,1.77,4.84,1.77,0-1.15-.76-2.7.31-5,2.47,1.5,32,5.7,42.49,5-1.19-.91-4.24-6.16-4.3-7.52,3.15,1.46,7.67,5,15.34,5-2.71-1-6-5-6.35-5.82,4.74.66,11.32,2,16.09,1.47a125.21,125.21,0,0,1-8.7-10.26,58.78,58.78,0,0,0,20-2.31l4.35.49-.41,1.17c.87-.27,1.68-.64,2.52-1,2,.2,4,.37,5.84.51a102.78,102.78,0,0,0,11.11,4.51c0-1-.49-2.32,0-4.12.52,0,1.07,0,1.54-.06a4.21,4.21,0,0,1-.48-.48c5.35,1.7,31.92,5.34,41.7,4.66-1.19-.91-4.24-6.16-4.3-7.52,3.15,1.46,7.67,5,15.34,5-2.71-1-6-5-6.35-5.82,4.74.66,11.32,2,16.09,1.47a109.51,109.51,0,0,1-7.27-8.44C-769.63-580.56-761.27-579.18-752.14-578Zm-199.92-29.29-.72-1.12c.28.27.6.52.92.77Zm46.2-25.72c-.29-.67-.59-1.36-.85-2,.54.33,1,.63,1.48.89Zm2.42-4.41-3.47-5.37a14.53,14.53,0,0,0,4.74,2.94C-902.58-639.06-903-638.25-903.43-637.44ZM-876-572.67q-1.06-1.4-2.13-2.83a7.16,7.16,0,0,1,.28-.72,4.48,4.48,0,0,0,.53.21l-.33.44c.2-.12.41-.22.61-.33.59.2,1.48.42,2.53.65C-875-574.39-875.49-573.52-876-572.67ZM-845.4-650h0v0Zm38.68-3.69-1.85-2.85a13.49,13.49,0,0,0,2.39,1.8Z" transform="translate(2672.91 908.11)"/><path class="cls-13" d="M-1145.78-568.25c-2.34-3.12-3.42-4.36-5-7.87a8.59,8.59,0,0,0,4.75,1.62c-5.34-7-10.75-17.44-14-25.34,1.84,1.12,2.84,1.78,5.19,1.82l-5.36-8.28a12.36,12.36,0,0,0,4.8,2.77c-5.66-6.36-7.37-9.66-10.4-16.88l2.75,1a15.5,15.5,0,0,1-2.37-5.38l2.72.68c-7.43-7.63-7.81-16.35-10.5-26.8a5,5,0,0,0,1.79,1.52c-2.46-3.3-3.49-7.4-4-11.18,0,2.69-1.94,10.6-3.55,13.32.52-.4.6,0,1.13-.72-1.22,5-2.14,6.45-3.91,10.08.41,0,.6-.22,1.26-.73-.63,4.11-1.16,6.94-4.32,13.92,1.07,0,1.43-.65,2.39-1.39a11.58,11.58,0,0,1-3.4,4.29,4.26,4.26,0,0,0,1.85-.84c-.08,1.39-5.27,14-10.22,23.79a3.59,3.59,0,0,0,3.41-2.09,36.88,36.88,0,0,1-6,12.34,11.38,11.38,0,0,0,5.56-3.13c-2.81,9.59-7.84,17.35-13.65,26.54a22.58,22.58,0,0,0,7.11-3.21c-1,.66-1.54,2.8-2.09,3.73q-1.16,2-2.42,3.87c-1.64,2.5-3.38,5-5.17,7.39-3.49,4.76-6.46,9.53-10.15,14.22a23.18,23.18,0,0,1,3.61-1.74,35.19,35.19,0,0,1-3.61,6.2c7.83,1.44,16.84-.2,24.12-2.83l-.94,2.7a42.58,42.58,0,0,0,4.69-1.77c2.25,2,11.46,5.15,11.46,5.15,0-1-.63-2.24.26-4.13,2.05,1.25,26.58,4.73,35.24,4.13-1-.75-3.52-5.11-3.57-6.24,2.61,1.21,6.36,4.14,12.72,4.14-2.25-.86-5-4.14-5.26-4.82,3.93.54,9.39,1.67,13.34,1.22-6.39-6.42-20.89-26.7-23.84-32.5A6.13,6.13,0,0,0-1145.78-568.25Z" transform="translate(2672.91 908.11)"/><path class="cls-14" d="M-752.14-721.8c-3-7.16-4.1-15.07-6.36-23.93a6.15,6.15,0,0,0,2.21,1.94c-3.06-4.25-4.38-9.55-5-14.45,0,3.49-2.21,13.78-4.15,17.33.63-.52.73,0,1.37-.95-1.41,6.44-2.52,8.39-4.63,13.14.5,0,.73-.3,1.53-1-.71,5.35-1.31,9-5.07,18.12,1.31,0,1.74-.87,2.91-1.84a14.92,14.92,0,0,1-4.09,5.61,5.08,5.08,0,0,0,2.25-1.12c-.08,1.81-6.23,18.25-12.14,31a4.38,4.38,0,0,0,4.13-2.76,48.15,48.15,0,0,1-4.61,12c-4.67-5.73-6.48-9.41-9.4-16.58l2.89,1.13a17.76,17.76,0,0,1-2.56-6l2.86.72c-7.88-8.39-8.4-18.07-11.35-29.64a5.27,5.27,0,0,0,1.9,1.66c-2.62-3.64-3.75-8.18-4.32-12.38,0,3-1.89,11.8-3.55,14.84.54-.45.63,0,1.17-.81-1.21,5.51-2.16,7.19-4,11.25.43,0,.63-.25,1.31-.82-.61,4.58-1.13,7.73-4.34,15.52,1.12,0,1.49-.74,2.49-1.57a12.77,12.77,0,0,1-3.5,4.8,4.36,4.36,0,0,0,1.93-1c-.07,1.55-5.33,15.63-10.4,26.55a3.75,3.75,0,0,0,3.54-2.37,42,42,0,0,1-6.08,13.78,11.77,11.77,0,0,0,5.78-3.54c-2.82,10.69-8,19.37-14,29.65a23,23,0,0,0,7.41-3.65c-1,.75-1.58,3.13-2.14,4.16q-1.19,2.18-2.49,4.33c-1.68,2.79-3.48,5.54-5.32,8.27-1.33,2-2.59,4-3.84,5.92-2.08-3.21-3.7-5.91-4.52-7.56a6.23,6.23,0,0,0,3.68,1.51c-2.5-3.44-3.64-4.8-5.34-8.68a8.66,8.66,0,0,0,5,1.74c-5.68-7.72-11.49-19.24-15-28,1.94,1.23,3,1.94,5.46,2l-5.72-9.14a12.8,12.8,0,0,0,5.07,3c-6-7-7.85-10.64-11.11-18.63l2.89,1.13a17.77,17.77,0,0,1-2.56-6l2.86.72c-7.88-8.39-8.4-18.07-11.35-29.64a5.27,5.27,0,0,0,1.9,1.66c-2.62-3.64-3.75-8.18-4.32-12.38,0,3-1.89,11.8-3.55,14.84.54-.45.63,0,1.17-.81-1.21,5.52-2.16,7.19-4,11.25.43,0,.63-.25,1.31-.82-.61,4.58-1.12,7.73-4.34,15.52,1.12,0,1.49-.74,2.49-1.57a12.78,12.78,0,0,1-3.5,4.8,4.35,4.35,0,0,0,1.93-1c-.07,1.55-5.33,15.63-10.4,26.55a3.75,3.75,0,0,0,3.54-2.37,42,42,0,0,1-6.08,13.78,11.77,11.77,0,0,0,5.78-3.54c-2.82,10.69-8,19.37-14,29.65a23,23,0,0,0,7.41-3.65c-1,.75-1.58,3.13-2.14,4.16q-1.19,2.18-2.49,4.33c-1.68,2.79-3.48,5.54-5.32,8.27-2.37,3.51-4.51,7-6.78,10.51-6.71-9.39-13.19-19.29-15.25-23.44a7.27,7.27,0,0,0,4.29,1.76c-2.92-4-4.25-5.6-6.23-10.14a10.11,10.11,0,0,0,5.83,2c-6.64-9-13.42-22.47-17.48-32.68,2.26,1.43,3.5,2.26,6.37,2.29l-6.68-10.67a15,15,0,0,0,5.92,3.53c-7-8.17-9.17-12.43-13-21.76l3.38,1.32a20.74,20.74,0,0,1-3-6.95l3.34.84c-9.2-9.79-9.81-21.11-13.26-34.61a6.15,6.15,0,0,0,2.21,1.94c-3.06-4.25-4.38-9.55-5-14.45,0,3.49-2.21,13.78-4.14,17.33.63-.52.73,0,1.37-.95-1.41,6.44-2.52,8.39-4.63,13.14.5,0,.73-.3,1.53-1-.71,5.35-1.31,9-5.07,18.12,1.31,0,1.74-.87,2.91-1.84a14.92,14.92,0,0,1-4.09,5.61,5.08,5.08,0,0,0,2.25-1.12c-.08,1.81-6.23,18.25-12.14,31a4.38,4.38,0,0,0,4.13-2.76,49.09,49.09,0,0,1-7.1,16.09,13.75,13.75,0,0,0,6.75-4.14c-3.3,12.48-9.32,22.62-16.29,34.63a26.89,26.89,0,0,0,8.65-4.26c-1.16.87-1.84,3.65-2.5,4.86q-1.39,2.55-2.9,5.06c-2,3.26-4.06,6.47-6.21,9.66-3.22,4.78-6.08,9.56-9.23,14.29a100.59,100.59,0,0,1-5.43-8.85,5.3,5.3,0,0,0,3.13,1.28,32.43,32.43,0,0,1-4.54-7.39,7.37,7.37,0,0,0,4.25,1.48c-4.84-6.57-9.79-16.38-12.74-23.83,1.65,1,2.55,1.65,4.65,1.67l-4.87-7.78a10.9,10.9,0,0,0,4.32,2.57c-5.12-6-6.69-9.06-9.46-15.86l2.46,1a15.13,15.13,0,0,1-2.18-5.07l2.44.61c-6.71-7.14-7.15-15.39-9.67-25.24a4.48,4.48,0,0,0,1.61,1.42c-2.23-3.1-3.19-7-3.68-10.54,0,2.55-1.61,10-3,12.64.46-.38.53,0,1-.69a38.81,38.81,0,0,1-3.37,9.58c.36,0,.53-.22,1.12-.7-.52,3.9-1,6.58-3.7,13.22,1,0,1.27-.63,2.12-1.34a10.87,10.87,0,0,1-3,4.09,3.7,3.7,0,0,0,1.64-.82c-.06,1.32-4.54,13.31-8.85,22.61a3.19,3.19,0,0,0,3-2,35.81,35.81,0,0,1-5.18,11.73,10,10,0,0,0,4.92-3c-2.11,8-5.79,14.7-10.09,22.14a109.9,109.9,0,0,1-7.92-15.86,6.37,6.37,0,0,0,3.94,1.42l-4.13-6.59a9.24,9.24,0,0,0,3.66,2.18c-4.34-5-5.66-7.68-8-13.44l2.09.82a12.82,12.82,0,0,1-1.84-4.29l2.07.52c-5.69-6.05-6.06-13-8.19-21.38a3.8,3.8,0,0,0,1.37,1.2,19.77,19.77,0,0,1-3.12-8.93c0,2.16-1.37,8.51-2.56,10.71.39-.32.45,0,.85-.58a32.87,32.87,0,0,1-2.86,8.12c.31,0,.45-.18.95-.59a37.06,37.06,0,0,1-3.13,11.2c.81,0,1.07-.54,1.79-1.14a9.22,9.22,0,0,1-2.53,3.47,3.14,3.14,0,0,0,1.39-.69c-.05,1.12-3.85,11.28-7.5,19.16a2.71,2.71,0,0,0,2.55-1.71,30.33,30.33,0,0,1-4.39,9.94,8.49,8.49,0,0,0,4.17-2.56c-2,7.71-5.76,14-10.06,21.39a16.61,16.61,0,0,0,5.35-2.63c-.72.54-1.14,2.26-1.55,3q-.86,1.58-1.79,3.12c-1.21,2-2.51,4-3.84,6l-.36.56c-5.15-6.82-11.26-15.92-12.89-19.2a4.49,4.49,0,0,0,2.65,1.09,27.48,27.48,0,0,1-3.85-6.27,6.24,6.24,0,0,0,3.6,1.26,100,100,0,0,1-10.8-20.19,6.37,6.37,0,0,0,3.94,1.42l-4.13-6.59a9.24,9.24,0,0,0,3.66,2.18c-4.34-5-5.66-7.68-8-13.44l2.09.82a12.82,12.82,0,0,1-1.84-4.29l2.07.52c-5.69-6.05-6.06-13-8.19-21.38a3.8,3.8,0,0,0,1.37,1.2,19.78,19.78,0,0,1-3.12-8.93c0,2.16-1.37,8.51-2.56,10.71.39-.32.45,0,.85-.58a32.88,32.88,0,0,1-2.86,8.12c.31,0,.45-.18.95-.59a37,37,0,0,1-3.13,11.2c.81,0,1.07-.54,1.79-1.14a9.21,9.21,0,0,1-2.53,3.47,3.14,3.14,0,0,0,1.39-.69c-.05,1.12-3.85,11.28-7.5,19.16a2.71,2.71,0,0,0,2.55-1.71,30.34,30.34,0,0,1-4.39,9.94,8.49,8.49,0,0,0,4.17-2.56c-2,7.71-5.76,14-10.06,21.39a16.62,16.62,0,0,0,5.35-2.63c-.72.54-1.14,2.26-1.55,3q-.86,1.58-1.79,3.12c-1.21,2-2.51,4-3.84,6-.77,1.15-1.51,2.3-2.24,3.45a73.94,73.94,0,0,1-4.11-6.63,3.52,3.52,0,0,0,2.08.85,21.57,21.57,0,0,1-3-4.92,4.9,4.9,0,0,0,2.83,1,78.49,78.49,0,0,1-8.48-15.85,5,5,0,0,0,3.09,1.11l-3.24-5.17a7.26,7.26,0,0,0,2.87,1.71,31.24,31.24,0,0,1-6.3-10.55l1.64.64a10.08,10.08,0,0,1-1.45-3.37l1.62.41c-4.46-4.75-4.76-10.24-6.43-16.79a3,3,0,0,0,1.07.94,15.52,15.52,0,0,1-2.45-7,27.1,27.1,0,0,1-2,8.41c.3-.25.35,0,.67-.46a25.85,25.85,0,0,1-2.24,6.37c.24,0,.36-.14.74-.47a29.1,29.1,0,0,1-2.46,8.79c.63,0,.84-.42,1.41-.89a7.23,7.23,0,0,1-2,2.72,2.47,2.47,0,0,0,1.09-.54c0,.88-3,8.86-5.89,15a2.12,2.12,0,0,0,2-1.34,23.81,23.81,0,0,1-3.45,7.8,6.67,6.67,0,0,0,3.27-2c-1.6,6.05-4.52,11-7.9,16.8a13,13,0,0,0,4.2-2.07c-.56.42-.89,1.77-1.21,2.36q-.67,1.24-1.41,2.45l-.11.17a112.71,112.71,0,0,1-6.65-10.49,4.3,4.3,0,0,0,2.54,1,26.36,26.36,0,0,1-3.69-6,6,6,0,0,0,3.45,1.21,95.85,95.85,0,0,1-10.35-19.35,6.1,6.1,0,0,0,3.77,1.36l-4-6.32a8.86,8.86,0,0,0,3.51,2.09c-4.16-4.84-5.43-7.36-7.68-12.88l2,.78a12.28,12.28,0,0,1-1.77-4.11l2,.5c-5.45-5.8-5.81-12.5-7.85-20.5a3.65,3.65,0,0,0,1.31,1.15,19,19,0,0,1-3-8.56,33.07,33.07,0,0,1-2.45,10.26c.37-.31.43,0,.81-.56a31.51,31.51,0,0,1-2.74,7.78c.29,0,.43-.18.91-.57a35.52,35.52,0,0,1-3,10.73c.77,0,1-.51,1.72-1.09a8.83,8.83,0,0,1-2.42,3.32,3,3,0,0,0,1.33-.66c0,1.07-3.69,10.81-7.19,18.36a2.59,2.59,0,0,0,2.45-1.64,29.08,29.08,0,0,1-4.21,9.53,8.14,8.14,0,0,0,4-2.45c-2,7.39-5.52,13.39-9.65,20.51a15.91,15.91,0,0,0,5.12-2.52c-.69.52-1.09,2.16-1.48,2.88q-.82,1.51-1.72,3c-.51.84-1.07,1.66-1.61,2.5a86.86,86.86,0,0,1-3.68-8.55,5,5,0,0,0,3.06,1.19l-3.08-5.25a7.19,7.19,0,0,0,2.82,1.78,31,31,0,0,1-6-10.7l1.62.68a10,10,0,0,1-1.34-3.4l1.61.45c-4.32-4.86-4.44-10.35-5.91-16.94a3,3,0,0,0,1,1,15.44,15.44,0,0,1-2.23-7.07,27.21,27.21,0,0,1-2.27,8.36c.31-.24.35,0,.68-.44a26,26,0,0,1-2.44,6.32c.24,0,.36-.14.76-.45a29.25,29.25,0,0,1-2.73,8.73c.63,0,.85-.4,1.44-.86a7.3,7.3,0,0,1-2.07,2.67,2.48,2.48,0,0,0,1.11-.52c-.07.88-3.29,8.78-6.35,14.9a2.14,2.14,0,0,0,2-1.29,24,24,0,0,1-3.68,7.72,6.73,6.73,0,0,0,3.33-1.93c-1.78,6-4.86,10.86-8.41,16.6a13.14,13.14,0,0,0,4.26-2c-.57.41-.95,1.75-1.29,2.33q-.71,1.22-1.48,2.42c-.68,1.06-1.42,2.1-2.15,3.14a82.45,82.45,0,0,1-4.5-7.3,4.14,4.14,0,0,0,2.44,1,25.33,25.33,0,0,1-3.55-5.77,5.75,5.75,0,0,0,3.32,1.16,92.16,92.16,0,0,1-10-18.61,5.87,5.87,0,0,0,3.63,1.31l-3.8-6.07a8.52,8.52,0,0,0,3.37,2c-4-4.65-5.22-7.08-7.39-12.39l1.92.75a11.81,11.81,0,0,1-1.7-4l1.9.48c-5.24-5.58-5.59-12-7.55-19.71a3.5,3.5,0,0,0,1.26,1.11,18.22,18.22,0,0,1-2.87-8.23,31.8,31.8,0,0,1-2.36,9.87c.36-.3.42,0,.78-.54a30.32,30.32,0,0,1-2.63,7.48c.28,0,.42-.17.87-.55a34.15,34.15,0,0,1-2.89,10.32c.74,0,1-.49,1.65-1a8.49,8.49,0,0,1-2.33,3.19,2.89,2.89,0,0,0,1.28-.64c0,1-3.55,10.39-6.91,17.66a2.49,2.49,0,0,0,2.35-1.57,28,28,0,0,1-4,9.16,7.83,7.83,0,0,0,3.84-2.36c-1.88,7.11-5.31,12.88-9.28,19.72a15.32,15.32,0,0,0,4.93-2.43c-.66.5-1,2.08-1.43,2.77q-.79,1.45-1.65,2.88c-1.12,1.86-2.31,3.69-3.54,5.5-.67,1-1.31,2-1.94,3-.66-1.12-1.16-2.06-1.46-2.69a3.2,3.2,0,0,0,1.88.83,19.56,19.56,0,0,1-2.62-4.56,4.45,4.45,0,0,0,2.56,1,71.14,71.14,0,0,1-7.3-14.66,4.54,4.54,0,0,0,2.79,1.08l-2.81-4.8a6.57,6.57,0,0,0,2.57,1.63,28.3,28.3,0,0,1-5.45-9.78l1.48.62a9.12,9.12,0,0,1-1.23-3.11l1.47.41c-3.94-4.44-4.06-9.45-5.4-15.47a2.7,2.7,0,0,0,1,.88,14.11,14.11,0,0,1-2-6.46,24.87,24.87,0,0,1-2.07,7.63c.28-.22.32,0,.62-.4a23.75,23.75,0,0,1-2.23,5.77c.22,0,.33-.12.69-.41a26.71,26.71,0,0,1-2.49,8c.58,0,.78-.37,1.31-.78a6.67,6.67,0,0,1-1.89,2.44,2.27,2.27,0,0,0,1-.47c-.06.8-3,8-5.8,13.61a2,2,0,0,0,1.87-1.18,21.92,21.92,0,0,1-3.36,7.05,6.14,6.14,0,0,0,3-1.76c-1.63,5.49-4.44,9.92-7.69,15.17a12,12,0,0,0,3.89-1.79c-.52.37-.87,1.6-1.17,2.13q-.65,1.11-1.35,2.21c-.91,1.42-1.89,2.82-2.88,4.21-.72,1-1.39,2-2.07,3a53.21,53.21,0,0,1-2.72-4.76,2.92,2.92,0,0,0,1.71.75,17.85,17.85,0,0,1-2.4-4.16,4.06,4.06,0,0,0,2.33.88,65,65,0,0,1-6.67-13.39,4.14,4.14,0,0,0,2.55,1l-2.57-4.38a6,6,0,0,0,2.35,1.48,25.86,25.86,0,0,1-5-8.93l1.35.57a8.35,8.35,0,0,1-1.12-2.84l1.34.37c-3.6-4.05-3.71-8.64-4.93-14.13a2.47,2.47,0,0,0,.87.81,12.88,12.88,0,0,1-1.86-5.9,22.72,22.72,0,0,1-1.89,7c.26-.2.29,0,.57-.37a21.7,21.7,0,0,1-2,5.27c.2,0,.3-.11.63-.37a24.4,24.4,0,0,1-2.28,7.28c.53,0,.71-.33,1.2-.72A6.09,6.09,0,0,1-1378-554a2.07,2.07,0,0,0,.92-.43c-10.9,9.14-1.63,22.14-16.23,29.86-17.78,9.4-43.94,12.82-64.37,13.11-24.77.35-49.39,6.57-74,10.49-15.94,2.54-31.94,4.91-47.57,8.68-6.41,1.55-12.95,3.43-17.94,7.33,20.67.89,41.49,1.8,61.55,6.28a105.34,105.34,0,0,0,10.66,2.11c8.16,1,16.39-.56,24.56-1.52a183.3,183.3,0,0,1,47.67.64,104.1,104.1,0,0,0,14.29,1.6c24.38.15,45.91-11.87,71.23-7.44l-13.51.66,13.64-.64.94.16-4,4.39a77.83,77.83,0,0,0-20.45,7.12c4.2.5,8.4,1,12.6,1.43l-1.38,1.5c20.46,7.29,43.18,4.54,65.42,4.84q11,.92,22,1.75c10.22,1.56,20.3,3.92,30.57,5.21,40.84,5.13,84.82.7,126.09.86q34,.13,68-.77,16.4-.44,32.8-1.12c4.47-.19,25.58-.78,28.46,3.87s-30.36,7.29-21.23,9.9c10.91,3.12,172.05,4.37,275.13,3.72ZM-1107.8-548.09a3.55,3.55,0,0,1-.47-.73l.86.13Zm48.86-22.44a21.68,21.68,0,0,1-1.77-3.35,6.35,6.35,0,0,0,3,1.2Q-1058.31-571.61-1058.94-570.54Zm1.64-2.87-.16.28c-.43-.61-.87-1.23-1.3-1.89a18.75,18.75,0,0,0,3.29-1.94C-1056.31-576.31-1056.81-574.29-1057.3-573.4Zm51.78,5.64,0,0,.06,0Zm221.11-99.92c-.24.42-.5.82-.75,1.23l-2-3.22A12.07,12.07,0,0,0-784.4-667.68Zm.3,11.72c-1-2.27-2-4.48-2.81-6.53a9.37,9.37,0,0,0,4.71,1.9Q-783.09-658.25-784.1-656Zm2.16-5.35-2.46-3.93a13.21,13.21,0,0,0,4.85-3.47C-780.23-666.15-781-663.7-781.94-661.3Z" transform="translate(2672.91 908.11)"/><polygon class="cls-15" points="1352.29 457.84 1397.07 454.28 1397.07 399.12 1352.29 399.12 1352.29 457.84"/><polygon class="cls-16" points="1352.29 457.84 1302.48 453.21 1302.48 399.12 1326.23 378.58 1352.29 399.12 1352.29 457.84"/><polygon class="cls-17" points="1314.34 388.87 1326.23 379.11 1326.91 379.12 1352.29 399.12 1397.07 399.12 1397.07 400.49 1352.29 400.49 1327.39 380.86 1302.48 400.49 1302.48 399.12 1314.34 388.87"/><polygon class="cls-18" points="1400.74 399.12 1374.68 378.58 1326.23 378.58 1300.17 399.12 1302.48 399.12 1327.39 379.49 1352.29 399.12 1400.74 399.12"/><g class="cls-19"><path class="cls-20" d="M-1291.84-520.09c1.93-11.48,9.16-17.4,18.62-20.53,6-2,12.33-3,18.38-4.88,7-2.23,10-4,11.78-11.12a23.06,23.06,0,0,1,16.92-17.19c11.39-3.06,23.32-3.41,35-5.16a146.33,146.33,0,0,0,42.2-13.09c3.24-1.57,6.55-3.38,8.56-6.36,3.61-5.34,1.68-13-2.9-17.57s-11.14-6.54-17.53-7.58a46.7,46.7,0,0,0-13.18-.51c-4,.49-7.83,1.7-11.77,2.4-8.88,1.57-18,.53-27,1.51s-18.48,4.66-22.68,12.59a45.56,45.56,0,0,1-2.85,5.54c-2.23,3.09-6,4.65-9.53,6.07-13.09,5.21-28.18,5.64-38.72,16.12-3.17,3.15-5.75,7.37-5.29,11.8.39,3.79,2.91,7,4.33,10.54,2.49,6.23-1.23,7.8-4,12.24a33.23,33.23,0,0,0-4.84,20.49c.16,1.66.51,3.44,1.75,4.56s2.12,1.68,2.74.14" transform="translate(2672.91 908.11)"/></g><polygon class="cls-21" points="1374.68 393.69 1379.4 399.13 1389.01 399.13 1383.34 393.69 1374.68 393.69"/><path class="cls-22" d="M-1351.2-499.62h-5.48v-7.19h5.48Zm0,2.53h-5.48v7.19h5.48Zm9.24-9.72h-5.48v7.19h5.48Zm0,9.72h-5.48v7.19h5.48Z" transform="translate(2672.91 908.11)"/><rect class="cls-23" x="1376.44" y="411.03" width="13.79" height="8.72"/><rect class="cls-24" x="1374.68" y="384.11" width="8.66" height="9.58"/><rect class="cls-25" x="1373.03" y="380.66" width="11.95" height="3.95"/><polygon class="cls-26" points="1568.37 472.02 1643.12 468.63 1643.12 424.89 1568.37 424.89 1568.37 472.02"/><polygon class="cls-27" points="1568.37 472.02 1521.01 467.61 1521.01 424.89 1543.59 405.36 1568.37 424.89 1568.37 472.02"/><polygon class="cls-28" points="1532.28 415.14 1543.59 405.86 1544.24 405.87 1568.37 424.89 1643.12 424.89 1643.12 426.19 1568.37 426.19 1544.69 407.53 1521.01 426.19 1521.01 424.89 1532.28 415.14"/><polygon class="cls-29" points="1646.62 424.89 1621.83 405.36 1543.59 405.36 1518.81 424.89 1521.01 424.89 1544.69 406.23 1568.37 424.89 1646.62 424.89"/><g class="cls-19"><path class="cls-30" d="M-1034.83-522.71c2.06,3.63.92,8.38-1.65,11.67-3.52,4.52-10.56,5.43-13.61,9.65a2.5,2.5,0,0,0-.28,2.77,2.37,2.37,0,0,0,1,.74c5.17,2.29,15.22-6.25,19.88-9.16,9.44-5.89,16.45-11.36,27.71-14s22.84-3.57,33.9-6.81c3.26-1,6.57-2.17,9-4.51,4.09-3.9,4.92-10,7.27-15.11,5.17-11.31,17.63-17.59,29.82-20.39s24.93-3,36.93-6.52S-861-586-858-598a17.84,17.84,0,0,0-.72-11.66c-3-6.49-10.28-9.73-17.15-11.79a120.27,120.27,0,0,0-54.43-3.32c-10.87,1.85-21.92,5.48-29.65,13.29-8.5,8.59-11.82,21-19.23,30.52-17,21.85-49.44,22.86-73.94,35.92-1.77.95-3.6,2-4.53,3.82-2.55,4.83,3.15,10,8.43,11.54S-1037.59-527.47-1034.83-522.71Z" transform="translate(2672.91 908.11)"/></g><polygon class="cls-31" points="1621.83 419.73 1626.32 424.9 1635.46 424.9 1630.07 419.73 1621.83 419.73"/><path class="cls-32" d="M-1133.61-474.31h-5.21v-6.83h5.21Zm0,2.41h-5.21v6.83h5.21Zm8.79-9.24H-1130v6.83h5.21Zm0,9.24H-1130v6.83h5.21Z" transform="translate(2672.91 908.11)"/><path class="cls-33" d="M-1078.58-463.6l-13.11.7v-9h13.11Zm15.75-8.3h-13.11v8.3l13.11-.52Z" transform="translate(2672.91 908.11)"/><rect class="cls-34" x="1621.83" y="410.61" width="8.23" height="9.11"/><rect class="cls-35" x="1620.27" y="407.34" width="11.37" height="3.76"/><rect class="cls-36" width="1920.77" height="567.52"/><path class="cls-37" d="M-1701.18-575.37c-.38-1.37-.58-2.85-.93-4.47a1.3,1.3,0,0,0,.44.45,7.84,7.84,0,0,1-1-3.29,13.86,13.86,0,0,1-.88,3.91c.13-.12.15,0,.28-.21a13,13,0,0,1-1,3c.1,0,.15-.07.31-.21,0,.23-.06.45-.1.66-13.16-.91-26.35-1.84-39.39-2.81a43,43,0,0,1-2.34-5.45,2,2,0,0,0,1.29.54l-1.33-2.43a3,3,0,0,0,1.19.81,15.07,15.07,0,0,1-2.58-5l.68.31a5,5,0,0,1-.59-1.58l.68.2c-1.84-2.24-1.94-4.81-2.61-7.87a1.31,1.31,0,0,0,.44.45,7.84,7.84,0,0,1-1-3.29,13.87,13.87,0,0,1-.88,3.91c.13-.12.15,0,.28-.21a13,13,0,0,1-1,3c.1,0,.15-.07.31-.21a14.82,14.82,0,0,1-1.07,4.09c.27,0,.35-.19.59-.41a3.38,3.38,0,0,1-.84,1.26,1,1,0,0,0,.46-.25,57.67,57.67,0,0,1-2.54,7,.89.89,0,0,0,.84-.61,11.77,11.77,0,0,1-1.48,3.62,2.75,2.75,0,0,0,1.38-.92,19.94,19.94,0,0,1-.71,2.24c-43.13-3.32-83.81-7.12-114.32-11.94-1.16-.18-2.3-.39-3.46-.58l-.95-1.73a5.3,5.3,0,0,0,2.11,1.44,26.63,26.63,0,0,1-4.56-8.77l1.2.54a8.86,8.86,0,0,1-1-2.79l1.19.35c-3.26-4-3.43-8.49-4.6-13.91a2.3,2.3,0,0,0,.79.79,13.84,13.84,0,0,1-1.75-5.81,24.49,24.49,0,0,1-1.56,6.92c.23-.21.26,0,.5-.37a22.93,22.93,0,0,1-1.71,5.24c.18,0,.26-.12.55-.38a26.2,26.2,0,0,1-1.89,7.23c.47,0,.63-.34,1-.72a6,6,0,0,1-1.49,2.23,1.75,1.75,0,0,0,.81-.44A68.89,68.89,0,0,1-1886-594q-45.46-7.69-90-17.65l-.92-1.68a5.3,5.3,0,0,0,2.11,1.44,26.62,26.62,0,0,1-4.56-8.77l1.2.54a8.86,8.86,0,0,1-1-2.79l1.19.35c-3.26-4-3.43-8.49-4.6-13.91a2.3,2.3,0,0,0,.79.79,13.85,13.85,0,0,1-1.75-5.81,24.49,24.49,0,0,1-1.56,6.92c.23-.21.26,0,.5-.37a22.94,22.94,0,0,1-1.71,5.24c.18,0,.26-.12.55-.38a26.2,26.2,0,0,1-1.89,7.23c.47,0,.63-.34,1-.72a6,6,0,0,1-1.49,2.23,1.75,1.75,0,0,0,.81-.44,61.91,61.91,0,0,1-2.38,7.08c-3.6-.83-7.19-1.69-10.78-2.54a76.34,76.34,0,0,1-3.87-9.14,3.47,3.47,0,0,0,2.27.95l-2.35-4.3a5.3,5.3,0,0,0,2.11,1.44,26.62,26.62,0,0,1-4.56-8.77l1.2.54a8.86,8.86,0,0,1-1-2.79l1.19.35c-3.26-4-3.43-8.49-4.6-13.91a2.3,2.3,0,0,0,.79.79,13.84,13.84,0,0,1-1.75-5.81,24.5,24.5,0,0,1-1.56,6.92c.23-.21.26,0,.5-.37a22.94,22.94,0,0,1-1.71,5.24c.18,0,.26-.12.55-.38a26.19,26.19,0,0,1-1.89,7.23c.47,0,.63-.34,1-.72a6,6,0,0,1-1.49,2.23,1.75,1.75,0,0,0,.81-.44,102,102,0,0,1-4.48,12.35,1.58,1.58,0,0,0,1.49-1.09,20.69,20.69,0,0,1-1.95,5.1q-35.77-8.75-71.19-18.58c-.43-1.07-.82-2.12-1.15-3.09a3.47,3.47,0,0,0,2.27.95l-2.35-4.3a5.3,5.3,0,0,0,2.11,1.44,26.63,26.63,0,0,1-4.56-8.77l1.2.54a8.86,8.86,0,0,1-1-2.79l1.19.35c-3.26-4-3.43-8.49-4.6-13.91a2.31,2.31,0,0,0,.79.79,13.85,13.85,0,0,1-1.75-5.81,24.51,24.51,0,0,1-1.56,6.92c.23-.21.26,0,.5-.37a23,23,0,0,1-1.71,5.24c.18,0,.26-.12.55-.38a26.2,26.2,0,0,1-1.89,7.23c.47,0,.63-.34,1-.72a6,6,0,0,1-1.49,2.23,1.75,1.75,0,0,0,.81-.44,91.57,91.57,0,0,1-3.76,10.63q-19.22-5.41-38.38-11.08a99.45,99.45,0,0,1-5.17-12.17,4.53,4.53,0,0,0,3,1.24l-3.07-5.61a6.92,6.92,0,0,0,2.75,1.88,34.75,34.75,0,0,1-5.95-11.44l1.57.71a11.56,11.56,0,0,1-1.36-3.65l1.56.46c-4.25-5.17-4.47-11.08-6-18.16a3,3,0,0,0,1,1,18.07,18.07,0,0,1-2.28-7.58,32,32,0,0,1-2,9c.3-.27.34,0,.65-.49a29.93,29.93,0,0,1-2.24,6.83c.23,0,.34-.15.72-.49a34.19,34.19,0,0,1-2.47,9.44c.61,0,.82-.44,1.37-.94a7.79,7.79,0,0,1-1.94,2.91,2.29,2.29,0,0,0,1.06-.57c0,.94-3,9.5-5.85,16.12a2.06,2.06,0,0,0,1.95-1.42,26.87,26.87,0,0,1-1.91,5.54q-13-3.93-26-7.93a19,19,0,0,1-1.89-3.8,4.42,4.42,0,0,0,2.72,1.1,88.43,88.43,0,0,1-8-17.17,4.54,4.54,0,0,0,3,1.24l-3.07-5.61a6.91,6.91,0,0,0,2.75,1.88,34.75,34.75,0,0,1-5.95-11.44l1.57.71a11.56,11.56,0,0,1-1.36-3.65l1.56.46c-4.25-5.17-4.47-11.08-6-18.16a3,3,0,0,0,1,1,18.07,18.07,0,0,1-2.28-7.58,32,32,0,0,1-2,9c.3-.27.34,0,.65-.49a29.94,29.94,0,0,1-2.24,6.83c.23,0,.34-.15.72-.49a34.2,34.2,0,0,1-2.47,9.44c.61,0,.82-.44,1.37-.94a7.79,7.79,0,0,1-1.94,2.91,2.29,2.29,0,0,0,1.06-.57c0,.94-3,9.5-5.85,16.12a2.06,2.06,0,0,0,1.95-1.42,27.17,27.17,0,0,1-3.41,8.36,6.35,6.35,0,0,0,3.18-2.12,46.67,46.67,0,0,1-2,6l-16.23-5.12-2-3.64a8.41,8.41,0,0,0,3.34,2.28c-3.94-5.24-5.13-8-7.24-13.92l1.91.86a14.06,14.06,0,0,1-1.65-4.44l1.9.56c-5.17-6.29-5.44-13.48-7.31-22.08a3.66,3.66,0,0,0,1.25,1.25,22,22,0,0,1-2.77-9.22,38.89,38.89,0,0,1-2.47,11c.36-.33.41,0,.79-.59a36.41,36.41,0,0,1-2.72,8.31c.28,0,.42-.18.88-.6a41.59,41.59,0,0,1-3,11.48c.74,0,1-.54,1.66-1.15a9.47,9.47,0,0,1-2.36,3.53,2.77,2.77,0,0,0,1.29-.69,86.47,86.47,0,0,1-3.34,10.12q-26.28-8.4-52.65-16.94c-.59-1.11-1.07-2.07-1.36-2.76a3.93,3.93,0,0,0,2.43,1.15,29.1,29.1,0,0,1-3.48-6.49,5.37,5.37,0,0,0,3.3,1.34,107.56,107.56,0,0,1-9.72-20.89,5.51,5.51,0,0,0,3.61,1.5l-3.73-6.83a8.41,8.41,0,0,0,3.34,2.28c-3.94-5.24-5.13-8-7.24-13.92l1.91.86a14.06,14.06,0,0,1-1.65-4.44l1.9.56c-5.17-6.29-5.44-13.48-7.31-22.08a3.66,3.66,0,0,0,1.25,1.25,22,22,0,0,1-2.77-9.22,38.89,38.89,0,0,1-2.47,11c.36-.33.41,0,.79-.59a36.41,36.41,0,0,1-2.72,8.31c.28,0,.42-.18.88-.6a41.57,41.57,0,0,1-3,11.48c.74,0,1-.54,1.66-1.15a9.47,9.47,0,0,1-2.36,3.53,2.78,2.78,0,0,0,1.29-.69c-.06,1.15-3.66,11.55-7.11,19.61a2.51,2.51,0,0,0,2.37-1.73,33,33,0,0,1-4.15,10.17,7.72,7.72,0,0,0,3.87-2.58,60,60,0,0,1-3.5,9.92l-13.57-4.39-1.76-3.23a8.41,8.41,0,0,0,3.34,2.28c-3.94-5.24-5.13-8-7.24-13.92l1.91.86a14.06,14.06,0,0,1-1.65-4.44l1.9.56c-5.17-6.29-5.44-13.48-7.31-22.08a3.65,3.65,0,0,0,1.25,1.25,22,22,0,0,1-2.77-9.22,38.88,38.88,0,0,1-2.47,11c.36-.33.41,0,.79-.59a36.42,36.42,0,0,1-2.72,8.31c.28,0,.42-.18.88-.6a41.57,41.57,0,0,1-3,11.48c.74,0,1-.54,1.66-1.15a9.48,9.48,0,0,1-2.36,3.53,2.78,2.78,0,0,0,1.29-.69,83.12,83.12,0,0,1-3.21,9.74c-50.84-16.29-101.86-32-153.51-45.61l-2.15-3.93a8.41,8.41,0,0,0,3.34,2.28c-3.94-5.24-5.13-8-7.24-13.92l1.91.86a14.05,14.05,0,0,1-1.65-4.44l1.9.56c-5.17-6.29-5.44-13.48-7.31-22.08a3.66,3.66,0,0,0,1.25,1.25,22,22,0,0,1-2.77-9.22,38.88,38.88,0,0,1-2.47,11c.36-.33.41,0,.79-.59a36.41,36.41,0,0,1-2.72,8.31c.28,0,.42-.18.88-.6a41.59,41.59,0,0,1-3,11.48c.74,0,1-.54,1.66-1.15a9.47,9.47,0,0,1-2.36,3.53,2.78,2.78,0,0,0,1.29-.69,95.52,95.52,0,0,1-3.69,11c-9.16-2.74-19.14-5.83-29.6-8.94a22.87,22.87,0,0,1-1.82-3.85,5.38,5.38,0,0,0,3.3,1.34,107.56,107.56,0,0,1-9.72-20.89,5.51,5.51,0,0,0,3.61,1.5l-3.73-6.83a8.41,8.41,0,0,0,3.34,2.28c-3.94-5.24-5.13-8-7.24-13.92l1.91.86a14.05,14.05,0,0,1-1.65-4.44l1.9.56c-5.17-6.29-5.44-13.48-7.31-22.08a3.66,3.66,0,0,0,1.25,1.25,22,22,0,0,1-2.77-9.22,38.89,38.89,0,0,1-2.47,11c.36-.33.41,0,.79-.59a36.41,36.41,0,0,1-2.72,8.31c.28,0,.42-.18.88-.6a41.58,41.58,0,0,1-3,11.48c.74,0,1-.54,1.66-1.15a9.47,9.47,0,0,1-2.36,3.53,2.78,2.78,0,0,0,1.29-.69c-.06,1.15-3.66,11.55-7.11,19.61a2.51,2.51,0,0,0,2.37-1.73,33,33,0,0,1-4.15,10.17,7.72,7.72,0,0,0,3.87-2.58,57.13,57.13,0,0,1-2.54,7.62c-17.43-4.46-35.25-8.2-52.22-10v260.16l202.6,9.8c43.15,2.09,86.46,4.17,129.49.34,51.51-4.59,831.09,5.51,836.67-11.67C-1499.93-562.82-1598.71-568.34-1701.18-575.37Zm-317-46.13-.43-.11a4.57,4.57,0,0,0,.65-.6C-2018-622-2018.09-621.74-2018.16-621.5Z" transform="translate(2672.91 908.11)"/><path class="cls-38" d="M-2672.16-529c333.76-12.16,965.46-14,965.46-14s-215.1-26.41-316.25-32.36c-20.59-1.21-41.55-2.18-60.91-8.41-21.56-6.94-39.9-20-61.27-27.42-31-10.72-65.56-8.61-98.81-10.87-67.24-4.57-131.21-27.52-190.28-55.94-18.52-8.91-42.17-18.26-59.25-7.38-2.92,1.86-5.6,4.31-9.16,4.88-3.15.51-6.32-.58-9.25-1.69a301,301,0,0,1-62.48-32.24c-19.94-13.5-40.37-30.16-65.6-30.19-10.84,0-21.54,3.17-32.19,5Z" transform="translate(2672.91 908.11)"/><g class="cls-3"><path class="cls-39" d="M-752.88-417.74A4905.94,4905.94,0,0,1-1442-436.34c-5.11-.5-10.61-1.17-14.38-4.63s-4.95-8.76-8.55-12.23c-4.66-4.49-11.89-4.68-18.38-4.6-112.41,1.46-250.89,6-343.65,6,3.57,1.8,7.68,1.8,12,1.8,92.75,0,216.57,5.27,329,3.81,6.49-.08,13.72.11,18.38,4.6,3.6,3.47,4.86,8.85,8.55,12.23s9.27,4.13,14.38,4.63a4908.21,4908.21,0,0,0,691.86,18.54Z" transform="translate(2672.91 908.11)"/></g></g></g></svg>