<svg xmlns="http://www.w3.org/2000/svg" xmlns:xlink="http://www.w3.org/1999/xlink" viewBox="0 0 1182.7 663.66"><defs><style>.cls-1{isolation:isolate;}.cls-2{fill:url(#linear-gradient);}.cls-3{fill:url(#linear-gradient-2);}.cls-4{fill:url(#linear-gradient-3);}.cls-5{fill:url(#linear-gradient-4);}.cls-19,.cls-6{opacity:0.25;}.cls-13,.cls-15,.cls-16,.cls-17,.cls-6,.cls-9{mix-blend-mode:multiply;}.cls-7{fill:url(#linear-gradient-5);}.cls-8{fill:url(#linear-gradient-6);}.cls-13,.cls-15,.cls-16,.cls-17,.cls-9{opacity:0.55;}.cls-10{fill:url(#linear-gradient-7);}.cls-11{fill:url(#linear-gradient-8);}.cls-12{fill:url(#linear-gradient-9);}.cls-13{fill:url(#linear-gradient-10);}.cls-14{fill:url(#linear-gradient-11);}.cls-15{fill:url(#linear-gradient-12);}.cls-16{fill:url(#linear-gradient-13);}.cls-17{fill:url(#linear-gradient-14);}.cls-18{fill:url(#linear-gradient-15);}.cls-19{mix-blend-mode:screen;}.cls-20{fill:url(#linear-gradient-16);}.cls-21{fill:url(#linear-gradient-17);}.cls-22{fill:none;}.cls-23{fill:url(#linear-gradient-18);}.cls-24{fill:url(#linear-gradient-19);}.cls-25{fill:url(#linear-gradient-20);}.cls-26{fill:url(#linear-gradient-21);}</style><linearGradient id="linear-gradient" x1="-2202.15" y1="2107.83" x2="-2034.13" y2="1676.57" gradientUnits="userSpaceOnUse"><stop offset="0" stop-color="#473c98"/><stop offset="0.56" stop-color="#7b83bd"/><stop offset="1" stop-color="#eeb9ba"/></linearGradient><linearGradient id="linear-gradient-2" x1="-2620.83" y1="1560.23" x2="-2620.83" y2="1576.58" gradientUnits="userSpaceOnUse"><stop offset="0.24" stop-color="#5d64ad"/><stop offset="1" stop-color="#2f2c90"/></linearGradient><linearGradient id="linear-gradient-3" x1="-2621.4" y1="1552.71" x2="-2621.4" y2="1564.06" xlink:href="#linear-gradient-2"/><linearGradient id="linear-gradient-4" x1="-2242.09" y1="1434.67" x2="-2242.09" y2="1811.28" xlink:href="#linear-gradient-2"/><linearGradient id="linear-gradient-5" x1="-2063.92" y1="2173.06" x2="-1896.7" y2="1743.88" xlink:href="#linear-gradient"/><linearGradient id="linear-gradient-6" x1="-2118.92" y1="1727.59" x2="-2158.42" y2="1951.59" gradientUnits="userSpaceOnUse"><stop offset="0" stop-color="#4f54a5"/><stop offset="1" stop-color="#2f2c90"/></linearGradient><linearGradient id="linear-gradient-7" x1="-2362.38" y1="1911.02" x2="-2141.19" y2="1911.02" xlink:href="#linear-gradient"/><linearGradient id="linear-gradient-8" x1="354.06" y1="486.56" x2="415.81" y2="486.56" gradientUnits="userSpaceOnUse"><stop offset="0" stop-color="#9182bd"/><stop offset="1" stop-color="#6467ae"/></linearGradient><linearGradient id="linear-gradient-9" x1="415.81" y1="472.4" x2="484.51" y2="472.4" gradientUnits="userSpaceOnUse"><stop offset="0" stop-color="#7f7cb9"/><stop offset="0.31" stop-color="#938dc2"/><stop offset="1" stop-color="#baafd4"/></linearGradient><linearGradient id="linear-gradient-10" x1="354.06" y1="433.21" x2="484.51" y2="433.21" gradientUnits="userSpaceOnUse"><stop offset="0" stop-color="#c3b1d4"/><stop offset="0.36" stop-color="#a9a8cf"/><stop offset="0.75" stop-color="#93a1cb"/><stop offset="1" stop-color="#8b9eca"/></linearGradient><linearGradient id="linear-gradient-11" x1="348.99" y1="431.91" x2="487.7" y2="431.91" gradientUnits="userSpaceOnUse"><stop offset="0" stop-color="#99a7d0"/><stop offset="0.3" stop-color="#c1aabb"/><stop offset="0.58" stop-color="#ddacac"/><stop offset="0.82" stop-color="#efaea2"/><stop offset="1" stop-color="#f5ae9f"/></linearGradient><linearGradient id="linear-gradient-12" x1="365.18" y1="442.33" x2="384.94" y2="442.33" xlink:href="#linear-gradient-10"/><linearGradient id="linear-gradient-13" x1="-2180.46" y1="1849.46" x2="-2160.15" y2="1849.46" gradientUnits="userSpaceOnUse"><stop offset="0" stop-color="#99a7d0"/><stop offset="0.14" stop-color="#b0acca"/><stop offset="0.35" stop-color="#cbb2c3"/><stop offset="0.56" stop-color="#deb6be"/><stop offset="0.78" stop-color="#eab8bb"/><stop offset="1" stop-color="#eeb9ba"/></linearGradient><linearGradient id="linear-gradient-14" x1="-2262.21" y1="1857.22" x2="-2243.2" y2="1857.22" gradientTransform="translate(-4505.41 3714.44) rotate(-180)" xlink:href="#linear-gradient-10"/><linearGradient id="linear-gradient-15" x1="-2240.76" y1="1820.69" x2="-2252.7" y2="1820.69" gradientTransform="translate(-4493.47 3641.38) rotate(-180)" xlink:href="#linear-gradient-10"/><linearGradient id="linear-gradient-16" x1="-2252.48" y1="1722.77" x2="-2007.51" y2="1722.77" xlink:href="#linear-gradient-10"/><linearGradient id="linear-gradient-17" x1="-2254.98" y1="1812.06" x2="-2238.49" y2="1812.06" gradientTransform="translate(-4493.47 3624.12) rotate(-180)" xlink:href="#linear-gradient-11"/><linearGradient id="linear-gradient-18" x1="-2444.43" y1="1821.05" x2="-2444.75" y2="1820.16" gradientUnits="userSpaceOnUse"><stop offset="0" stop-color="#280f56"/><stop offset="1" stop-color="#351787"/></linearGradient><linearGradient id="linear-gradient-19" x1="-2454.67" y1="1853.58" x2="-2455.09" y2="1852.43" xlink:href="#linear-gradient-18"/><linearGradient id="linear-gradient-20" x1="-2325.72" y1="1879.02" x2="-2326.27" y2="1877.5" xlink:href="#linear-gradient-18"/><linearGradient id="linear-gradient-21" x1="-2364.08" y1="2045.5" x2="-2510.31" y2="1643.73" xlink:href="#linear-gradient-18"/></defs><title>woods</title><g class="cls-1"><g id="Layer_1" data-name="Layer 1"><path class="cls-2" d="M-1587.06,1854a302.3,302.3,0,0,0-96.36-24.74c-12.93-1.11-26.09-1.41-38.52-5.11-18.66-5.55-34.24-16.86-54-18.57-16.83-1.46-45.7,5.77-53-1.51s2.86-12.6,9.76-14.24,28.58-7,30.19-18.35-266.52-43.31-395.13-41.41c-132.27,2-264,16.09-395.08,32.9l-46.44,74.93v147.26a220,220,0,0,0,16.88,34c4.63,7.59,9.88,15.08,17.21,20.16,8.7,6,19.51,8.09,30,9.45,25.51,3.31,54.63,5.4,80,.48,23.43-4.55,44.19,1.56,67.85,2.91,13.2.75,26.41-.86,39.53-2.48,100.75-12.37,127.26-31.86,228.77-31.86,35.45,0,77.85-16,82.18-31.78,5-18.16,155.43-36.67,163.53-51.94,2.82-5.32-2.92-11-4.72-16.69-5.75-18.35,24.82-23.59,36.6-24.84,80.85-8.63,162.15-9.72,243.13-16.87,15.58-1.38,31.62-2.88,45.5-10C-1576.37,1861.13-1582.15,1856.17-1587.06,1854Z" transform="translate(2625.7 -1388.72)"/><path class="cls-3" d="M-2625.7,1560.23v12.94c3.18,2.1,5.32,3.31,9.75,3.41Z" transform="translate(2625.7 -1388.72)"/><path class="cls-4" d="M-2625.7,1559.15a26,26,0,0,0,8.59,4.91c-3.49-4.26-6.25-7.9-8.59-11.36Z" transform="translate(2625.7 -1388.72)"/><path class="cls-5" d="M-1858.48,1801.59l-16.64-11.56c-2.64-1.83-2.69-3.12-3.77-6-.69-1.85-1.53-4.51-3.53-5.47a8.08,8.08,0,0,0,5.65,1.28c-4.18-5.59-6-14.22-8-20.34.82.28,4.29,1.2,4.29,1.2s-3-7.57-3.72-8.87c1.3,1.35,1.1.58,3,1.25-4.08-5.62-5.67-8.94-8.78-17l2.83,1.17a18.07,18.07,0,0,1-2.44-6l2.8.76c-7.65-8.52-8-18.26-10.81-29.91a5.21,5.21,0,0,0,1.84,1.69c-2.53-3.69-3.59-8.26-4.1-12.48,0,3-2,11.84-3.66,14.87.53-.44.61,0,1.16-.8-1.25,5.53-2.21,7.2-4,11.26.42,0,.62-.25,1.3-.81-.65,4.59-1.19,7.75-4.44,15.54,1.1,0,1.47-.73,2.46-1.55a12.82,12.82,0,0,1-3.49,4.79,4.24,4.24,0,0,0,1.91-.94c-.09,1.55-5.42,15.64-10.52,26.56a3.69,3.69,0,0,0,3.5-2.34c-1.12,4.62-5,9-7.19,13.27,5.17,0-5.17,13.44-5.17,13.44s-12.07-13-17.15-23.76a9.5,9.5,0,0,0,5.64,2.45c-3.79-5.47-5.52-7.64-8.07-13.8,3.28,2.28,5.19,2.68,7.67,2.84-8.62-12.28-17.38-30.57-22.58-44.43,3,2,4.58,3.11,8.38,3.2l-8.66-14.52a19.68,19.68,0,0,0,7.77,4.86c-9.15-11.15-11.92-16.94-16.8-29.6l4.44,1.84a28.38,28.38,0,0,1-3.83-9.43l4.4,1.19c-12-13.38-12.63-28.67-17-47a8.18,8.18,0,0,0,2.89,2.66c-4-5.79-5.64-13-6.44-19.61,0,4.72-3.14,18.59-5.74,23.35.83-.69,1,.06,1.83-1.26-2,8.68-3.46,11.3-6.31,17.68.66,0,1-.39,2-1.28-1,7.21-1.88,12.17-7,24.41,1.73,0,2.31-1.14,3.87-2.44a20.13,20.13,0,0,1-5.49,7.52,6.65,6.65,0,0,0,3-1.48c-.14,2.44-8.51,24.57-16.52,41.71,2.53,0,4.92-1.62,5.5-3.67a67.09,67.09,0,0,1-9.63,21.63,18.09,18.09,0,0,0,9-5.49,130.82,130.82,0,0,1-11.18,27.3c-2.13-3.49-3.8-6.42-4.65-8.24a7.09,7.09,0,0,0,4.22,1.83c-2.83-4.08-4.13-5.71-6-10.31a9.83,9.83,0,0,0,5.73,2.12c-6.44-9.17-13-22.84-16.87-33.19,2.22,1.47,3.42,2.33,6.26,2.39l-6.47-10.85a14.7,14.7,0,0,0,5.8,3.63c-6.84-8.33-8.9-12.65-12.55-22.11l3.32,1.37a21.19,21.19,0,0,1-2.86-7l3.29.89c-9-10-9.43-21.42-12.68-35.09a6.12,6.12,0,0,0,2.16,2c-3-4.32-4.21-9.69-4.81-14.64,0,3.53-2.34,13.88-4.29,17.44.62-.52.72,0,1.36-.94-1.47,6.48-2.59,8.44-4.72,13.21.49,0,.73-.29,1.52-1-.77,5.39-1.4,9.09-5.21,18.23,1.29,0,1.72-.85,2.89-1.82a15,15,0,0,1-4.1,5.61,5,5,0,0,0,2.24-1.1c-.1,1.82-6.36,18.35-12.34,31.15a4.32,4.32,0,0,0,4.11-2.74,50.1,50.1,0,0,1-7.19,16.16,13.51,13.51,0,0,0,6.71-4.1,94.42,94.42,0,0,1-7.4,18.57c-2.39-3.91-4.26-7.19-5.22-9.24a8.06,8.06,0,0,0,4.79,2.07c-3.21-4.64-4.68-6.48-6.85-11.71a11.16,11.16,0,0,0,6.51,2.41c-7.32-10.41-14.74-25.93-19.15-37.68,2.52,1.67,3.89,2.64,7.11,2.71l-7.34-12.32a16.69,16.69,0,0,0,6.59,4.12c-7.76-9.46-10.11-14.37-14.25-25.11l3.77,1.56a24.08,24.08,0,0,1-3.25-8l3.74,1c-10.18-11.35-10.71-24.32-14.4-39.85a6.94,6.94,0,0,0,2.45,2.26c-3.38-4.91-4.78-11-5.47-16.63,0,4-2.66,15.77-4.87,19.81.71-.59.82,0,1.55-1.07-1.67,7.36-2.94,9.59-5.36,15,.56,0,.83-.33,1.73-1.08-.87,6.12-1.59,10.32-5.92,20.71,1.46,0,2-1,3.28-2.07a17.08,17.08,0,0,1-4.66,6.38,5.64,5.64,0,0,0,2.54-1.25c-.12,2.07-7.22,20.84-14,35.38a4.91,4.91,0,0,0,4.67-3.11,56.52,56.52,0,0,1-7,16.39,247.32,247.32,0,0,1-19.23-39.69c3.1,2.06,4.78,3.25,8.74,3.34l-9-15.14a20.52,20.52,0,0,0,8.1,5.06c-9.54-11.63-12.43-17.66-17.52-30.86l4.63,1.91a29.59,29.59,0,0,1-4-9.84l4.59,1.24c-12.52-13.95-13.17-29.89-17.7-49a8.54,8.54,0,0,0,3,2.77c-4.15-6-5.88-13.53-6.72-20.44,0,4.92-3.27,19.38-6,24.35.87-.72,1,.06,1.9-1.31-2,9-3.61,11.78-6.58,18.43.69,0,1-.41,2.13-1.33-1.07,7.52-2,12.69-7.28,25.45,1.8,0,2.41-1.19,4-2.54a21,21,0,0,1-5.72,7.84,6.94,6.94,0,0,0,3.12-1.54c-.14,2.54-8.87,25.62-17.22,43.49,2.64,0,5.13-1.69,5.74-3.83a69.94,69.94,0,0,1-10,22.55,18.87,18.87,0,0,0,9.36-5.72,117.54,117.54,0,0,1-5.11,14.7c-6.14-9.38-11.38-18-13.35-22.2a9.17,9.17,0,0,0,5.45,2.36c-3.66-5.28-5.33-7.38-7.8-13.33a12.71,12.71,0,0,0,7.41,2.74c-8.33-11.86-16.79-29.53-21.81-42.91,2.87,1.9,4.43,3,8.1,3.09l-8.36-14a19,19,0,0,0,7.5,4.69c-8.84-10.77-11.51-16.36-16.23-28.59l4.29,1.77a27.41,27.41,0,0,1-3.7-9.11l4.25,1.15c-11.6-12.92-12.2-27.69-16.39-45.37a7.9,7.9,0,0,0,2.8,2.57c-3.84-5.59-5.45-12.53-6.22-18.94,0,4.56-3,18-5.55,22.56.81-.67.93.06,1.76-1.21-1.9,8.38-3.35,10.92-6.1,17.08.63,0,.94-.38,2-1.23-1,7-1.81,11.76-6.74,23.58,1.67,0,2.23-1.1,3.73-2.35a19.44,19.44,0,0,1-5.3,7.26,6.43,6.43,0,0,0,2.89-1.43c-.13,2.36-8.22,23.73-16,40.28,2.45,0,4.75-1.57,5.32-3.54a64.79,64.79,0,0,1-9.3,20.89,17.47,17.47,0,0,0,8.68-5.3c-4,15-11,27.31-19.2,41.33-5.77-8.8-10.72-16.95-12.56-20.87a8.5,8.5,0,0,0,5.05,2.19c-3.39-4.89-4.94-6.84-7.23-12.35a11.77,11.77,0,0,0,6.87,2.54c-7.72-11-15.56-27.36-20.21-39.76,2.66,1.76,4.1,2.79,7.5,2.86l-7.75-13a17.61,17.61,0,0,0,6.95,4.35c-8.19-10-10.67-15.16-15-26.49l4,1.64a25.4,25.4,0,0,1-3.43-8.44l3.94,1.07c-10.74-12-11.3-25.66-15.19-42a7.33,7.33,0,0,0,2.59,2.38c-3.56-5.18-5-11.61-5.77-17.55,0,4.22-2.81,16.63-5.14,20.9.75-.62.86.05,1.63-1.12-1.76,7.77-3.1,10.11-5.65,15.82.59,0,.87-.35,1.83-1.14-.92,6.45-1.68,10.89-6.25,21.85,1.55,0,2.06-1,3.46-2.18a18,18,0,0,1-4.91,6.73,6,6,0,0,0,2.68-1.32c-.12,2.18-7.62,22-14.78,37.33a5.18,5.18,0,0,0,4.93-3.28,60,60,0,0,1-8.62,19.36,16.2,16.2,0,0,0,8-4.91c-4.07,15-11.34,27.22-19.74,41.65a31.51,31.51,0,0,0,10.29-5c-1.38,1-2.23,4.39-3,5.84q-1.68,3.06-3.5,6.07c-.84,1.39-1.71,2.75-2.59,4.12-7-10.71-12.78-20.38-15-25.2a11.23,11.23,0,0,0,6.67,2.89c-4.48-6.47-6.53-9-9.55-16.32,3.88,2.69,6.14,3.17,9.07,3.36-10.2-14.52-20.56-36.16-26.71-52.55,3.51,2.33,5.42,3.68,9.92,3.78l-10.24-17.17a23.28,23.28,0,0,0,9.18,5.74c-10.82-13.19-14.1-20-19.88-35l5.25,2.17a33.57,33.57,0,0,1-4.54-11.16l5.21,1.41c-14.2-15.82-14.94-33.91-20.08-55.56a9.68,9.68,0,0,0,3.42,3.15c-4.71-6.85-6.67-15.34-7.62-23.19,0,5.58-3.71,22-6.79,27.62,1-.82,1.14.07,2.16-1.49-2.33,10.27-4.1,13.37-7.47,20.91.78,0,1.15-.46,2.41-1.51-1.21,8.53-2.22,14.4-8.26,28.87,2,0,2.73-1.35,4.57-2.88a23.81,23.81,0,0,1-6.49,8.89,7.87,7.87,0,0,0,3.54-1.75c-.16,2.8-9.47,27.47-18.67,47.45l-9.08-15.22a25.48,25.48,0,0,0,10.06,6.29c-11.85-14.44-15.43-21.93-21.76-38.33l5.75,2.38a36.74,36.74,0,0,1-5-12.22l5.7,1.54c-15.55-17.32-16.35-37.12-22-60.83a10.6,10.6,0,0,0,3.75,3.44c-5.15-7.5-7.3-16.8-8.34-25.39,0,6.11-4.06,24.07-7.44,30.24,1.08-.9,1.25.08,2.36-1.63-2.55,11.24-4.49,14.63-8.18,22.89.85,0,1.26-.5,2.64-1.65-1.33,9.34-2.43,15.76-9,31.61,2.24,0,3-1.48,5-3.16a26.07,26.07,0,0,1-7.11,9.73,8.62,8.62,0,0,0,3.88-1.91c-.18,3.16-11,31.81-21.39,54,3.28,0,6.37-2.1,7.13-4.75a86.87,86.87,0,0,1-12.47,28,23.43,23.43,0,0,0,11.63-7.11,154.92,154.92,0,0,1-10,26.39,315.43,315.43,0,0,1-20.13-42v189.89c2.47,8.46,5.87,16.45,12.06,22.81,14.08,14.45,37.25,15.29,57.86,15.12l131.27-1.05a172.15,172.15,0,0,1,20.11.62c7.86.86,15.55,2.8,23.36,4,27.25,4.29,55.19,1.13,82.54-2.54,2.79-.37,6.76-.73,11.61-1.06l0,.08,46.77-.13c13.05,0,25.85.21,38.7,2.47a90.9,90.9,0,0,0,10,1.38c8.67.54,17.28-1.39,25.94-2.1a9,9,0,0,0-.71,3.95l21.83-5a36.59,36.59,0,0,0-5.39,7.48c5.25-.22,10.4-3.72,14.09-7.9.83.34,1,.7.5,1.11-.77.17,9.78,3.48,16.12,5.24l-8.93-5.09a16.58,16.58,0,0,0,15.83-1.32,6.35,6.35,0,0,1,2.92-1.44,6.18,6.18,0,0,1,2.2.41,21,21,0,0,0,9.45.55,25.48,25.48,0,0,0-4.84,4.38,57.57,57.57,0,0,0,10.74-1.42c6.32-1.66,12.23-5.51,18.77-5.09,2.84.18,5.54,1.17,8.27,1.91a49.15,49.15,0,0,0,17.94,1.44,4.41,4.41,0,0,1-2.42-3l7.75,0a25,25,0,0,1-8-6l24,7.56-7-4.43a75.05,75.05,0,0,0,24.21,4.48,32.85,32.85,0,0,1-6.6-3.6l14-.54a47,47,0,0,0,11.44-1.8c1.48-.41,5.69-1,6.67-2.13l-5.58,6.54,11.52-2.23a9.38,9.38,0,0,0-2.86,4,41.61,41.61,0,0,0,16.6-6.26,49.28,49.28,0,0,0,18.15,8.1,10.15,10.15,0,0,1-3.84-4.11,21.25,21.25,0,0,0,17.52-1l-1.71,1.81a25.47,25.47,0,0,0,8.86-1.27,15.07,15.07,0,0,0-5.14,4.43l15.87-5.36a9,9,0,0,1,3.21-.66,9.8,9.8,0,0,1,3.64,1.19,51.64,51.64,0,0,0,14.23,4.27l-5.88-4.53a133.72,133.72,0,0,0,29.37,5.34l-7-4.36,8.88.58Zm-661-203.61q-1.06-2.21-2.08-4.41a19.62,19.62,0,0,0,4.68-3.94C-2517.65,1592.49-2518.53,1595.25-2519.47,1598Zm-4-8.57c-2.65-5.92-5-11.7-7-17,3.84,2.55,5.94,4,10.86,4.14l-1.17-2a6.45,6.45,0,0,0,4.68-4.07A78,78,0,0,1-2523.45,1589.41Zm199,78.42c-.4.74-.85,1.46-1.27,2.2q-1.48-2.18-2.92-4.35a33.11,33.11,0,0,0,7.45-4.15C-2322.68,1662.64-2323.6,1666.26-2324.45,1667.83Zm83.67,46.24a3.92,3.92,0,0,1-.13-.61l.3.17Zm84.4-6.34c-.09-.19-.22-.43-.3-.6.13.12.29.22.43.34Zm1.74-3.64a48.88,48.88,0,0,1-4.58-8.8,13.81,13.81,0,0,0,7,2.88C-2153,1700.17-2153.77,1702.14-2154.65,1704.09Zm2.79-6.8c-1-1.41-1.94-2.87-2.91-4.41a14.85,14.85,0,0,0,5.65-4C-2149.91,1691.81-2150.85,1694.58-2151.87,1697.29Zm228.27,98-.26-.38c.36-.24.73-.47,1.07-.73A3.35,3.35,0,0,0-1923.6,1795.3Z" transform="translate(2625.7 -1388.72)"/><g class="cls-6"><path class="cls-7" d="M-1867.81,1892.6c80.85-8.63,162.15-9.72,243.13-16.87,14.75-1.3,29.9-2.78,43.25-9-52.38,9.21-182.25,6.66-264.83,11.28-17.92,1-56.62,7.46-69.73,19.64-7.42,6.9,7.37,20.32.91,28.11-15.89,19.18-42.27,17.31-67.12,20.13s-50.64,2.81-73.64,12.57c-13.89,5.89-26.09,15.09-39.66,21.66-21.59,10.46-45.82,13.92-69.61,17.25l-162.31,22.73c-11.47,1.61-23.21,3.3-33.41,8.74-8.53,4.55-15.87,12.33-18.17,21.48l4.84-.59c100.75-12.37,127.26-31.86,228.77-31.86,35.45,0,77.85-16,82.18-31.78,5-18.16,155.43-36.67,163.53-51.94,2.82-5.32-2.92-11-4.72-16.69C-1910.16,1899.1-1879.59,1893.86-1867.81,1892.6Z" transform="translate(2625.7 -1388.72)"/></g><path class="cls-8" d="M-1631.88,1843.54c-.63-5.62-54.93-7.26-61.14-7.92-18-1.93-39.73-5.55-56.09-12.91-9.93-4.47-18.95-10.89-29.51-13.83-15.47-4.32-30.06,3.22-45.38,1.46-15-1.73-29.56-9.14-45-11.83q-57.15-9.93-115.07-14.37c-30.92-2.35-61.93-3.52-92.82-6.28-86.66-7.76-169.14-33.75-254.7-46.46-91.7-13.63-185.11-23.24-277.57-11.12-5.5.72-11,1.55-16.51,2.69v167c13.15,3.2,27,4.65,40.52,5.61,124.59,8.75,249.4-17.08,374.25-12.51,20.22.74,40.42,1.84,60.63,2.7,16.69.71,35.32,2.85,51.9.6,7.36-1,14.43-4,21.86-4,4.88,0,9.67,1.21,14.53,1.71,6.84.71,13.75-.06,20.58-.83,13.07-1.47,26.19-2.94,38.95-6.12,5.52-1.37,11.06-3.07,16.75-2.94,5,.12,10.44,1.55,14.66-1.08.35-1.45-1.86-1.89-3.36-2-4.16-.34-7.31-3.67-10.42-6.42s-7.46-5.23-11.26-3.53a43.15,43.15,0,0,0-10.31-8.16l62.91-2.92c7.75-.36,15.51-.72,23.27-.85,18.86-.33,37.35,2.44,56.27,1.36,19.21-1.1,38.38-4,57.67-2.91,34.47,2,68.91,4.47,103.22,4.27,21.84-.12,43.74-.83,65.3-4.06C-1635.05,1847.42-1631.59,1846.11-1631.88,1843.54Z" transform="translate(2625.7 -1388.72)"/><g class="cls-9"><path class="cls-10" d="M-2326.54,1922.79c31.85,2.07,63.78,4.14,95.67,2.79a173.15,173.15,0,0,0,19.74-1.74c4.35-.69,8.66-1.64,13-2.6,18.41-4.09,57-11.87,57-11.87s-10.33-4.46-15-5.28c-8.61-1.5-17.31-2.36-26-3.23-33.35-3.32-66.94-6.64-100.33-3.76-26.63,2.29-53.48,8.51-79.81,3.89" transform="translate(2625.7 -1388.72)"/></g><polygon class="cls-11" points="415.81 527.05 354.06 522.15 354.06 446.07 415.81 446.07 415.81 527.05"/><polygon class="cls-12" points="415.81 527.05 484.51 520.66 484.51 446.07 451.76 417.74 415.81 446.07 415.81 527.05"/><polygon class="cls-13" points="468.16 431.93 451.76 418.47 450.81 418.49 415.81 446.07 354.06 446.07 354.06 447.96 415.81 447.96 450.16 420.89 484.51 447.96 484.51 446.07 468.16 431.93"/><polygon class="cls-14" points="349 446.07 384.94 417.74 451.76 417.74 487.7 446.07 484.51 446.07 450.16 419 415.81 446.07 349 446.07"/><polygon class="cls-15" points="384.94 438.58 378.43 446.08 365.18 446.08 373 438.58 384.94 438.58"/><path class="cls-16" d="M-2167.71,1837.8h7.56v9.91h-7.56Zm0,23.31h7.56v-9.91h-7.56Zm-12.75-13.4h7.56v-9.91h-7.56Zm0,13.4h7.56v-9.91h-7.56Z" transform="translate(2625.7 -1388.72)"/><rect class="cls-17" x="-2262.21" y="1851.2" width="19.01" height="12.03" transform="translate(-1879.71 2325.72) rotate(180)"/><rect class="cls-18" x="-2252.7" y="1814.08" width="11.94" height="13.21" transform="translate(-1867.77 2252.66) rotate(180)"/><g class="cls-19"><path class="cls-20" d="M-2231,1778.82q-.1,1.35-.32,2.69a35,35,0,0,1-7.1,16.08,32.08,32.08,0,0,1-6.17,6c-2.22,1.62-5.32,2.16-7,4.53a3.45,3.45,0,0,0-.38,3.82,3.27,3.27,0,0,0,1.41,1,9.59,9.59,0,0,0,10.61-2.17,33.53,33.53,0,0,1,3.12-3.37c1.79-1.39,4-2.21,5.91-3.36a38.11,38.11,0,0,0,6.66-5.07,48.61,48.61,0,0,1,5.11-4.25c9.78-7.08,21.43-10.36,32.86-12.39,14.61-2.59,29.64-3.45,43.58-8.93,8.28-3.25,16.4-8.49,20.74-16.89,2.16-4.19,3.27-8.94,5.31-13.2,4.83-10.08,14.29-16.34,23.63-21.3,22.75-12.08,47.63-19.52,68.83-34.62,8.66-6.17,17.35-15.34,16.76-26.65-.75-14.27-15.36-22.18-28.09-25.15-33.69-7.86-68.86-2.23-102.13,7.53-13.58,4-28.62,10.22-33.91,24.52-6.5,17.59,4.54,41-6.93,55.17-3.14,3.89-7.5,6.27-11.75,8.56l-26.27,14.15c-4.56,2.45-9.36,5.15-12,9.93C-2232.32,1762.24-2230.44,1770.9-2231,1778.82Z" transform="translate(2625.7 -1388.72)"/></g><rect class="cls-21" x="-2254.98" y="1809.33" width="16.49" height="5.45" transform="translate(-1867.77 2235.4) rotate(180)"/><rect class="cls-22" x="0.72" width="1181.98" height="645"/><path class="cls-23" d="M-2444.84,1821.2l.51-1.19A.79.79,0,0,0-2444.84,1821.2Z" transform="translate(2625.7 -1388.72)"/><path class="cls-24" d="M-2455.26,1853.79l.86-1.61C-2455.25,1852.44-2455.93,1853.21-2455.26,1853.79Z" transform="translate(2625.7 -1388.72)"/><path class="cls-25" d="M-2325.64,1878.7l-.61-1.2.36,1.57h0Z" transform="translate(2625.7 -1388.72)"/><path class="cls-26" d="M-2159.27,1965.47c-2.2-.44-4.6-.63-6.34-2a15.14,15.14,0,0,1-2.25-2.66c-6.07-7.88-18.46-10.56-27.72-12.34-11.21-2.16-22.67-3-33.73-5.95-8.72-2.3-17.62-6.4-21.72-13.82-1.89-3.43-2.64-7.38-5-10.55-4.43-5.94-13.12-7.58-19.32-12-5.17-3.67-21.71-30.61-8.27-30.53-10.86-22.6-15.7-50.38-20.21-74.87.76,4.1-1.95,10.66-2.86,14.73q-1.75,7.76-4,15.42c-2.74,9.38-5.32,17.72-11.48,25.87a33.92,33.92,0,0,0,7.69-4.77l-8.2,12.05a26.06,26.06,0,0,1,4.49-2.76,54,54,0,0,1-7.45,17.44l.31.62-.55-.24h0c-1.52-.68-3-1.57-3.4-3-.4-1.66,2.25-3.4,3.29-2l-6.23-9.4,5.88,1.45a154.91,154.91,0,0,1-18.73-32.18,12.46,12.46,0,0,0,6.41,1.74l-6.6-10,5.77,2.85c-7.14-6-10.06-15-12.67-23.48l-15.17-49.48a285.32,285.32,0,0,1-24.85,79c2.67-2,4.37,3.77,1.77,5.9s-6.72,4.55-5.18,7.42l6.85-3.19-7.43,15.93a87.66,87.66,0,0,1-12.15-25.75l5,2.88a523.66,523.66,0,0,1-21.86-82.21,282.49,282.49,0,0,1-19.15,64.48c1.07-.41,3.14.07,3.07,1.45-.1,2-2.59,3.12-4.7,3.77,3.13-1.27,3.89,4,2.37,6.82l-10.82,20.14a1.45,1.45,0,0,1,1.41.22c1,.94.71,2.5.32,3.77l-2.11,7a391.84,391.84,0,0,1-23.9-38.5l9.91,4.45a207.42,207.42,0,0,1-19.58-42.33l7.45,4.34-7.28-16.32a1.25,1.25,0,0,0,1-.22c1.43-1.08,1-3.14.42-4.76l-13.49-38.38c-2.87-14.34-3-44.15-12.25-55-5.23,19.26-7.56,38.2-16.32,56.82,1.69,12-3.13,24.71-12.62,33.18l6.64-3.44-7.18,12.64a11.7,11.7,0,0,0,6.9-2.28,207.13,207.13,0,0,1-20.08,40.64l6.56-1.79-6.11,10.1a136.94,136.94,0,0,1-16.36-35.56l7.41,4.39-7.24-16.36a1.23,1.23,0,0,0,.94-.22c1.43-1.06,1-3.12.44-4.73l-13.42-38.46-12-56.84a209.89,209.89,0,0,1-16.57,58.78c1.58,12-3.24,24.64-12.67,33.13l6.62-3.45-7.18,12.64a12.3,12.3,0,0,0,6.89-2.29c-2.29,6.32-4.93,12.54-7.85,18.64v188.59q44,.61,88,.68,59.77.08,119.53-.85,29.88-.47,59.75-1.19c9.9-.24,20,.08,29.88-.78,8.88-.77,17.89-.28,26.87-1.23,7.84-.83,15.67-1.88,23.56-2.08s15.81.47,23.71.3c9.08-.19,18.09-1.47,27.12-2.4,13.7-1.41,27.47-2,41.24-2.62q16.06-.7,32.11-1.39C-2154.65,1966.9-2157.07,1965.9-2159.27,1965.47Zm-408.43-90.4-.24-.74.62.24Zm10.83-42.05c-.53-.93-1.08-1.84-1.58-2.77-.82-1.51-1.69-5-3.11-6.06a31.52,31.52,0,0,0,7.48,4.16C-2554.93,1829.78-2555.86,1831.34-2556.88,1833Zm4-6.84-1.26-2.19a8.31,8.31,0,0,0,3.4-1.91C-2551.22,1823.15-2552,1824.55-2552.86,1826.17Zm153.55,39.63-.2-.35c-.58-1.07-1.19-3.52-2.2-4.28a21.88,21.88,0,0,0,3.83,2.3C-2398.36,1864.24-2398.82,1865-2399.31,1865.8Z" transform="translate(2625.7 -1388.72)"/></g></g></svg>